<svg width="48" height="48" viewBox="0 0 48 48" fill="none" xmlns="http://www.w3.org/2000/svg">
<path d="M30 22C31.1046 22 32 21.1046 32 20C32 18.8954 31.1046 18 30 18C28.8954 18 28 18.8954 28 20C28 21.1046 28.8954 22 30 22Z" fill="#0D1217"/>
<path d="M20 20C20 21.1046 19.1046 22 18 22C16.8954 22 16 21.1046 16 20C16 18.8954 16.8954 18 18 18C19.1046 18 20 18.8954 20 20Z" fill="#0D1217"/>
<path fill-rule="evenodd" clip-rule="evenodd" d="M16.5 10.5513V10C16.5 5.85786 19.8579 2.5 24 2.5C28.1421 2.5 31.5 5.85786 31.5 10V10.5513C32.8169 10.5921 33.9895 10.6652 35.0299 10.7964C37.4324 11.0992 39.3771 11.7364 40.8794 13.2036C41.3806 13.6931 41.8262 14.2366 42.2079 14.8241C43.352 16.5849 43.5954 18.6168 43.4212 21.0321C43.2507 23.3958 42.6572 26.3635 41.9039 30.1296L41.8657 30.3208C41.3429 32.9346 40.9269 35.0148 40.4122 36.6512C39.882 38.3367 39.2049 39.6995 38.0723 40.8033C37.6827 41.183 37.2613 41.5285 36.8126 41.8361C35.508 42.7302 34.0389 43.1269 32.2822 43.3162C30.5766 43.5 28.4553 43.5 25.7897 43.5H22.2106C19.545 43.5 17.4236 43.5 15.7181 43.3162C13.9614 43.1269 12.4923 42.7302 11.1877 41.8361C10.739 41.5285 10.3175 41.183 9.92799 40.8033C8.79533 39.6995 8.11828 38.3367 7.5881 36.6512C7.07335 35.0148 6.65733 32.9347 6.13459 30.3208L6.09644 30.1301C5.34315 26.3638 4.74956 23.3959 4.57908 21.0321C4.40488 18.6168 4.6483 16.5849 5.79238 14.8241C6.1741 14.2366 6.61964 13.6931 7.12087 13.2036C8.62314 11.7364 10.5678 11.0992 12.9704 10.7964C14.0107 10.6652 15.1832 10.5921 16.5 10.5513ZM19.5 10C19.5 7.51472 21.5147 5.5 24 5.5C26.4853 5.5 28.5 7.51472 28.5 10V10.5044C27.6516 10.5 26.7559 10.5 25.811 10.5H22.1892C21.2442 10.5 20.3485 10.5 19.5 10.5044V10ZM9.21698 15.3498C10.0459 14.5403 11.2329 14.0391 13.3456 13.7728C15.4874 13.5028 18.3246 13.5 22.2972 13.5H25.7031C29.6756 13.5 32.5129 13.5028 34.6547 13.7728C36.7673 14.0391 37.9544 14.5403 38.7833 15.3498C39.1262 15.6848 39.4311 16.0566 39.6922 16.4586C40.3235 17.4301 40.5821 18.6924 40.429 20.8163C40.2737 22.9694 39.72 25.7521 38.9409 29.6476C38.3973 32.3655 38.011 34.2868 37.5504 35.751C37.0997 37.1839 36.6207 38.029 35.9784 38.6549C35.7119 38.9147 35.4235 39.1511 35.1165 39.3615C34.3767 39.8686 33.4541 40.1725 31.9607 40.3335C30.4346 40.498 28.4748 40.5 25.7031 40.5H22.2972C19.5254 40.5 17.5657 40.498 16.0396 40.3335C14.5461 40.1725 13.6235 39.8686 12.8838 39.3615C12.5768 39.1511 12.2884 38.9147 12.0219 38.6549C11.3796 38.029 10.9006 37.1839 10.4498 35.751C9.98925 34.2868 9.60293 32.3655 9.05935 29.6476C8.28026 25.7521 7.72659 22.9694 7.5713 20.8163C7.41813 18.6924 7.67677 17.4301 8.30801 16.4586C8.56919 16.0566 8.87404 15.6848 9.21698 15.3498Z" fill="#0D1217"/>
</svg>
