<svg width="48" height="48" viewBox="0 0 48 48" fill="none" xmlns="http://www.w3.org/2000/svg">
<path fill-rule="evenodd" clip-rule="evenodd" d="M16.5 14.003L16.5 12C16.5 7.85786 19.8579 4.5 24 4.5C28.1421 4.5 31.5 7.85786 31.5 12V14L31.5 14.003C36.8687 14.0272 39.7212 14.2444 41.3212 16.1961C43.1215 18.3921 42.4574 21.7126 41.1293 28.3534L39.9293 34.3534C39.0057 38.9712 38.5439 41.2801 36.8851 42.6401C35.2262 44 32.8716 44 28.1623 44H19.8376C15.1283 44 12.7737 44 11.1148 42.6401C9.45598 41.2801 8.9942 38.9712 8.07064 34.3534L6.87064 28.3534C5.54247 21.7126 4.87838 18.3921 6.67873 16.1961C8.27873 14.2444 11.1312 14.0272 16.5 14.003ZM19.5 12C19.5 9.51472 21.5147 7.5 24 7.5C26.4853 7.5 28.5 9.51472 28.5 12V14H19.5V12ZM30 22C31.1045 22 32 21.1046 32 20C32 18.8954 31.1045 18 30 18C28.8954 18 28 18.8954 28 20C28 21.1046 28.8954 22 30 22ZM20 20C20 21.1046 19.1045 22 18 22C16.8954 22 16 21.1046 16 20C16 18.8954 16.8954 18 18 18C19.1045 18 20 18.8954 20 20Z" fill="#0D1217"/>
</svg>
