<svg width="48" height="48" viewBox="0 0 48 48" fill="none" xmlns="http://www.w3.org/2000/svg">
<path d="M41.8827 16.3776C43.043 17.5241 43.5421 18.9677 43.7754 20.6822C44.0001 22.3336 44 24.4333 44 27.0382V27.2473C44 29.8522 44.0001 31.9519 43.7754 33.6033C43.5421 35.3178 43.043 36.7614 41.8827 37.9079C40.7224 39.0544 39.2615 39.5475 37.5264 39.778C35.8551 40.0001 33.7302 40 31.094 40H21.244C18.6077 40 16.4828 40.0001 14.8116 39.778C13.0765 39.5475 11.6155 39.0544 10.4552 37.9079C9.75131 37.2123 9.29071 36.4074 8.98521 35.499C10.7281 35.7148 12.8844 35.7146 15.3757 35.7145H25.3948C27.9581 35.7146 30.1667 35.7148 31.9353 35.4798C33.8307 35.228 35.6476 34.6602 37.1213 33.204C38.595 31.7478 39.1697 29.9525 39.4245 28.0796C39.6623 26.3319 39.6622 24.1496 39.662 21.6168V21.2406C39.6622 18.7782 39.6623 16.6471 39.4438 14.9247C40.3636 15.2266 41.1785 15.6818 41.8827 16.3776Z" fill="#0D1217"/>
<path d="M20.3853 18.0953C18.5222 18.0953 17.0118 19.5877 17.0118 21.4287C17.0118 23.2696 18.5222 24.762 20.3853 24.762C22.2484 24.762 23.7587 23.2696 23.7587 21.4287C23.7587 19.5877 22.2484 18.0953 20.3853 18.0953Z" fill="#0D1217"/>
<path fill-rule="evenodd" clip-rule="evenodd" d="M5.69381 11.6737C4 13.3474 4 16.0411 4 21.4287C4 26.8162 4 29.51 5.69381 31.1836C7.38762 32.8573 10.1138 32.8573 15.5661 32.8573H25.2044C30.6567 32.8573 33.3829 32.8573 35.0767 31.1836C36.7705 29.51 36.7705 26.8162 36.7705 21.4287C36.7705 16.0411 36.7705 13.3474 35.0767 11.6737C33.3829 10 30.6567 10 25.2044 10H15.5661C10.1138 10 7.38762 10 5.69381 11.6737ZM14.1203 21.4287C14.1203 18.0097 16.9252 15.2381 20.3853 15.2381C23.8453 15.2381 26.6502 18.0097 26.6502 21.4287C26.6502 24.8476 23.8453 27.6192 20.3853 27.6192C16.9252 27.6192 14.1203 24.8476 14.1203 21.4287ZM30.9875 26.6668C30.189 26.6668 29.5417 26.0272 29.5417 25.2382V17.6191C29.5417 16.8301 30.189 16.1905 30.9875 16.1905C31.7859 16.1905 32.4332 16.8301 32.4332 17.6191V25.2382C32.4332 26.0272 31.7859 26.6668 30.9875 26.6668ZM8.33727 25.2382C8.33727 26.0272 8.98456 26.6668 9.78303 26.6668C10.5815 26.6668 11.2288 26.0272 11.2288 25.2382L11.2288 17.6191C11.2288 16.8301 10.5815 16.1905 9.78303 16.1905C8.98456 16.1905 8.33727 16.8301 8.33727 17.6191L8.33727 25.2382Z" fill="#0D1217"/>
</svg>
