<svg width="48" height="48" viewBox="0 0 48 48" fill="none" xmlns="http://www.w3.org/2000/svg">
<path d="M16.7036 40.4837C18.3858 42.622 21.0284 44 24 44C26.9716 44 29.6143 42.622 31.2964 40.4837C26.4529 41.14 21.5471 41.14 16.7036 40.4837Z" fill="#0D1217"/>
<path d="M37.4983 18V19.4082C37.4983 21.0982 37.9806 22.7503 38.8844 24.1565L41.0993 27.6023C43.1224 30.7497 41.5779 35.0278 38.0593 36.0231C28.8545 38.6268 19.1455 38.6268 9.94072 36.0231C6.42209 35.0278 4.87765 30.7497 6.90072 27.6023L9.1156 24.1565C10.0194 22.7503 10.5017 21.0982 10.5017 19.4082V18C10.5017 10.268 16.5451 4 24 4C31.4549 4 37.4983 10.268 37.4983 18Z" fill="#0D1217"/>
</svg>
