<svg width="48" height="48" viewBox="0 0 48 48" fill="none" xmlns="http://www.w3.org/2000/svg">
<path fill-rule="evenodd" clip-rule="evenodd" d="M24.0001 2.5C15.4397 2.5 8.50008 9.43959 8.50008 18V19.4082C8.50008 20.802 8.0875 22.1647 7.31434 23.3245L5.01713 26.7703C2.35094 30.7696 4.38635 36.2056 9.02353 37.4703C10.5348 37.8824 12.0587 38.2311 13.5916 38.5162L13.5954 38.5264C15.1333 42.6302 19.244 45.5 24 45.5C28.7559 45.5 32.8666 42.6302 34.4045 38.5264L34.4083 38.5162C35.9412 38.2311 37.4653 37.8825 38.9766 37.4703C43.6138 36.2056 45.6492 30.7696 42.983 26.7703L40.6858 23.3245C39.9127 22.1647 39.5001 20.802 39.5001 19.4082V18C39.5001 9.43959 32.5605 2.5 24.0001 2.5ZM30.7529 39.0739C26.267 39.6099 21.7329 39.6099 17.247 39.0739C18.6689 41.117 21.142 42.5 24 42.5C26.8579 42.5 29.331 41.117 30.7529 39.0739ZM11.5001 18C11.5001 11.0964 17.0965 5.5 24.0001 5.5C30.9036 5.5 36.5001 11.0964 36.5001 18V19.4082C36.5001 21.3943 37.088 23.336 38.1897 24.9886L40.4869 28.4344C42.0172 30.7299 40.8489 33.8501 38.1873 34.576C28.8988 37.1092 19.1014 37.1092 9.81289 34.576C7.15122 33.8501 5.98293 30.7299 7.51328 28.4344L9.81049 24.9886C10.9122 23.336 11.5001 21.3943 11.5001 19.4082V18Z" fill="#0D1217"/>
</svg>
