<svg width="48" height="48" viewBox="0 0 48 48" fill="none" xmlns="http://www.w3.org/2000/svg">
<path d="M35.1554 8.86304L31.1554 6.76393C27.6442 4.92131 25.8885 4 24 4C22.1115 4 20.3558 4.92131 16.8446 6.76393L16.2011 7.1016L34.0472 17.2993L42.0806 13.2826C40.7882 11.819 38.7029 10.7247 35.1554 8.86304Z" fill="#0D1217"/>
<path d="M43.4967 15.9287L35.5 19.9271V26C35.5 26.8284 34.8284 27.5 34 27.5C33.1716 27.5 32.5 26.8284 32.5 26V21.4271L25.5 24.9271V43.808C26.9358 43.4504 28.5695 42.5931 31.1554 41.2361L35.1554 39.137C39.4587 36.8787 41.6104 35.7495 42.8052 33.7205C44 31.6915 44 29.1667 44 24.117V23.883C44 20.0977 44 17.7311 43.4967 15.9287Z" fill="#0D1217"/>
<path d="M22.5 43.808V24.9271L4.50328 15.9287C4 17.7311 4 20.0977 4 23.883V24.117C4 29.1667 4 31.6915 5.19479 33.7205C6.38958 35.7495 8.54124 36.8787 12.8446 39.1369L16.8446 41.2361C19.4305 42.5931 21.0642 43.4504 22.5 43.808Z" fill="#0D1217"/>
<path d="M5.91938 13.2826L24 22.3229L30.8223 18.9118L13.0491 8.7557L12.8446 8.86304C9.29709 10.7247 7.2118 11.819 5.91938 13.2826Z" fill="#0D1217"/>
</svg>
