<svg width="48" height="48" viewBox="0 0 48 48" fill="none" xmlns="http://www.w3.org/2000/svg">
<path fill-rule="evenodd" clip-rule="evenodd" d="M14 3.5C14.8284 3.5 15.5 4.17157 15.5 5V6.52544C16.8241 6.49997 18.2828 6.49999 19.8872 6.5H28.1128C29.7172 6.49999 31.1759 6.49997 32.5 6.52544V5C32.5 4.17157 33.1716 3.5 34 3.5C34.8284 3.5 35.5 4.17157 35.5 5V6.65417C36.0199 6.69381 36.5122 6.74364 36.978 6.80627C39.3229 7.12153 41.2208 7.78576 42.7175 9.28249C44.2142 10.7792 44.8785 12.6771 45.1937 15.022C45.2945 15.7713 45.3621 16.5892 45.4075 17.4801C45.4673 17.6421 45.5 17.8172 45.5 18C45.5 18.1386 45.4812 18.2729 45.446 18.4003C45.5 20.0043 45.5 21.8255 45.5 23.8872V28.1128C45.5 31.7883 45.5001 34.6996 45.1937 36.978C44.8785 39.3229 44.2142 41.2208 42.7175 42.7175C41.2208 44.2142 39.3229 44.8785 36.978 45.1937C34.6996 45.5001 31.7883 45.5 28.1128 45.5H19.8872C16.2117 45.5 13.3004 45.5001 11.022 45.1937C8.67711 44.8785 6.77921 44.2142 5.28249 42.7175C3.78576 41.2208 3.12153 39.3229 2.80627 36.978C2.49994 34.6996 2.49997 31.7884 2.5 28.1128V23.8872C2.49998 21.8255 2.49997 20.0043 2.55402 18.4003C2.51881 18.2729 2.5 18.1386 2.5 18C2.5 17.8172 2.53269 17.6421 2.59254 17.4801C2.63791 16.5892 2.70552 15.7713 2.80627 15.022C3.12153 12.6771 3.78576 10.7792 5.28249 9.28249C6.77921 7.78576 8.67711 7.12153 11.022 6.80627C11.4878 6.74364 11.9801 6.69381 12.5 6.65417V5C12.5 4.17157 13.1716 3.5 14 3.5ZM5.52617 19.5C5.50064 20.8055 5.5 22.292 5.5 24V28C5.5 31.8136 5.50319 34.523 5.77952 36.5783C6.05005 38.5905 6.55739 39.7498 7.40381 40.5962C8.25023 41.4426 9.40952 41.95 11.4217 42.2205C13.477 42.4968 16.1864 42.5 20 42.5H28C31.8136 42.5 34.523 42.4968 36.5783 42.2205C38.5905 41.95 39.7498 41.4426 40.5962 40.5962C41.4426 39.7498 41.95 38.5905 42.2205 36.5783C42.4968 34.523 42.5 31.8136 42.5 28V24C42.5 22.292 42.4994 20.8055 42.4738 19.5H5.52617ZM42.3366 16.5H5.66337C5.6954 16.1212 5.7337 15.7625 5.77952 15.4217C6.05005 13.4095 6.55739 12.2502 7.40381 11.4038C8.25023 10.5574 9.40952 10.05 11.4217 9.77952C13.477 9.50319 16.1864 9.5 20 9.5H28C31.8136 9.5 34.523 9.50319 36.5783 9.77952C38.5905 10.05 39.7498 10.5574 40.5962 11.4038C41.4426 12.2502 41.95 13.4095 42.2205 15.4217C42.2663 15.7625 42.3046 16.1212 42.3366 16.5Z" fill="#0D1217"/>
</svg>
