<svg width="48" height="48" viewBox="0 0 48 48" fill="none" xmlns="http://www.w3.org/2000/svg">
<path d="M44 28V24C44 22.3219 44 20.8305 43.9742 19.5H4.0258C4 20.8305 4 22.3219 4 24V28C4 35.5425 4 39.3137 6.34315 41.6569C8.68629 44 12.4575 44 20 44H28C35.5425 44 39.3137 44 41.6569 41.6569C44 39.3137 44 35.5425 44 28Z" fill="#0D1217"/>
<path d="M15.5 5C15.5 4.17157 14.8284 3.5 14 3.5C13.1716 3.5 12.5 4.17157 12.5 5V8.15851C9.62134 8.38903 7.73154 8.95475 6.34315 10.3431C4.95475 11.7315 4.38903 13.6213 4.15851 16.5H43.8415C43.611 13.6213 43.0452 11.7315 41.6569 10.3431C40.2685 8.95475 38.3787 8.38903 35.5 8.15851V5C35.5 4.17157 34.8284 3.5 34 3.5C33.1716 3.5 32.5 4.17157 32.5 5V8.0258C31.1695 8 29.6781 8 28 8H20C18.3219 8 16.8305 8 15.5 8.0258V5Z" fill="#0D1217"/>
</svg>
