<svg width="48" height="48" viewBox="0 0 48 48" fill="none" xmlns="http://www.w3.org/2000/svg">
<path fill-rule="evenodd" clip-rule="evenodd" d="M17.9714 6.95324C15.9442 4.08608 11.8878 3.60235 9.43539 6.18423L6.29619 9.48922C5.22449 10.6175 4.40993 12.1849 4.50801 14.0122C4.70652 17.7107 6.27688 25.2805 14.5432 33.9834C23.402 43.31 31.8522 43.779 35.5 43.4189C36.9941 43.2714 38.2032 42.4746 39.0899 41.541L41.931 38.5499C44.541 35.8021 43.7808 31.2037 40.515 29.3239L36.694 27.1246C34.4971 25.8601 31.7724 26.2225 30.0248 28.0624L29.2076 28.9228C29.1496 28.9432 28.968 28.9922 28.6206 28.9358C27.8156 28.805 26.0782 28.0943 23.2139 25.0787C20.3586 22.0726 19.6553 20.2213 19.5218 19.3102C19.4574 18.8707 19.5228 18.6391 19.5487 18.5664L19.553 18.5548L20.0427 18.0392C21.9779 16.0019 22.1148 12.8135 20.4934 10.5202L17.9714 6.95324ZM11.6106 8.25029C12.6562 7.1494 14.4971 7.23588 15.5218 8.68518L18.0438 12.2521C18.8881 13.4463 18.7586 15.035 17.8675 15.9732L17.2939 16.5771L18.3572 17.5871C17.2939 16.5771 17.2925 16.5786 17.2911 16.58L17.2883 16.583L17.2825 16.5892L17.2703 16.6025L17.2436 16.6325C17.2249 16.654 17.2044 16.6786 17.1824 16.7064C17.1384 16.7619 17.0887 16.8302 17.0365 16.9117C16.9319 17.0753 16.8184 17.2906 16.7223 17.5606C16.5269 18.1098 16.4204 18.837 16.5535 19.7451C16.8149 21.5293 17.984 23.9288 21.0387 27.1448C24.0844 30.3514 26.3847 31.612 28.1397 31.897C29.0403 32.0432 29.7692 31.9264 30.3212 31.7087C30.5911 31.6023 30.8045 31.4773 30.9647 31.3637C31.0446 31.307 31.1112 31.2532 31.1649 31.2061C31.1918 31.1825 31.2155 31.1606 31.2362 31.1406L31.2649 31.1124L31.2775 31.0994L31.2835 31.0933L31.2863 31.0903C31.2877 31.0889 31.2891 31.0874 30.2347 30.0859L31.2891 31.0874L32.2 30.1284C32.9709 29.3168 34.1721 29.1344 35.1974 29.7246L39.0184 31.924C40.6602 32.8689 40.9814 35.1935 39.7558 36.4838L36.9147 39.475C36.3567 40.0625 35.7728 40.3774 35.2053 40.4334C32.3353 40.7167 24.8467 40.4749 16.7184 31.9173C8.96614 23.7557 7.66578 16.8711 7.5037 13.8515C7.46083 13.0529 7.80858 12.2531 8.47136 11.5553L11.6106 8.25029Z" fill="#0D1217"/>
<path d="M33.0607 6.93932C32.4749 6.35353 31.5252 6.35353 30.9394 6.93932C30.3536 7.52511 30.3536 8.47485 30.9394 9.06064L33.8787 12L30.9394 14.9393C30.3536 15.5251 30.3536 16.4749 30.9394 17.0606C31.5252 17.6464 32.475 17.6464 33.0607 17.0606L36.0001 14.1213L38.9394 17.0606C39.5251 17.6464 40.4749 17.6464 41.0607 17.0606C41.6465 16.4748 41.6465 15.5251 41.0607 14.9393L38.1214 12L41.0607 9.06067C41.6465 8.47489 41.6465 7.52514 41.0607 6.93935C40.4749 6.35357 39.5252 6.35357 38.9394 6.93935L36.0001 9.87868L33.0607 6.93932Z" fill="#0D1217"/>
</svg>
