<svg width="48" height="48" viewBox="0 0 48 48" fill="none" xmlns="http://www.w3.org/2000/svg">
<path fill-rule="evenodd" clip-rule="evenodd" d="M19.5556 42H28.4444C34.6865 42 37.8075 42 40.0495 40.5292C41.0201 39.8925 41.8534 39.0743 42.502 38.1213C44 35.9201 44 32.8558 44 26.7273C44 20.5987 44 17.5344 42.502 15.3332C41.8534 14.3803 41.0201 13.5621 40.0495 12.9254C38.6089 11.9803 36.8053 11.6425 34.044 11.5217C32.7263 11.5217 31.5918 10.5414 31.3333 9.27273C30.9457 7.36978 29.2439 6 27.2673 6H20.7327C18.7561 6 17.0543 7.36978 16.6667 9.27273C16.4082 10.5414 15.2737 11.5217 13.956 11.5217C11.1947 11.6425 9.39111 11.9803 7.95049 12.9254C6.97991 13.5621 6.14657 14.3803 5.49805 15.3332C4 17.5344 4 20.5987 4 26.7273C4 32.8558 4 35.9201 5.49805 38.1213C6.14657 39.0743 6.97991 39.8925 7.95049 40.5292C10.1925 42 13.3135 42 19.5556 42ZM24 18.5455C19.3976 18.5455 15.6667 22.2086 15.6667 26.7273C15.6667 31.246 19.3976 34.9091 24 34.9091C28.6024 34.9091 32.3333 31.246 32.3333 26.7273C32.3333 22.2086 28.6024 18.5455 24 18.5455ZM24 21.8182C21.2386 21.8182 19 24.0161 19 26.7273C19 29.4385 21.2386 31.6364 24 31.6364C26.7614 31.6364 29 29.4385 29 26.7273C29 24.0161 26.7614 21.8182 24 21.8182ZM33.4444 20.1818C33.4444 19.2781 34.1906 18.5455 35.1111 18.5455H37.3333C38.2538 18.5455 39 19.2781 39 20.1818C39 21.0856 38.2538 21.8182 37.3333 21.8182H35.1111C34.1906 21.8182 33.4444 21.0856 33.4444 20.1818Z" fill="#0D1217"/>
</svg>
