<svg width="48" height="48" viewBox="0 0 48 48" fill="none" xmlns="http://www.w3.org/2000/svg">
<path d="M28 8H20C12.4575 8 8.68629 8 6.34315 10.3431C4.65606 12.0302 4.18369 14.4576 4.05143 18.5H43.9486C43.8163 14.4576 43.3439 12.0302 41.6569 10.3431C39.3137 8 35.5425 8 28 8Z" fill="#0D1217"/>
<path d="M20 40H28C35.5425 40 39.3137 40 41.6569 37.6569C44 35.3137 44 31.5425 44 24C44 23.1161 44 22.2841 43.9962 21.5H4.00377C4 22.2841 4 23.1161 4 24C4 31.5425 4 35.3137 6.34315 37.6569C8.68629 40 12.4575 40 20 40Z" fill="#0D1217"/>
<path fill-rule="evenodd" clip-rule="evenodd" d="M10.5 32C10.5 31.1716 11.1716 30.5 12 30.5H20C20.8284 30.5 21.5 31.1716 21.5 32C21.5 32.8284 20.8284 33.5 20 33.5H12C11.1716 33.5 10.5 32.8284 10.5 32Z" fill="white"/>
<path fill-rule="evenodd" clip-rule="evenodd" d="M23.5 32C23.5 31.1716 24.1716 30.5 25 30.5H28C28.8284 30.5 29.5 31.1716 29.5 32C29.5 32.8284 28.8284 33.5 28 33.5H25C24.1716 33.5 23.5 32.8284 23.5 32Z" fill="white"/>
</svg>
