<svg width="48" height="48" viewBox="0 0 48 48" fill="none" xmlns="http://www.w3.org/2000/svg">
<path opacity="0.5" d="M20 40H27.2532C25.8421 38.2122 25 35.9544 25 33.5C25 27.701 29.701 23 35.5 23C38.9894 23 42.0813 24.7021 43.9906 27.3214C44 26.3033 44 25.1993 44 24C44 23.1161 44 20.7841 43.9962 20H4.00377C4 20.7841 4 23.1161 4 24C4 31.5425 4 35.3137 6.34315 37.6569C8.68629 40 12.4575 40 20 40Z" fill="#0D1217"/>
<path d="M10.5 32C10.5 31.1716 11.1716 30.5 12 30.5H20C20.8284 30.5 21.5 31.1716 21.5 32C21.5 32.8284 20.8284 33.5 20 33.5H12C11.1716 33.5 10.5 32.8284 10.5 32Z" fill="#0D1217"/>
<path fill-rule="evenodd" clip-rule="evenodd" d="M35.5 29C33.0147 29 31 31.0147 31 33.5C31 35.9853 33.0147 38 35.5 38C37.9853 38 40 35.9853 40 33.5C40 31.0147 37.9853 29 35.5 29ZM28 33.5C28 29.3579 31.3579 26 35.5 26C39.6421 26 43 29.3579 43 33.5C43 35.0286 42.5427 36.4504 41.7574 37.6361L43.5607 39.4393C44.1464 40.0251 44.1464 40.9749 43.5607 41.5607C42.9749 42.1464 42.0251 42.1464 41.4393 41.5607L39.6361 39.7574C38.4504 40.5427 37.0286 41 35.5 41C31.3579 41 28 37.6421 28 33.5Z" fill="#0D1217"/>
<path d="M19.9897 8H28.0103C35.5722 8 39.3532 8 41.7024 10.2316C43.3938 11.8383 43.8674 14.1501 44 18V20H4V18C4.1326 14.1501 4.60619 11.8383 6.29762 10.2316C8.64681 8 12.4278 8 19.9897 8Z" fill="#0D1217"/>
</svg>
