<svg width="48" height="48" viewBox="0 0 48 48" fill="none" xmlns="http://www.w3.org/2000/svg">
<path fill-rule="evenodd" clip-rule="evenodd" d="M26.1733 42.7754L27.2575 40.9437C28.0985 39.5229 28.5189 38.8125 29.1943 38.4197C29.8697 38.0269 30.7201 38.0122 32.4208 37.9829C34.9315 37.9396 36.5062 37.7858 37.8268 37.2388C40.2771 36.2239 42.2239 34.2771 43.2388 31.8268C44 29.9891 44 27.6594 44 23V21C44 14.4531 44 11.1797 42.5264 8.77501C41.7018 7.42946 40.5705 6.29816 39.225 5.4736C36.8203 4 33.5469 4 27 4H21C14.4531 4 11.1797 4 8.77501 5.4736C7.42946 6.29816 6.29816 7.42946 5.4736 8.77501C4 11.1797 4 14.4531 4 21V23C4 27.6594 4 29.9891 4.7612 31.8268C5.77614 34.2771 7.72288 36.2239 10.1732 37.2388C11.4938 37.7858 13.0684 37.9396 15.5792 37.9829C17.2798 38.0122 18.1302 38.0269 18.8056 38.4197C19.481 38.8125 19.9015 39.5229 20.7424 40.9437L21.8266 42.7754C22.7929 44.408 25.207 44.408 26.1733 42.7754ZM32 24C33.1046 24 34 23.1046 34 22C34 20.8954 33.1046 20 32 20C30.8954 20 30 20.8954 30 22C30 23.1046 30.8954 24 32 24ZM26 22C26 23.1046 25.1046 24 24 24C22.8954 24 22 23.1046 22 22C22 20.8954 22.8954 20 24 20C25.1046 20 26 20.8954 26 22ZM16 24C17.1046 24 18 23.1046 18 22C18 20.8954 17.1046 20 16 20C14.8954 20 14 20.8954 14 22C14 23.1046 14.8954 24 16 24Z" fill="#0D1217"/>
</svg>
