<svg width="48" height="48" viewBox="0 0 48 48" fill="none" xmlns="http://www.w3.org/2000/svg">
<path fill-rule="evenodd" clip-rule="evenodd" d="M20.9213 2.5H27.0787C30.2855 2.49999 32.7994 2.49998 34.8078 2.69093C36.8549 2.88557 38.5311 3.28914 40.0087 4.19464C41.5561 5.14288 42.8571 6.44388 43.8054 7.99127C44.7109 9.46891 45.1144 11.1451 45.3091 13.1922C45.5 15.2006 45.5 17.7145 45.5 20.9213V23.0557C45.5 25.3383 45.5 27.1279 45.4014 28.5737C45.301 30.0446 45.0935 31.2688 44.6246 32.4009C43.4574 35.2187 41.2187 37.4574 38.4009 38.6246C36.7909 39.2915 34.9572 39.4394 32.4466 39.4827C31.5684 39.4978 31.0122 39.5089 30.5882 39.5559C30.1919 39.5997 30.0384 39.664 29.9485 39.7163C29.8537 39.7715 29.7245 39.872 29.5002 40.1797C29.2575 40.5127 28.9832 40.973 28.5483 41.7077L27.4641 43.5394C25.917 46.1533 22.0829 46.1533 20.5358 43.5394L19.4516 41.7077C19.0167 40.973 18.7424 40.5127 18.4997 40.1797C18.2754 39.872 18.1463 39.7715 18.0514 39.7163C17.9616 39.664 17.808 39.5997 17.4118 39.5559C16.9877 39.5089 16.4315 39.4978 15.5533 39.4827C13.0428 39.4394 11.2091 39.2915 9.59914 38.6246C6.78132 37.4574 4.54257 35.2187 3.37539 32.4009C2.90646 31.2688 2.69899 30.0446 2.59863 28.5737C2.49999 27.1279 2.49999 25.3383 2.5 23.0557L2.5 20.9213C2.49999 17.7145 2.49998 15.2006 2.69093 13.1922C2.88557 11.1451 3.28914 9.46891 4.19464 7.99127C5.14288 6.44388 6.44388 5.14288 7.99127 4.19464C9.46891 3.28914 11.1451 2.88557 13.1922 2.69093C15.2006 2.49998 17.7145 2.49999 20.9213 2.5ZM13.4762 5.67747C11.6487 5.85123 10.4858 6.18446 9.55876 6.75256C8.41504 7.45343 7.45343 8.41504 6.75256 9.55876C6.18446 10.4858 5.85123 11.6487 5.67747 13.4762C5.50158 15.326 5.5 17.6975 5.5 21V23C5.5 25.3502 5.50081 27.0378 5.59167 28.3694C5.68161 29.6876 5.85475 30.5472 6.14702 31.2528C7.00972 33.3355 8.66445 34.9903 10.7472 35.853C11.7785 36.2801 13.0941 36.4399 15.605 36.4831L15.6686 36.4842C16.4646 36.4979 17.1622 36.5099 17.7419 36.5741C18.3649 36.6431 18.9742 36.7825 19.5597 37.123C20.1403 37.4607 20.5591 37.9118 20.9241 38.4127C21.2614 38.8755 21.6081 39.4613 22.0007 40.1247L23.1174 42.0113C23.503 42.6627 24.497 42.6627 24.8825 42.0113L25.9992 40.1247C26.3918 39.4613 26.7385 38.8755 27.0758 38.4127C27.4409 37.9118 27.8596 37.4607 28.4402 37.123C29.0257 36.7825 29.635 36.6431 30.258 36.5741C30.8377 36.5099 31.5353 36.4979 32.3313 36.4842L32.3949 36.4831C34.9058 36.4399 36.2215 36.2801 37.2528 35.853C39.3355 34.9903 40.9903 33.3355 41.853 31.2528C42.1453 30.5472 42.3184 29.6876 42.4083 28.3694C42.4992 27.0378 42.5 25.3502 42.5 23V21C42.5 17.6975 42.4984 15.326 42.3225 13.4762C42.1488 11.6487 41.8155 10.4858 41.2474 9.55876C40.5466 8.41504 39.585 7.45343 38.4412 6.75256C37.5142 6.18446 36.3513 5.85123 34.5238 5.67747C32.674 5.50158 30.3025 5.5 27 5.5H21C17.6975 5.5 15.326 5.50158 13.4762 5.67747Z" fill="#0D1217"/>
<path d="M18 22C18 23.1046 17.1046 24 16 24C14.8954 24 14 23.1046 14 22C14 20.8954 14.8954 20 16 20C17.1046 20 18 20.8954 18 22Z" fill="#0D1217"/>
<path d="M26 22C26 23.1046 25.1046 24 24 24C22.8954 24 22 23.1046 22 22C22 20.8954 22.8954 20 24 20C25.1046 20 26 20.8954 26 22Z" fill="#0D1217"/>
<path d="M34 22C34 23.1046 33.1046 24 32 24C30.8954 24 30 23.1046 30 22C30 20.8954 30.8954 20 32 20C33.1046 20 34 20.8954 34 22Z" fill="#0D1217"/>
</svg>
