<svg width="48" height="48" viewBox="0 0 48 48" fill="none" xmlns="http://www.w3.org/2000/svg">
<path fill-rule="evenodd" clip-rule="evenodd" d="M24 44C14.5719 44 9.85786 44 6.92893 41.0711C4 38.1421 4 33.4281 4 24C4 14.5719 4 9.85786 6.92893 6.92893C9.85786 4 14.5719 4 24 4C33.4281 4 38.1421 4 41.0711 6.92893C44 9.85786 44 14.5719 44 24C44 33.4281 44 38.1421 41.0711 41.0711C38.1421 44 33.4281 44 24 44ZM32.0607 17.9393C32.6464 18.5251 32.6464 19.4749 32.0607 20.0607L22.0607 30.0607C21.4749 30.6464 20.5251 30.6464 19.9393 30.0607L15.9393 26.0607C15.3536 25.4749 15.3536 24.5251 15.9393 23.9393C16.5251 23.3536 17.4749 23.3536 18.0607 23.9393L21 26.8787L29.9393 17.9393C30.5251 17.3536 31.4749 17.3536 32.0607 17.9393Z" fill="#0D1217"/>
</svg>
