<svg width="48" height="48" viewBox="0 0 48 48" fill="none" xmlns="http://www.w3.org/2000/svg">
<path fill-rule="evenodd" clip-rule="evenodd" d="M30.9865 13.8699C31.6106 14.4147 31.6748 15.3623 31.13 15.9864L15.4157 33.9864C15.1309 34.3127 14.7189 34.4999 14.2857 34.4999C13.8526 34.4999 13.4406 34.3127 13.1558 33.9864L6.87005 26.7864C6.32522 26.1623 6.38947 25.2147 7.01353 24.6699C7.6376 24.1251 8.58518 24.1893 9.13 24.8134L14.2857 30.7191L28.87 14.0134C29.4149 13.3893 30.3624 13.3251 30.9865 13.8699Z" fill="#0D1217"/>
<path fill-rule="evenodd" clip-rule="evenodd" d="M41.0349 14.0388C41.6348 14.6101 41.6579 15.5596 41.0866 16.1595L23.9432 34.1595C23.6403 34.4776 23.2131 34.6469 22.7744 34.6227C22.3358 34.5985 21.9298 34.3832 21.6636 34.0337L20.807 32.9087C20.3051 32.2496 20.4326 31.3085 21.0917 30.8066C21.6579 30.3754 22.4323 30.4087 22.9575 30.8446L38.9142 14.0905C39.4855 13.4906 40.435 13.4675 41.0349 14.0388Z" fill="#0D1217"/>
</svg>
