<svg width="48" height="48" viewBox="0 0 48 48" fill="none" xmlns="http://www.w3.org/2000/svg">
<path d="M32.0607 20.0607C32.6464 19.4749 32.6464 18.5251 32.0607 17.9393C31.4749 17.3536 30.5251 17.3536 29.9393 17.9393L21 26.8787L18.0607 23.9393C17.4749 23.3536 16.5251 23.3536 15.9393 23.9393C15.3536 24.5251 15.3536 25.4749 15.9393 26.0607L19.9393 30.0607C20.5251 30.6464 21.4749 30.6464 22.0607 30.0607L32.0607 20.0607Z" fill="#0D1217"/>
<path fill-rule="evenodd" clip-rule="evenodd" d="M24 2.5C12.1259 2.5 2.5 12.1259 2.5 24C2.5 35.8741 12.1259 45.5 24 45.5C35.8741 45.5 45.5 35.8741 45.5 24C45.5 12.1259 35.8741 2.5 24 2.5ZM5.5 24C5.5 13.7827 13.7827 5.5 24 5.5C34.2173 5.5 42.5 13.7827 42.5 24C42.5 34.2173 34.2173 42.5 24 42.5C13.7827 42.5 5.5 34.2173 5.5 24Z" fill="#0D1217"/>
</svg>
