<svg width="48" height="48" viewBox="0 0 48 48" fill="none" xmlns="http://www.w3.org/2000/svg">
<path d="M24 4C27.6904 4 30.6586 4 33.0801 4.17566L26.1972 14.5H16.8028L23.8028 4H24Z" fill="#0D1217"/>
<path d="M6.92893 6.92893C9.43367 4.4242 13.2439 4.06144 20.1913 4.0089L13.1972 14.5H4.20836C4.50286 10.9719 5.2136 8.64426 6.92893 6.92893Z" fill="#0D1217"/>
<path fill-rule="evenodd" clip-rule="evenodd" d="M4 24C4 21.5265 4 19.3775 4.05289 17.5H43.9471C44 19.3775 44 21.5265 44 24C44 33.4281 44 38.1421 41.0711 41.0711C38.1421 44 33.4281 44 24 44C14.5719 44 9.85786 44 6.92893 41.0711C4 38.1421 4 33.4281 4 24ZM26.0279 25.1704C28.676 26.879 30 27.7333 30 29C30 30.2667 28.676 31.121 26.028 32.8296C23.3438 34.5615 22.0016 35.4274 21.0008 34.7916C20 34.1558 20 32.4372 20 29C20 25.5628 20 23.8442 21.0008 23.2084C22.0016 22.5726 23.3437 23.4385 26.0279 25.1704Z" fill="#0D1217"/>
<path d="M43.7916 14.5C43.4971 10.9719 42.7864 8.64426 41.0711 6.92893C39.8764 5.73428 38.3848 5.02691 36.3974 4.60805L29.8028 14.5H43.7916Z" fill="#0D1217"/>
</svg>
