<svg width="48" height="48" viewBox="0 0 48 48" fill="none" xmlns="http://www.w3.org/2000/svg">
<path d="M19 4C17.3431 4 16 5.34315 16 7V9C16 10.6569 17.3431 12 19 12H29C30.6569 12 32 10.6569 32 9V7C32 5.34315 30.6569 4 29 4H19Z" fill="#0D1217"/>
<path fill-rule="evenodd" clip-rule="evenodd" d="M13 8.07323C10.4842 8.21438 8.89597 8.61528 7.75736 9.75388C6 11.5112 6 14.3397 6 19.9965V31.9965C6 37.6534 6 40.4818 7.75736 42.2392C9.51472 43.9965 12.3431 43.9965 18 43.9965H30C35.6569 43.9965 38.4853 43.9965 40.2426 42.2392C42 40.4818 42 37.6534 42 31.9965V19.9965C42 14.3397 42 11.5112 40.2426 9.75388C39.104 8.61528 37.5158 8.21438 35 8.07323V9C35 12.3137 32.3137 15 29 15H19C15.6863 15 13 12.3137 13 9V8.07323ZM14 19.5C13.1716 19.5 12.5 20.1716 12.5 21C12.5 21.8284 13.1716 22.5 14 22.5H15C15.8284 22.5 16.5 21.8284 16.5 21C16.5 20.1716 15.8284 19.5 15 19.5H14ZM21 19.5C20.1716 19.5 19.5 20.1716 19.5 21C19.5 21.8284 20.1716 22.5 21 22.5H34C34.8284 22.5 35.5 21.8284 35.5 21C35.5 20.1716 34.8284 19.5 34 19.5H21ZM14 26.5C13.1716 26.5 12.5 27.1716 12.5 28C12.5 28.8284 13.1716 29.5 14 29.5H15C15.8284 29.5 16.5 28.8284 16.5 28C16.5 27.1716 15.8284 26.5 15 26.5H14ZM21 26.5C20.1716 26.5 19.5 27.1716 19.5 28C19.5 28.8284 20.1716 29.5 21 29.5H34C34.8284 29.5 35.5 28.8284 35.5 28C35.5 27.1716 34.8284 26.5 34 26.5H21ZM14 33.5C13.1716 33.5 12.5 34.1716 12.5 35C12.5 35.8284 13.1716 36.5 14 36.5H15C15.8284 36.5 16.5 35.8284 16.5 35C16.5 34.1716 15.8284 33.5 15 33.5H14ZM21 33.5C20.1716 33.5 19.5 34.1716 19.5 35C19.5 35.8284 20.1716 36.5 21 36.5H34C34.8284 36.5 35.5 35.8284 35.5 35C35.5 34.1716 34.8284 33.5 34 33.5H21Z" fill="#0D1217"/>
</svg>
