<svg width="48" height="48" viewBox="0 0 48 48" fill="none" xmlns="http://www.w3.org/2000/svg">
<path fill-rule="evenodd" clip-rule="evenodd" d="M14.5252 6.52091C14.7644 4.26088 16.6766 2.5 19 2.5H29C31.3234 2.5 33.2356 4.26088 33.4748 6.52091C35.001 6.55198 36.3206 6.63093 37.4473 6.83789C38.9633 7.11636 40.2534 7.64684 41.3033 8.6967C42.5071 9.90053 43.0249 11.4163 43.267 13.2165C43.5001 14.9504 43.5 17.1551 43.5 19.8903V32.1097C43.5 34.8449 43.5001 37.0496 43.267 38.7835C43.0249 40.5837 42.5071 42.0995 41.3033 43.3033C40.0995 44.5071 38.5837 45.0249 36.7835 45.267C35.0496 45.5001 32.8449 45.5 30.1097 45.5H17.8903C15.1551 45.5 12.9504 45.5001 11.2165 45.267C9.41628 45.0249 7.90053 44.5071 6.6967 43.3033C5.49287 42.0995 4.97508 40.5837 4.73305 38.7835C4.49993 37.0496 4.49996 34.8449 4.5 32.1098V19.8903C4.49996 17.1551 4.49993 14.9504 4.73305 13.2165C4.97508 11.4163 5.49287 9.90053 6.6967 8.6967C7.74656 7.64684 9.03671 7.11636 10.5527 6.83789C11.6795 6.63093 12.999 6.55198 14.5252 6.52091ZM14.5299 9.52173C13.0936 9.55241 11.9867 9.62468 11.0947 9.78853C9.96107 9.99676 9.30493 10.3311 8.81802 10.818C8.2645 11.3715 7.9036 12.1487 7.7063 13.6162C7.50319 15.1269 7.5 17.1292 7.5 20V32C7.5 34.8708 7.50319 36.8731 7.7063 38.3838C7.9036 39.8513 8.2645 40.6285 8.81802 41.182C9.37155 41.7355 10.1487 42.0964 11.6162 42.2937C13.1269 42.4968 15.1292 42.5 18 42.5H30C32.8708 42.5 34.8731 42.4968 36.3838 42.2937C37.8513 42.0964 38.6285 41.7355 39.182 41.182C39.7355 40.6285 40.0964 39.8513 40.2937 38.3838C40.4968 36.8731 40.5 34.8708 40.5 32V20C40.5 17.1292 40.4968 15.1269 40.2937 13.6162C40.0964 12.1487 39.7355 11.3715 39.182 10.818C38.6951 10.3311 38.0389 9.99676 36.9053 9.78853C36.0133 9.62468 34.9064 9.55241 33.4701 9.52173C33.2115 11.7612 31.3088 13.5 29 13.5H19C16.6912 13.5 14.7885 11.7612 14.5299 9.52173ZM19 5.5C18.1716 5.5 17.5 6.17157 17.5 7V9C17.5 9.82843 18.1716 10.5 19 10.5H29C29.8284 10.5 30.5 9.82843 30.5 9V7C30.5 6.17157 29.8284 5.5 29 5.5H19ZM12.5 21C12.5 20.1716 13.1716 19.5 14 19.5H15C15.8284 19.5 16.5 20.1716 16.5 21C16.5 21.8284 15.8284 22.5 15 22.5H14C13.1716 22.5 12.5 21.8284 12.5 21ZM19.5 21C19.5 20.1716 20.1716 19.5 21 19.5H34C34.8284 19.5 35.5 20.1716 35.5 21C35.5 21.8284 34.8284 22.5 34 22.5H21C20.1716 22.5 19.5 21.8284 19.5 21ZM12.5 28C12.5 27.1716 13.1716 26.5 14 26.5H15C15.8284 26.5 16.5 27.1716 16.5 28C16.5 28.8284 15.8284 29.5 15 29.5H14C13.1716 29.5 12.5 28.8284 12.5 28ZM19.5 28C19.5 27.1716 20.1716 26.5 21 26.5H34C34.8284 26.5 35.5 27.1716 35.5 28C35.5 28.8284 34.8284 29.5 34 29.5H21C20.1716 29.5 19.5 28.8284 19.5 28ZM12.5 35C12.5 34.1716 13.1716 33.5 14 33.5H15C15.8284 33.5 16.5 34.1716 16.5 35C16.5 35.8284 15.8284 36.5 15 36.5H14C13.1716 36.5 12.5 35.8284 12.5 35ZM19.5 35C19.5 34.1716 20.1716 33.5 21 33.5H34C34.8284 33.5 35.5 34.1716 35.5 35C35.5 35.8284 34.8284 36.5 34 36.5H21C20.1716 36.5 19.5 35.8284 19.5 35Z" fill="#0D1217"/>
</svg>
