<svg width="48" height="48" viewBox="0 0 48 48" fill="none" xmlns="http://www.w3.org/2000/svg">
<path d="M26.0778 36.7728L26.6115 36.5949C31.2075 35.0629 33.5056 34.2969 33.9335 32.4844C34.3613 30.6718 32.6485 28.959 29.2228 25.5333L25.8442 22.1547C25.8412 22.1642 25.8381 22.1741 25.8348 22.1843C25.7956 22.3079 25.7388 22.49 25.6703 22.7188C25.5331 23.1771 25.3501 23.819 25.1674 24.5506C24.7934 26.0483 24.4539 27.7945 24.4539 29.1104C24.4539 30.4263 24.7934 32.1725 25.1674 33.6701C25.3501 34.4018 25.5331 35.0436 25.6703 35.5019C25.7388 35.7307 25.7956 35.9128 25.8348 36.0364C25.8544 36.0982 25.8696 36.1453 25.8797 36.1763L25.8908 36.2103L25.8933 36.2179L26.0778 36.7728Z" fill="#0D1217"/>
<path d="M14.943 40.4826C10.4199 41.9738 8.03677 42.5979 6.71848 41.2796C5.25872 39.8198 6.18053 37.0544 8.02414 31.5236L11.4031 21.3866C12.6672 17.5945 13.4097 15.3668 14.6488 14.4631L14.6384 14.5147C14.624 14.5865 14.6031 14.6915 14.5768 14.8265C14.5243 15.0965 14.4501 15.4869 14.3624 15.9732C14.1873 16.9453 13.9579 18.3037 13.7407 19.8515C13.3104 22.9179 12.9119 26.8359 13.1172 29.9667C13.2414 31.8612 13.6356 34.2113 13.9873 36.0477C14.1649 36.9745 14.3348 37.7867 14.4605 38.3676C14.5233 38.6583 14.5752 38.8915 14.6115 39.0527L14.6538 39.239L14.943 40.4826Z" fill="#0D1217"/>
<path d="M17.7007 14.5179L17.5993 15.0085L17.5983 15.0133L17.5947 15.0312L17.5797 15.1055C17.5664 15.1717 17.5467 15.2708 17.5216 15.3996C17.4714 15.6573 17.3998 16.034 17.3149 16.5053C17.1449 17.4485 16.9222 18.7675 16.7116 20.2683C16.2863 23.299 15.9267 26.9628 16.1108 29.7704C16.2222 31.4702 16.5863 33.6692 16.9338 35.4833C17.1059 36.3817 17.2708 37.1701 17.3927 37.7334C17.4535 38.0149 17.5036 38.2398 17.5382 38.3935L17.578 38.569L17.5882 38.6132L17.8018 39.5315L23.2317 37.7215L23.0268 37.104C23.0146 37.0667 22.9972 37.0128 22.9754 36.9439C22.9317 36.8063 22.87 36.6084 22.7963 36.3623C22.6492 35.8708 22.4532 35.1833 22.2568 34.397C21.8726 32.8586 21.4539 30.814 21.4539 29.1104C21.4539 27.4068 21.8726 25.3622 22.2568 23.8238C22.4532 23.0374 22.6492 22.35 22.7963 21.8585C22.87 21.6124 22.9317 21.4145 22.9754 21.2768C22.9972 21.208 23.0146 21.1541 23.0268 21.1167L23.045 21.0611L23.4705 19.781L22.4648 18.7753C20.3775 16.688 18.9262 15.2367 17.7007 14.5179Z" fill="#0D1217"/>
<path d="M21.8529 4.72042C22.5597 5.15251 22.7824 6.07578 22.3503 6.78259C22.0367 7.2955 22.1153 7.95642 22.5404 8.3815L22.7361 8.57726C23.9135 9.75457 24.3476 11.4841 23.8658 13.0779C23.6261 13.8709 22.789 14.3194 21.996 14.0797C21.203 13.84 20.7545 13.0028 20.9942 12.2098C21.1559 11.6747 21.0101 11.0939 20.6148 10.6986L20.4191 10.5028C19.014 9.09778 18.7543 6.91317 19.7907 5.21784C20.2228 4.51102 21.146 4.28832 21.8529 4.72042Z" fill="#0D1217"/>
<path d="M27.1221 8.79317C27.5242 8.39105 27.7252 8.19 27.9577 8.1163C28.1543 8.05397 28.3654 8.05397 28.5621 8.1163C28.7945 8.19 28.9956 8.39105 29.3977 8.79317C29.7998 9.19528 30.0009 9.39634 30.0746 9.62881C30.1369 9.82545 30.1369 10.0365 30.0746 10.2332C30.0009 10.4657 29.7998 10.6667 29.3977 11.0688C28.9956 11.4709 28.7945 11.672 28.5621 11.7457C28.3654 11.808 28.1543 11.808 27.9577 11.7457C27.7252 11.672 27.5242 11.4709 27.1221 11.0688C26.7199 10.6667 26.5189 10.4657 26.4452 10.2332C26.3829 10.0365 26.3829 9.82545 26.4452 9.62881C26.5189 9.39634 26.7199 9.19528 27.1221 8.79317Z" fill="#0D1217"/>
<path d="M13.8542 7.8818C14.2732 7.46286 14.9524 7.46286 15.3713 7.8818C15.7903 8.30074 15.7903 8.97997 15.3713 9.39891C14.9524 9.81785 14.2732 9.81785 13.8542 9.39891C13.4353 8.97997 13.4353 8.30074 13.8542 7.8818Z" fill="#0D1217"/>
<path d="M39.9494 14.0936C39.6726 14.2003 39.4272 14.4457 38.9364 14.9364C38.4457 15.4272 38.2003 15.6726 38.0936 15.9494C37.9688 16.2734 37.9688 16.6322 38.0936 16.9561C38.2003 17.233 38.4457 17.4784 38.9364 17.9691C39.4272 18.4599 39.6726 18.7053 39.9494 18.812C40.2734 18.9368 40.6322 18.9368 40.9561 18.812C41.233 18.7053 41.4784 18.4599 41.9691 17.9691C42.4599 17.4784 42.7053 17.233 42.812 16.9561C42.9368 16.6322 42.9368 16.2734 42.812 15.9494C42.7053 15.6726 42.4599 15.4272 41.9691 14.9364C41.4784 14.4457 41.233 14.2003 40.9561 14.0936C40.6322 13.9688 40.2734 13.9688 39.9494 14.0936Z" fill="#0D1217"/>
<path d="M38.116 30.6267C38.5349 30.2078 39.2141 30.2078 39.6331 30.6267C40.052 31.0456 40.052 31.7249 39.6331 32.1438C39.2141 32.5627 38.5349 32.5627 38.116 32.1438C37.697 31.7249 37.697 31.0456 38.116 30.6267Z" fill="#0D1217"/>
<path d="M35.3784 9.44348C36.1908 9.60595 36.7176 10.3962 36.5551 11.2085L36.2671 12.6484C35.8708 14.63 34.4431 16.2474 32.5259 16.8864C31.63 17.185 30.9629 17.9408 30.7777 18.8667L30.4897 20.3066C30.3272 21.119 29.537 21.6458 28.7247 21.4833C27.9123 21.3208 27.3855 20.5306 27.548 19.7183L27.8359 18.2784C28.2323 16.2968 29.66 14.6794 31.5772 14.0404C32.473 13.7418 33.1402 12.986 33.3254 12.06L33.6134 10.6202C33.7758 9.80784 34.5661 9.28101 35.3784 9.44348Z" fill="#0D1217"/>
<path d="M42.8164 25.1192C42.0929 24.8029 41.2516 24.9358 40.6609 25.4596C39.0424 26.8948 36.6871 27.1334 34.8137 26.0518L34.388 25.806C33.6705 25.3918 33.4247 24.4744 33.8389 23.757C34.2532 23.0395 35.1705 22.7937 35.888 23.2079L36.3137 23.4537C37.0688 23.8896 38.0181 23.7935 38.6705 23.215C40.1361 21.9153 42.2234 21.5857 44.0182 22.3705L44.6012 22.6254C45.3602 22.9573 45.7065 23.8416 45.3746 24.6007C45.0427 25.3597 44.1584 25.706 43.3993 25.3741L42.8164 25.1192Z" fill="#0D1217"/>
<path d="M35.0003 19.4832C35.4192 19.0642 36.0985 19.0642 36.5174 19.4832C36.9363 19.9021 36.9363 20.5814 36.5174 21.0003C36.0985 21.4192 35.4192 21.4192 35.0003 21.0003C34.5814 20.5814 34.5814 19.9021 35.0003 19.4832Z" fill="#0D1217"/>
</svg>
