<svg width="48" height="48" viewBox="0 0 48 48" fill="none" xmlns="http://www.w3.org/2000/svg">
<path d="M12 22C12 16.3431 12 13.5147 13.7574 11.7574C15.5147 10 18.3431 10 24 10H30C35.6569 10 38.4853 10 40.2426 11.7574C42 13.5147 42 16.3431 42 22V32C42 37.6569 42 40.4853 40.2426 42.2426C38.4853 44 35.6569 44 30 44H24C18.3431 44 15.5147 44 13.7574 42.2426C12 40.4853 12 37.6569 12 32V22Z" stroke="#0D1217" stroke-width="1.5"/>
<path d="M12 38C8.68629 38 6 35.3137 6 32V20C6 12.4575 6 8.68629 8.34315 6.34315C10.6863 4 14.4575 4 22 4H30C33.3137 4 36 6.68629 36 10" stroke="#0D1217" stroke-width="1.5"/>
</svg>
