<svg width="48" height="48" viewBox="0 0 48 48" fill="none" xmlns="http://www.w3.org/2000/svg">
<path fill-rule="evenodd" clip-rule="evenodd" d="M30 2.5H21.8872C18.2117 2.49997 15.3004 2.49994 13.022 2.80627C10.6771 3.12153 8.77921 3.78576 7.28249 5.28249C5.78576 6.77921 5.12153 8.67711 4.80627 11.022C4.49994 13.3004 4.49997 16.2116 4.5 19.8871V32C4.5 35.7445 7.2441 38.8481 10.831 39.4094C11.107 40.9374 11.6351 42.2417 12.6967 43.3033C13.9005 44.5071 15.4163 45.0249 17.2165 45.267C18.9504 45.5001 21.1551 45.5 23.8903 45.5H30.1097C32.8449 45.5 35.0496 45.5001 36.7835 45.267C38.5837 45.0249 40.0995 44.5071 41.3033 43.3033C42.5071 42.0995 43.0249 40.5837 43.267 38.7835C43.5001 37.0496 43.5 34.8449 43.5 32.1097V21.8903C43.5 19.1551 43.5001 16.9504 43.267 15.2165C43.0249 13.4163 42.5071 11.9005 41.3033 10.6967C40.2417 9.63506 38.9374 9.10697 37.4094 8.83103C36.8481 5.2441 33.7445 2.5 30 2.5ZM34.2587 8.54234C33.653 6.77247 31.9751 5.5 30 5.5H22C18.1864 5.5 15.477 5.50319 13.4217 5.77952C11.4095 6.05005 10.2502 6.55739 9.40381 7.40381C8.55739 8.25023 8.05005 9.40952 7.77952 11.4217C7.50319 13.477 7.5 16.1864 7.5 20V32C7.5 33.9751 8.77247 35.653 10.5423 36.2587C10.5 35.0387 10.5 33.6594 10.5 32.1098V21.8903C10.5 19.1551 10.4999 16.9504 10.733 15.2165C10.9751 13.4163 11.4929 11.9005 12.6967 10.6967C13.9005 9.49287 15.4163 8.97508 17.2165 8.73305C18.9504 8.49993 21.1551 8.49996 23.8903 8.5H30.1098C31.6594 8.49998 33.0387 8.49996 34.2587 8.54234ZM14.818 12.818C15.3715 12.2645 16.1487 11.9036 17.6162 11.7063C19.1269 11.5032 21.1292 11.5 24 11.5H30C32.8708 11.5 34.8731 11.5032 36.3838 11.7063C37.8513 11.9036 38.6285 12.2645 39.182 12.818C39.7355 13.3715 40.0964 14.1487 40.2937 15.6162C40.4968 17.1269 40.5 19.1292 40.5 22V32C40.5 34.8708 40.4968 36.8731 40.2937 38.3838C40.0964 39.8513 39.7355 40.6285 39.182 41.182C38.6285 41.7355 37.8513 42.0964 36.3838 42.2937C34.8731 42.4968 32.8708 42.5 30 42.5H24C21.1292 42.5 19.1269 42.4968 17.6162 42.2937C16.1487 42.0964 15.3715 41.7355 14.818 41.182C14.2645 40.6285 13.9036 39.8513 13.7063 38.3838C13.5032 36.8731 13.5 34.8708 13.5 32V22C13.5 19.1292 13.5032 17.1269 13.7063 15.6162C13.9036 14.1487 14.2645 13.3715 14.818 12.818Z" fill="#0D1217"/>
</svg>
