<svg width="48" height="48" viewBox="0 0 48 48" fill="none" xmlns="http://www.w3.org/2000/svg">
<path d="M24 12.5C24.8284 12.5 25.5 13.1716 25.5 14V26C25.5 26.8284 24.8284 27.5 24 27.5C23.1716 27.5 22.5 26.8284 22.5 26V14C22.5 13.1716 23.1716 12.5 24 12.5Z" fill="#0D1217"/>
<path d="M24 34C25.1046 34 26 33.1046 26 32C26 30.8954 25.1046 30 24 30C22.8954 30 22 30.8954 22 32C22 33.1046 22.8954 34 24 34Z" fill="#0D1217"/>
<path fill-rule="evenodd" clip-rule="evenodd" d="M2.5 24C2.5 12.1259 12.1259 2.5 24 2.5C35.8741 2.5 45.5 12.1259 45.5 24C45.5 35.8741 35.8741 45.5 24 45.5C12.1259 45.5 2.5 35.8741 2.5 24ZM24 5.5C13.7827 5.5 5.5 13.7827 5.5 24C5.5 34.2173 13.7827 42.5 24 42.5C34.2173 42.5 42.5 34.2173 42.5 24C42.5 13.7827 34.2173 5.5 24 5.5Z" fill="#0D1217"/>
</svg>
