<svg width="48" height="48" viewBox="0 0 48 48" fill="none" xmlns="http://www.w3.org/2000/svg">
<path d="M33.0378 33.0026C33.3878 32.7296 33.7052 32.4122 34.3401 31.7773L42.2549 23.8625C42.4463 23.6711 42.3587 23.3416 42.103 23.2529C41.1688 22.9287 39.9535 22.3202 38.8166 21.1834C37.6798 20.0465 37.0713 18.8312 36.7471 17.897C36.6584 17.6413 36.3289 17.5537 36.1375 17.7451L28.2227 25.6599C27.5878 26.2948 27.2704 26.6122 26.9974 26.9622C26.6753 27.3751 26.3992 27.8218 26.174 28.2945C25.983 28.6952 25.841 29.1211 25.5571 29.9729L25.1902 31.0735L24.6069 32.8236L24.0599 34.4646C23.9202 34.8837 24.0293 35.3459 24.3417 35.6583C24.6541 35.9707 25.1163 36.0798 25.5354 35.9401L27.1764 35.3931L28.9265 34.8098L30.0271 34.4429L30.0272 34.4429C30.8789 34.1589 31.3048 34.017 31.7055 33.826C32.1782 33.6007 32.6249 33.3246 33.0378 33.0026Z" fill="#0D1217"/>
<path d="M44.733 21.3844C46.4223 19.6951 46.4223 16.9562 44.733 15.267C43.0438 13.5777 40.3049 13.5777 38.6156 15.267L38.3612 15.5214C38.3304 15.5522 38.315 15.5676 38.293 15.5927C38.1208 15.7896 38.0229 16.1018 38.0519 16.3618C38.0555 16.3949 38.0589 16.4138 38.0657 16.4517L38.0657 16.4517C38.1043 16.6667 38.1759 16.9811 38.306 17.3561C38.5662 18.1063 39.0577 19.091 39.9834 20.0166C40.909 20.9423 41.8937 21.4338 42.6439 21.694C43.0189 21.8241 43.3333 21.8957 43.5483 21.9343C43.5861 21.9411 43.6051 21.9445 43.6382 21.9481C43.8982 21.9771 44.2104 21.8792 44.4073 21.707C44.4324 21.685 44.4478 21.6696 44.4786 21.6388L44.733 21.3844Z" fill="#0D1217"/>
<path fill-rule="evenodd" clip-rule="evenodd" d="M8.34315 6.34315C6 8.68629 6 12.4575 6 20V28C6 35.5425 6 39.3137 8.34315 41.6569C10.6863 44 14.4575 44 22 44H26C33.5425 44 37.3137 44 39.6569 41.6569C41.9624 39.3513 41.9994 35.6631 42 28.3601L36.3634 33.9968C35.8239 34.5367 35.382 34.9789 34.8829 35.3681C34.2982 35.8242 33.6656 36.2152 32.9962 36.5342C32.4249 36.8065 31.8318 37.004 31.1076 37.2451L26.4842 38.7862C24.987 39.2852 23.3364 38.8956 22.2205 37.7796C21.1045 36.6637 20.7149 35.0131 21.2139 33.5159L21.7609 31.8749L22.7111 29.0242L22.755 28.8926C22.9961 28.1684 23.1936 27.5752 23.4659 27.0039C23.7849 26.3345 24.1759 25.7018 24.6319 25.1172C25.0212 24.6181 25.4634 24.1762 26.0034 23.6366L34.0163 15.6238L36.2399 13.4001L36.4944 13.1456C37.9252 11.7148 39.8006 10.9996 41.6759 11C41.3733 8.9389 40.7883 7.47455 39.6569 6.34315C37.3137 4 33.5425 4 26 4H22C14.4575 4 10.6863 4 8.34315 6.34315ZM14.5 18C14.5 17.1716 15.1716 16.5 16 16.5H29C29.8284 16.5 30.5 17.1716 30.5 18C30.5 18.8284 29.8284 19.5 29 19.5H16C15.1716 19.5 14.5 18.8284 14.5 18ZM14.5 26C14.5 25.1716 15.1716 24.5 16 24.5H21C21.8284 24.5 22.5 25.1716 22.5 26C22.5 26.8284 21.8284 27.5 21 27.5H16C15.1716 27.5 14.5 26.8284 14.5 26ZM14.5 34C14.5 33.1716 15.1716 32.5 16 32.5H19C19.8284 32.5 20.5 33.1716 20.5 34C20.5 34.8284 19.8284 35.5 19 35.5H16C15.1716 35.5 14.5 34.8284 14.5 34Z" fill="#0D1217"/>
</svg>
