<svg width="48" height="48" viewBox="0 0 48 48" fill="none" xmlns="http://www.w3.org/2000/svg">
<path fill-rule="evenodd" clip-rule="evenodd" d="M24 16.5C19.8579 16.5 16.5 19.8579 16.5 24C16.5 28.1421 19.8579 31.5 24 31.5C28.1421 31.5 31.5 28.1421 31.5 24C31.5 19.8579 28.1421 16.5 24 16.5ZM19.5 24C19.5 21.5147 21.5147 19.5 24 19.5C26.4853 19.5 28.5 21.5147 28.5 24C28.5 26.4853 26.4853 28.5 24 28.5C21.5147 28.5 19.5 26.4853 19.5 24Z" fill="#0D1217"/>
<path fill-rule="evenodd" clip-rule="evenodd" d="M24 6.5C14.9717 6.5 8.89058 11.9084 5.36113 16.4937L5.29748 16.5764C4.49928 17.6131 3.76412 18.5678 3.26537 19.6968C2.73129 20.9057 2.5 22.2234 2.5 24C2.5 25.7766 2.73129 27.0943 3.26537 28.3032C3.76412 29.4322 4.49928 30.3869 5.29749 31.4236L5.36114 31.5063C8.89058 36.0916 14.9717 41.5 24 41.5C33.0283 41.5 39.1094 36.0916 42.6389 31.5063L42.7025 31.4237C43.5007 30.387 44.2359 29.4322 44.7346 28.3032C45.2687 27.0943 45.5 25.7766 45.5 24C45.5 22.2234 45.2687 20.9057 44.7346 19.6968C44.2359 18.5678 43.5007 17.613 42.7025 16.5764L42.6389 16.4937C39.1094 11.9084 33.0283 6.5 24 6.5ZM7.73844 18.3236C10.9973 14.0898 16.3007 9.5 24 9.5C31.6993 9.5 37.0027 14.0898 40.2616 18.3236C41.1387 19.4632 41.6525 20.1441 41.9905 20.9091C42.3063 21.624 42.5 22.4979 42.5 24C42.5 25.5021 42.3063 26.376 41.9905 27.0909C41.6525 27.8559 41.1387 28.5368 40.2616 29.6764C37.0027 33.9102 31.6993 38.5 24 38.5C16.3007 38.5 10.9973 33.9102 7.73844 29.6764C6.86127 28.5368 6.34747 27.8559 6.00952 27.0909C5.69368 26.376 5.5 25.5021 5.5 24C5.5 22.4979 5.69368 21.624 6.00952 20.9091C6.34747 20.1441 6.86127 19.4632 7.73844 18.3236Z" fill="#0D1217"/>
</svg>
