<svg width="48" height="48" viewBox="0 0 48 48" fill="none" xmlns="http://www.w3.org/2000/svg">
<path fill-rule="evenodd" clip-rule="evenodd" d="M44.5907 12.6213C45.3522 12.9476 45.7049 13.8295 45.3786 14.5909L43.9999 14C45.3786 14.5909 45.3786 14.5909 45.3786 14.5909L45.3771 14.5943L45.375 14.5992L45.3686 14.6139L45.3473 14.6621C45.3293 14.7024 45.3037 14.7588 45.2704 14.8302C45.2039 14.9729 45.1065 15.1755 44.9776 15.4283C44.7199 15.9336 44.335 16.6414 43.8169 17.4729C42.9657 18.839 41.7448 20.5553 40.1239 22.2604L42.0605 24.197C42.6463 24.7828 42.6463 25.7326 42.0605 26.3184C41.4747 26.9041 40.525 26.9041 39.9392 26.3184L37.938 24.3172C36.6187 25.4226 35.1056 26.4601 33.39 27.3125L35.2571 30.1819C35.7089 30.8763 35.5123 31.8055 34.8179 32.2573C34.1236 32.7091 33.1944 32.5125 32.7426 31.8181L30.5643 28.4703C29.0056 28.9793 27.318 29.3252 25.4998 29.4493V33C25.4998 33.8284 24.8283 34.5 23.9998 34.5C23.1714 34.5 22.4998 33.8284 22.4998 33V29.4493C20.7378 29.3291 19.0982 29.0004 17.5796 28.5168L15.4315 31.8182C14.9797 32.5126 14.0505 32.7092 13.3561 32.2574C12.6618 31.8056 12.4651 30.8764 12.9169 30.1821L14.7418 27.3776C13.013 26.5333 11.4876 25.5004 10.1568 24.3965L8.23489 26.3185C7.6491 26.9043 6.69935 26.9043 6.11357 26.3185C5.52778 25.7327 5.52778 24.783 6.11357 24.1972L7.96109 22.3496C6.31198 20.6303 5.0705 18.8931 4.20554 17.5094C3.67969 16.6681 3.28919 15.9513 3.02776 15.4394C2.89696 15.1833 2.79821 14.9779 2.73074 14.8333C2.697 14.761 2.67106 14.7038 2.65283 14.663L2.63124 14.6142L2.62476 14.5993L2.62259 14.5943L2.62177 14.5924C2.62177 14.5924 2.62113 14.5909 3.99985 14L2.62177 14.5924C2.29544 13.8309 2.64752 12.9476 3.40897 12.6213C4.16979 12.2952 5.05078 12.6471 5.37776 13.4073L5.37967 13.4116L5.39181 13.4391C5.40361 13.4655 5.42279 13.5078 5.44945 13.565C5.50278 13.6793 5.58593 13.8525 5.69953 14.075C5.92691 14.5202 6.27523 15.1606 6.74945 15.9192C7.70065 17.441 9.14314 19.4142 11.1112 21.2432C12.843 22.8526 14.9652 24.3351 17.5033 25.3116C19.4123 26.0461 21.5707 26.5 23.9998 26.5C26.4833 26.5 28.6841 26.0255 30.6248 25.2616C33.1476 24.2687 35.2553 22.7765 36.9733 21.164C38.9124 19.3439 40.3336 17.3903 41.2707 15.8864C41.7379 15.1366 42.0811 14.5046 42.3051 14.0654C42.417 13.8459 42.4989 13.6752 42.5514 13.5625C42.5777 13.5062 42.5965 13.4645 42.6081 13.4385L42.6201 13.4115L42.6211 13.4091M44.5907 12.6213C43.8295 12.2951 42.9477 12.6481 42.6211 13.4091L44.5907 12.6213Z" fill="#0D1217"/>
</svg>
