<svg width="48" height="48" viewBox="0 0 48 48" fill="none" xmlns="http://www.w3.org/2000/svg">
<path d="M32.0001 21C32.0001 22.6569 31.1047 24 30.0001 24C28.8956 24 28.0001 22.6569 28.0001 21C28.0001 19.3432 28.8956 18 30.0001 18C31.1047 18 32.0001 19.3432 32.0001 21Z" fill="#0D1217"/>
<path d="M20.0001 21C20.0001 22.6569 19.1047 24 18.0001 24C16.8956 24 16.0001 22.6569 16.0001 21C16.0001 19.3432 16.8956 18 18.0001 18C19.1047 18 20.0001 19.3432 20.0001 21Z" fill="#0D1217"/>
<path fill-rule="evenodd" clip-rule="evenodd" d="M26.5301 4.10158C26.6949 3.28971 27.4866 2.76514 28.2985 2.92993C36.7256 4.64039 43.3598 11.2745 45.0704 19.7015C45.2352 20.5134 44.7106 21.3052 43.8988 21.47C43.0869 21.6348 42.2952 21.1102 42.1303 20.2983C40.6594 13.0521 34.948 7.34077 27.7017 5.86998C26.8899 5.70519 26.3653 4.91345 26.5301 4.10158ZM21.4705 4.10168C21.6353 4.91356 21.1107 5.7053 20.2988 5.87008C13.0525 7.34088 7.34113 13.0522 5.87022 20.2984C5.70542 21.1103 4.91367 21.6349 4.1018 21.4701C3.28993 21.3053 2.76538 20.5135 2.93018 19.7017C4.64077 11.2746 11.275 4.64049 19.7021 2.93003C20.5139 2.76525 21.3057 3.28981 21.4705 4.10168ZM4.10212 26.53C4.91399 26.3652 5.70573 26.8898 5.87053 27.7017C7.34144 34.9479 13.0528 40.6592 20.2991 42.13C21.111 42.2948 21.6356 43.0865 21.4708 43.8984C21.306 44.7103 20.5143 45.2349 19.7024 45.0701C11.2753 43.3596 4.64109 36.7255 2.93049 28.2984C2.76569 27.4866 3.29025 26.6948 4.10212 26.53ZM43.8988 26.53C44.7106 26.6948 45.2352 27.4866 45.0704 28.2984C43.3598 36.7255 36.7256 43.3596 28.2985 45.0701C27.4866 45.2348 26.6949 44.7103 26.5301 43.8984C26.3653 43.0865 26.8899 42.2948 27.7017 42.13C34.948 40.6592 40.6594 34.9479 42.1303 27.7017C42.2952 26.8898 43.0869 26.3652 43.8988 26.53ZM16.7951 31.1068C17.2884 30.4413 18.2278 30.3017 18.8933 30.795C20.35 31.8747 22.1083 32.5 24.0001 32.5C25.8919 32.5 27.6502 31.8747 29.1069 30.795C29.7724 30.3017 30.7119 30.4413 31.2052 31.1068C31.6985 31.7724 31.5589 32.7118 30.8933 33.2051C28.9485 34.6467 26.5701 35.5 24.0001 35.5C21.4302 35.5 19.0517 34.6467 17.1069 33.2051C16.4414 32.7118 16.3018 31.7724 16.7951 31.1068Z" fill="#0D1217"/>
</svg>
