<svg width="48" height="48" viewBox="0 0 48 48" fill="none" xmlns="http://www.w3.org/2000/svg">
<path fill-rule="evenodd" clip-rule="evenodd" d="M28 44H20C12.4575 44 8.68629 44 6.34315 41.6569C4 39.3137 4 35.5425 4 28V20C4 12.4575 4 8.68629 6.34315 6.34315C8.68629 4 12.4774 4 20.0596 4C21.2716 4 22.2428 4 23.06 4.03332C23.0331 4.19319 23.019 4.35626 23.0185 4.52113L23 10.1899C22.9998 12.3841 22.9997 14.3233 23.2098 15.8863C23.4376 17.5806 23.9606 19.2745 25.3431 20.6571C26.7257 22.0396 28.4197 22.5626 30.1139 22.7904C31.6769 23.0005 33.6161 23.0004 35.8103 23.0002L36 23.0002H43.9148C44 24.0687 44 25.3802 44 27.1258V28C44 35.5425 44 39.3137 41.6569 41.6569C39.3137 44 35.5425 44 28 44ZM10.5 29C10.5 28.1716 11.1716 27.5 12 27.5H28C28.8284 27.5 29.5 28.1716 29.5 29C29.5 29.8284 28.8284 30.5 28 30.5H12C11.1716 30.5 10.5 29.8284 10.5 29ZM10.5 36C10.5 35.1716 11.1716 34.5 12 34.5H23C23.8284 34.5 24.5 35.1716 24.5 36C24.5 36.8284 23.8284 37.5 23 37.5H12C11.1716 37.5 10.5 36.8284 10.5 36Z" fill="#0D1217"/>
<path d="M38.7034 15.2333L30.7859 8.10751C28.5302 6.07736 27.4023 5.06229 26.0184 4.53125L26 10.0002C26 14.7143 26 17.0713 27.4645 18.5357C28.9289 20.0002 31.286 20.0002 36 20.0002H43.1602C42.4351 18.5918 41.1367 17.4233 38.7034 15.2333Z" fill="#0D1217"/>
</svg>
