<svg width="48" height="48" viewBox="0 0 48 48" fill="none" xmlns="http://www.w3.org/2000/svg">
<path d="M36 16C36 18.2091 34.2091 20 32 20C29.7909 20 28 18.2091 28 16C28 13.7909 29.7909 12 32 12C34.2091 12 36 13.7909 36 16Z" fill="#0D1217"/>
<path fill-rule="evenodd" clip-rule="evenodd" d="M23.8852 2.5H24.1148C28.7315 2.49998 32.3496 2.49996 35.1726 2.87949C38.0621 3.26797 40.3421 4.07865 42.1317 5.86827C43.9213 7.65789 44.732 9.93794 45.1205 12.8274C45.5 15.6504 45.5 19.2685 45.5 23.8853V24.0618C45.5 27.8794 45.5 31.0046 45.2927 33.5491C45.0843 36.1061 44.6574 38.2428 43.7018 40.0175C43.2803 40.8002 42.7623 41.5011 42.1317 42.1317C40.3421 43.9213 38.0621 44.732 35.1726 45.1205C32.3496 45.5 28.7315 45.5 24.1147 45.5H23.8853C19.2685 45.5 15.6504 45.5 12.8274 45.1205C9.93794 44.732 7.65789 43.9213 5.86827 42.1317C4.28172 40.5452 3.4624 38.5705 3.0267 36.1209C2.5987 33.7145 2.5204 30.7206 2.50414 27.003C2.5 26.0573 2.5 25.0572 2.5 24.002V23.8852C2.49998 19.2685 2.49996 15.6504 2.87949 12.8274C3.26797 9.93794 4.07865 7.65789 5.86827 5.86827C7.65789 4.07865 9.93794 3.26797 12.8274 2.87949C15.6504 2.49996 19.2685 2.49998 23.8852 2.5ZM13.2272 5.85274C10.6703 6.1965 9.12891 6.85028 7.98959 7.98959C6.85028 9.12891 6.1965 10.6703 5.85274 13.2272C5.50319 15.8271 5.5 19.2436 5.5 24C5.5 24.581 5.5 25.1429 5.50068 25.687L7.50296 23.935C9.3255 22.3403 12.0723 22.4318 13.7848 24.1442L22.3642 32.7236C23.7387 34.0981 25.9023 34.2855 27.4926 33.1679L28.089 32.7487C30.3775 31.1404 33.4737 31.3268 35.5527 33.1979L41.2136 38.2927C41.7835 37.096 42.1219 35.5236 42.3026 33.3054C42.4989 30.8965 42.5 27.8917 42.5 24C42.5 19.2436 42.4968 15.8271 42.1473 13.2272C41.8035 10.6703 41.1497 9.12891 40.0104 7.98959C38.8711 6.85028 37.3297 6.1965 34.7728 5.85274C32.1729 5.50319 28.7565 5.5 24 5.5C19.2436 5.5 15.8271 5.50319 13.2272 5.85274Z" fill="#0D1217"/>
</svg>
