<svg width="48" height="48" viewBox="0 0 48 48" fill="none" xmlns="http://www.w3.org/2000/svg">
<path d="M44 24C44 26.6264 43.4827 29.2272 42.4776 31.6537C41.4725 34.0802 39.9993 36.285 38.1421 38.1421C36.285 39.9993 34.0802 41.4725 31.6537 42.4776C29.2272 43.4827 26.6264 44 24 44C21.3736 44 18.7728 43.4827 16.3463 42.4776C13.9198 41.4725 11.715 39.9993 9.85786 38.1421C8.00069 36.285 6.5275 34.0802 5.52241 31.6537C4.51731 29.2272 4 26.6264 4 24C4 21.3736 4.51732 18.7728 5.52241 16.3463C6.5275 13.9198 8.00069 11.715 9.85787 9.85786C11.715 8.00069 13.9198 6.5275 16.3463 5.52241C18.7728 4.51731 21.3736 4 24 4C26.6264 4 29.2272 4.51732 31.6537 5.52241C34.0802 6.52751 36.285 8.00069 38.1421 9.85787C39.9993 11.715 41.4725 13.9198 42.4776 16.3463C43.4827 18.7728 44 21.3736 44 24L44 24Z" stroke="#0D1217" stroke-width="1.5"/>
<path d="M32 24C32 26.6264 31.7931 29.2272 31.391 31.6537C30.989 34.0802 30.3997 36.285 29.6569 38.1421C28.914 39.9993 28.0321 41.4725 27.0615 42.4776C26.0909 43.4827 25.0506 44 24 44C22.9494 44 21.9091 43.4827 20.9385 42.4776C19.9679 41.4725 19.086 39.9993 18.3431 38.1421C17.6003 36.285 17.011 34.0802 16.609 31.6537C16.2069 29.2272 16 26.6264 16 24C16 21.3736 16.2069 18.7728 16.609 16.3463C17.011 13.9198 17.6003 11.715 18.3431 9.85786C19.086 8.00069 19.9679 6.5275 20.9385 5.52241C21.9091 4.51731 22.9494 4 24 4C25.0506 4 26.0909 4.51732 27.0615 5.52241C28.0321 6.52751 28.914 8.00069 29.6569 9.85787C30.3997 11.715 30.989 13.9198 31.391 16.3463C31.7931 18.7728 32 21.3736 32 24L32 24Z" stroke="#0D1217" stroke-width="1.5"/>
<path d="M4 24H44" stroke="#0D1217" stroke-width="1.5" stroke-linecap="round"/>
</svg>
