<svg width="48" height="48" viewBox="0 0 48 48" fill="none" xmlns="http://www.w3.org/2000/svg">
<path d="M12.5199 42.7768H12C10.1144 42.7768 9.17157 42.7768 8.58579 42.191C8 41.6052 8 40.6624 8 38.7768V36.5529C8 35.5159 8 34.9974 8.26636 34.5343C8.53271 34.0713 8.93454 33.8376 9.7382 33.3701C15.0291 30.2929 22.5431 28.5606 27.5581 31.5518C27.8951 31.7528 28.1981 31.9954 28.4571 32.2863C29.5733 33.54 29.4919 35.4322 28.2055 36.555C27.9339 36.7921 27.6443 36.9719 27.3527 37.0344C27.5923 37.0066 27.822 36.9748 28.0411 36.9398C29.8639 36.6491 31.3941 35.675 32.7949 34.6169L36.4092 31.8865C37.6834 30.924 39.5746 30.9238 40.8491 31.8861C41.9964 32.7524 42.3472 34.1788 41.6219 35.3415C40.776 36.6974 39.5842 38.432 38.4399 39.4918C37.2939 40.5532 35.5878 41.5008 34.195 42.1731C32.6521 42.9178 30.9476 43.3469 29.2139 43.6275C25.6977 44.1967 22.0331 44.1098 18.5527 43.3928C16.5851 42.9874 14.5416 42.7768 12.5199 42.7768Z" fill="#0D1217"/>
<path d="M21.7225 6.7267C22.7358 4.9089 23.2425 4 24 4C24.7575 4 25.2642 4.9089 26.2775 6.7267L26.5396 7.19699C26.8276 7.71355 26.9716 7.97183 27.196 8.14225C27.4205 8.31266 27.7001 8.37592 28.2593 8.50244L28.7684 8.61762C30.7361 9.06284 31.72 9.28545 31.9541 10.0382C32.1881 10.7909 31.5174 11.5753 30.1759 13.1439L29.8289 13.5498C29.4477 13.9955 29.2571 14.2184 29.1713 14.4942C29.0856 14.7699 29.1144 15.0673 29.172 15.662L29.2245 16.2035C29.4273 18.2965 29.5287 19.343 28.9159 19.8082C28.3031 20.2734 27.3819 19.8492 25.5395 19.0009L25.0628 18.7815C24.5393 18.5404 24.2775 18.4199 24 18.4199C23.7225 18.4199 23.4607 18.5404 22.9372 18.7815L22.4605 19.0009C20.6181 19.8492 19.6969 20.2734 19.0841 19.8082C18.4713 19.343 18.5727 18.2965 18.7755 16.2035L18.828 15.662C18.8856 15.0673 18.9144 14.7699 18.8287 14.4942C18.7429 14.2184 18.5523 13.9955 18.1711 13.5498L17.8241 13.1439C16.4826 11.5753 15.8119 10.7909 16.0459 10.0382C16.28 9.28545 17.2639 9.06284 19.2316 8.61762L19.7407 8.50244C20.2999 8.37592 20.5795 8.31266 20.804 8.14225C21.0284 7.97183 21.1724 7.71355 21.4604 7.19699L21.7225 6.7267Z" fill="#0D1217"/>
<path d="M38.8613 15.3633C39.3679 14.4544 39.6213 14 40 14C40.3787 14 40.6321 14.4545 41.1387 15.3633L41.2698 15.5985C41.4138 15.8568 41.4858 15.9859 41.598 16.0711C41.7103 16.1563 41.8501 16.188 42.1296 16.2512L42.3842 16.3088C43.3681 16.5314 43.86 16.6427 43.977 17.0191C44.0941 17.3955 43.7587 17.7876 43.088 18.572L42.9144 18.7749C42.7238 18.9978 42.6285 19.1092 42.5857 19.2471C42.5428 19.385 42.5572 19.5336 42.586 19.831L42.6122 20.1018C42.7136 21.1482 42.7644 21.6715 42.4579 21.9041C42.1515 22.1367 41.6909 21.9246 40.7697 21.5005L40.5314 21.3907C40.2696 21.2702 40.1387 21.2099 40 21.2099C39.8613 21.2099 39.7304 21.2702 39.4686 21.3907L39.2303 21.5005C38.3091 21.9246 37.8485 22.1367 37.5421 21.9041C37.2356 21.6715 37.2864 21.1482 37.3878 20.1018L37.414 19.831C37.4428 19.5336 37.4572 19.385 37.4143 19.2471C37.3715 19.1092 37.2762 18.9978 37.0856 18.7749L36.912 18.572C36.2413 17.7876 35.9059 17.3955 36.023 17.0191C36.14 16.6427 36.6319 16.5314 37.6158 16.3088L37.8704 16.2512C38.1499 16.188 38.2897 16.1563 38.402 16.0711C38.5142 15.9859 38.5862 15.8568 38.7302 15.5985L38.8613 15.3633Z" fill="#0D1217"/>
<path d="M6.86127 15.3633C7.36793 14.4544 7.62126 14 8 14C8.37874 14 8.63207 14.4545 9.13873 15.3633L9.26981 15.5985C9.41379 15.8568 9.48578 15.9859 9.59802 16.0711C9.71027 16.1563 9.85006 16.188 10.1296 16.2512L10.3842 16.3088C11.3681 16.5314 11.86 16.6427 11.977 17.0191C12.0941 17.3955 11.7587 17.7876 11.088 18.572L10.9144 18.7749C10.7238 18.9978 10.6285 19.1092 10.5857 19.2471C10.5428 19.385 10.5572 19.5336 10.586 19.831L10.6122 20.1018C10.7136 21.1482 10.7644 21.6715 10.4579 21.9041C10.1515 22.1367 9.69093 21.9246 8.76973 21.5005L8.53141 21.3907C8.26963 21.2702 8.13874 21.2099 8 21.2099C7.86126 21.2099 7.73037 21.2702 7.46859 21.3907L7.23027 21.5005C6.30907 21.9246 5.84847 22.1367 5.54206 21.9041C5.23565 21.6715 5.28635 21.1482 5.38776 20.1018L5.41399 19.831C5.44281 19.5336 5.45722 19.385 5.41435 19.2471C5.37147 19.1092 5.27617 18.9978 5.08557 18.7749L4.91204 18.572C4.2413 17.7876 3.90593 17.3955 4.02297 17.0191C4.14001 16.6427 4.63194 16.5314 5.61581 16.3088L5.87035 16.2512C6.14994 16.188 6.28973 16.1563 6.40198 16.0711C6.51422 15.9859 6.58621 15.8568 6.73019 15.5985L6.86127 15.3633Z" fill="#0D1217"/>
</svg>
