<svg width="48" height="48" viewBox="0 0 48 48" fill="none" xmlns="http://www.w3.org/2000/svg">
<path fill-rule="evenodd" clip-rule="evenodd" d="M11.2487 8.84839C7.93074 10.365 5.5 13.9725 5.5 18.2742C5.5 22.669 7.29843 26.0565 9.87657 28.9595C12.0014 31.3522 14.5737 33.3353 17.0823 35.2692C17.6781 35.7286 18.2703 36.1851 18.8521 36.6438C19.9042 37.4731 20.8426 38.2011 21.7472 38.7297C22.6523 39.2585 23.3808 39.5 24 39.5C24.6192 39.5 25.3477 39.2585 26.2528 38.7297C27.1574 38.2011 28.0958 37.4731 29.1479 36.6438C29.7297 36.1851 30.3219 35.7286 30.9177 35.2692C33.4263 33.3353 35.9986 31.3522 38.1234 28.9595C40.7016 26.0565 42.5 22.669 42.5 18.2742C42.5 13.9725 40.0693 10.365 36.7513 8.84839C33.5279 7.37496 29.1967 7.76516 25.0807 12.0415C24.798 12.3353 24.4078 12.5013 24 12.5013C23.5922 12.5013 23.202 12.3353 22.9193 12.0415C18.8033 7.76516 14.4721 7.37496 11.2487 8.84839ZM24 8.91764C19.3759 4.78049 14.1979 4.20174 10.0015 6.11993C5.56943 8.14585 2.5 12.8501 2.5 18.2742C2.5 23.6053 4.72099 27.6721 7.63343 30.9516C9.96575 33.5779 12.8204 35.7759 15.3417 37.7172C15.9132 38.1572 16.4676 38.5841 16.9948 38.9998C18.0193 39.8074 19.1191 40.6686 20.2336 41.3198C21.3477 41.9709 22.6192 42.5 24 42.5C25.3808 42.5 26.6523 41.9709 27.7664 41.3198C28.8809 40.6686 29.9807 39.8074 31.0052 38.9998C31.5324 38.5841 32.0868 38.1572 32.6583 37.7172C35.1796 35.7759 38.0343 33.5779 40.3666 30.9516C43.279 27.6721 45.5 23.6053 45.5 18.2742C45.5 12.8501 42.4306 8.14585 37.9985 6.11993C33.8021 4.20174 28.6241 4.78049 24 8.91764Z" fill="#0D1217"/>
</svg>
