<svg width="48" height="48" viewBox="0 0 48 48" fill="none" xmlns="http://www.w3.org/2000/svg">
<path fill-rule="evenodd" clip-rule="evenodd" d="M10.1574 10.1379C17.748 2.55799 30.0873 2.63858 37.7244 10.2757C45.3648 17.9161 45.4421 30.2627 37.8523 37.8525C30.2625 45.4423 17.9159 45.365 10.2755 37.7246C5.74777 33.1969 3.87808 27.02 4.68094 21.1626C4.79344 20.3418 5.54999 19.7677 6.37074 19.8802C7.1915 19.9927 7.76565 20.7492 7.65315 21.57C6.9732 26.5306 8.55564 31.7621 12.3968 35.6033C18.8858 42.0922 29.3328 42.1294 35.731 35.7312C42.1292 29.333 42.092 18.886 35.6031 12.397C29.1174 5.91135 18.6778 5.8709 12.2787 12.2593L13.7741 12.2668C14.6025 12.2709 15.2707 12.9459 15.2665 13.7743C15.2624 14.6027 14.5874 15.2709 13.759 15.2667L8.66792 15.2412C7.84538 15.237 7.17961 14.5712 7.17548 13.7487L7.14989 8.65761C7.14573 7.82919 7.81392 7.15425 8.64233 7.15009C9.47075 7.14593 10.1457 7.81412 10.1499 8.64253L10.1574 10.1379ZM23.9998 14.5C24.8282 14.5 25.4998 15.1715 25.4998 16V23.3786L30.0604 27.9393C30.6462 28.5251 30.6462 29.4748 30.0604 30.0606C29.4746 30.6464 28.5249 30.6464 27.9391 30.0606L22.4998 24.6213V16C22.4998 15.1715 23.1713 14.5 23.9998 14.5Z" fill="#0D1217"/>
</svg>
