<svg width="48" height="48" viewBox="0 0 48 48" fill="none" xmlns="http://www.w3.org/2000/svg">
<path d="M18 34.5C17.1716 34.5 16.5 35.1716 16.5 36C16.5 36.8284 17.1716 37.5 18 37.5H30C30.8284 37.5 31.5 36.8284 31.5 36C31.5 35.1716 30.8284 34.5 30 34.5H18Z" fill="#0D1217"/>
<path fill-rule="evenodd" clip-rule="evenodd" d="M24 2.5C22.5838 2.5 21.2971 2.90564 19.9011 3.58448C18.5517 4.24069 16.9928 5.20818 15.0457 6.41665L10.9126 8.9818C9.07017 10.1252 7.59489 11.0408 6.4578 11.9116C5.2803 12.8134 4.3759 13.7318 3.72262 14.9253C3.07071 16.1162 2.77713 17.3835 2.63638 18.8814C2.49997 20.3331 2.49998 22.1082 2.5 24.3345V27.5597C2.49997 31.3675 2.49995 34.3732 2.80541 36.7232C3.11874 39.1339 3.77713 41.0801 5.26472 42.6189C6.75917 44.1647 8.66091 44.8553 11.0152 45.1827C13.297 45.5001 16.2111 45.5 19.8837 45.5H28.1162C31.7888 45.5 34.703 45.5001 36.9848 45.1827C39.3391 44.8553 41.2408 44.1647 42.7353 42.6189C44.2229 41.0801 44.8813 39.1339 45.1946 36.7232C45.5 34.3732 45.5 31.3675 45.5 27.5597V24.3344C45.5 22.1083 45.5 20.333 45.3636 18.8814C45.2229 17.3835 44.9293 16.1162 44.2774 14.9253C43.6241 13.7318 42.7197 12.8134 41.5422 11.9116C40.4051 11.0408 38.9299 10.1252 37.0875 8.98183L32.9543 6.41663C31.0072 5.20817 29.4483 4.24068 28.0989 3.58448C26.7029 2.90564 25.4162 2.5 24 2.5ZM16.5591 9.00824C18.5906 7.74742 20.019 6.86307 21.2131 6.28239C22.3765 5.71665 23.2004 5.5 24 5.5C24.7996 5.5 25.6235 5.71665 26.7869 6.28239C27.981 6.86307 29.4094 7.74741 31.4409 9.00823L35.4409 11.4907C37.3626 12.6834 38.7118 13.5227 39.7182 14.2934C40.6973 15.0433 41.2607 15.6621 41.6458 16.3657C42.0323 17.0718 42.2579 17.8973 42.3768 19.1621C42.4985 20.4572 42.5 22.0916 42.5 24.4078V27.4499C42.5 31.3918 42.497 34.2023 42.2196 36.3365C41.9472 38.4327 41.434 39.6487 40.5784 40.5337C39.7297 41.4116 38.5743 41.9328 36.5716 42.2113C34.5203 42.4966 31.8151 42.5 28 42.5H20C16.1849 42.5 13.4797 42.4966 11.4284 42.2113C9.42572 41.9328 8.27027 41.4116 7.42158 40.5337C6.56602 39.6487 6.05283 38.4327 5.78038 36.3365C5.50298 34.2023 5.5 31.3918 5.5 27.4499V24.4078C5.5 22.0916 5.50153 20.4572 5.62322 19.1621C5.74207 17.8973 5.96769 17.0718 6.35418 16.3657C6.73931 15.6621 7.30265 15.0433 8.28184 14.2934C9.2882 13.5227 10.6374 12.6834 12.5591 11.4907L16.5591 9.00824Z" fill="#0D1217"/>
</svg>
