<svg width="48" height="48" viewBox="0 0 48 48" fill="none" xmlns="http://www.w3.org/2000/svg">
<path fill-rule="evenodd" clip-rule="evenodd" d="M5.0384 15.6455C4 17.5426 4 19.831 4 24.4078V27.4499C4 35.2517 4 39.1526 6.34315 41.5763C8.68629 44 12.4575 44 20 44H28C35.5425 44 39.3137 44 41.6569 41.5763C44 39.1526 44 35.2517 44 27.4499V24.4078C44 19.831 44 17.5426 42.9616 15.6455C41.9232 13.7484 40.0261 12.571 36.2319 10.2162L32.2319 7.73374C28.2212 5.24458 26.2159 4 24 4C21.7841 4 19.7788 5.24458 15.7681 7.73374L11.7681 10.2163C7.97389 12.571 6.0768 13.7484 5.0384 15.6455ZM18 34.5C17.1716 34.5 16.5 35.1716 16.5 36C16.5 36.8284 17.1716 37.5 18 37.5H30C30.8284 37.5 31.5 36.8284 31.5 36C31.5 35.1716 30.8284 34.5 30 34.5H18Z" fill="#0D1217"/>
</svg>
