<svg width="48" height="48" viewBox="0 0 48 48" fill="none" xmlns="http://www.w3.org/2000/svg">
<path fill-rule="evenodd" clip-rule="evenodd" d="M6.34315 10.3431C4 12.6863 4 16.4575 4 24C4 31.5425 4 35.3137 6.34315 37.6569C8.68629 40 12.4575 40 20 40H28C35.5425 40 39.3137 40 41.6569 37.6569C44 35.3137 44 31.5425 44 24C44 16.4575 44 12.6863 41.6569 10.3431C39.3137 8 35.5425 8 28 8H20C12.4575 8 8.68629 8 6.34315 10.3431ZM37.1523 15.0397C37.6827 15.6761 37.5967 16.622 36.9603 17.1523L32.5673 20.8131C30.7946 22.2905 29.3578 23.4878 28.0896 24.3034C26.7687 25.1531 25.4822 25.6898 24 25.6898C22.5178 25.6898 21.2313 25.1531 19.9104 24.3034C18.6422 23.4878 17.2054 22.2905 15.4327 20.8132L11.0397 17.1523C10.4033 16.622 10.3173 15.6761 10.8477 15.0397C11.378 14.4033 12.3239 14.3173 12.9603 14.8477L17.2781 18.4458C19.144 20.0008 20.4395 21.0768 21.5332 21.7803C22.5919 22.4612 23.3099 22.6897 24 22.6897C24.6901 22.6897 25.4081 22.4612 26.4668 21.7803C27.5605 21.0768 28.856 20.0008 30.7219 18.4458L35.0397 14.8477C35.6761 14.3173 36.622 14.4033 37.1523 15.0397Z" fill="#0D1217"/>
</svg>
