<svg width="48" height="48" viewBox="0 0 48 48" fill="none" xmlns="http://www.w3.org/2000/svg">
<path fill-rule="evenodd" clip-rule="evenodd" d="M19.8872 6.5H28.1128C31.7884 6.49997 34.6996 6.49994 36.978 6.80627C39.3229 7.12153 41.2208 7.78576 42.7175 9.28249C44.2142 10.7792 44.8785 12.6771 45.1937 15.022C45.5001 17.3004 45.5 20.2117 45.5 23.8872V24.1128C45.5 27.7883 45.5001 30.6996 45.1937 32.978C44.8785 35.3229 44.2142 37.2208 42.7175 38.7175C41.2208 40.2142 39.3229 40.8785 36.978 41.1937C34.6996 41.5001 31.7883 41.5 28.1128 41.5H19.8872C16.2117 41.5 13.3004 41.5001 11.022 41.1937C8.67711 40.8785 6.77921 40.2142 5.28249 38.7175C3.78576 37.2208 3.12153 35.3229 2.80627 32.978C2.49994 30.6996 2.49997 27.7884 2.5 24.1128V23.8872C2.49997 20.2116 2.49994 17.3004 2.80627 15.022C3.12153 12.6771 3.78576 10.7792 5.28249 9.28249C6.77921 7.78576 8.67711 7.12153 11.022 6.80627C13.3004 6.49994 16.2116 6.49997 19.8872 6.5ZM11.4217 9.77952C9.40952 10.05 8.25023 10.5574 7.40381 11.4038C6.55739 12.2502 6.05005 13.4095 5.77952 15.4217C5.50319 17.477 5.5 20.1864 5.5 24C5.5 27.8136 5.50319 30.523 5.77952 32.5783C6.05005 34.5905 6.55739 35.7498 7.40381 36.5962C8.25023 37.4426 9.40952 37.95 11.4217 38.2205C13.477 38.4968 16.1864 38.5 20 38.5H28C31.8136 38.5 34.523 38.4968 36.5783 38.2205C38.5905 37.95 39.7498 37.4426 40.5962 36.5962C41.4426 35.7498 41.95 34.5905 42.2205 32.5783C42.4968 30.523 42.5 27.8136 42.5 24C42.5 20.1864 42.4968 17.477 42.2205 15.4217C41.95 13.4095 41.4426 12.2502 40.5962 11.4038C39.7498 10.5574 38.5905 10.05 36.5783 9.77952C34.523 9.50319 31.8136 9.5 28 9.5H20C16.1864 9.5 13.477 9.50319 11.4217 9.77952ZM10.8477 15.0397C11.378 14.4033 12.3239 14.3173 12.9603 14.8477L17.2781 18.4458C19.144 20.0008 20.4395 21.0768 21.5332 21.7803C22.5919 22.4612 23.3099 22.6898 24 22.6898C24.6901 22.6898 25.4081 22.4612 26.4668 21.7803C27.5605 21.0768 28.856 20.0008 30.7219 18.4458L35.0397 14.8477C35.6761 14.3173 36.622 14.4033 37.1523 15.0397C37.6827 15.6761 37.5967 16.622 36.9603 17.1523L32.5673 20.8132C30.7946 22.2905 29.3578 23.4878 28.0896 24.3034C26.7687 25.1531 25.4822 25.6898 24 25.6898C22.5178 25.6898 21.2313 25.1531 19.9104 24.3034C18.6422 23.4878 17.2054 22.2905 15.4327 20.8132L11.0397 17.1523C10.4033 16.622 10.3173 15.6761 10.8477 15.0397Z" fill="#0D1217"/>
</svg>
