<svg width="48" height="48" viewBox="0 0 48 48" fill="none" xmlns="http://www.w3.org/2000/svg">
<path d="M31.0607 25.0607C31.6465 24.4749 31.6465 23.5251 31.0607 22.9393L26.0607 17.9393C25.4749 17.3536 24.5251 17.3536 23.9393 17.9393C23.3536 18.5251 23.3536 19.4749 23.9393 20.0607L26.3787 22.5H12C11.1716 22.5 10.5 23.1716 10.5 24C10.5 24.8284 11.1716 25.5 12 25.5H26.3787L23.9393 27.9393C23.3536 28.5251 23.3536 29.4749 23.9393 30.0607C24.5251 30.6465 25.4749 30.6465 26.0607 30.0607L31.0607 25.0607Z" fill="#0D1217"/>
<path fill-rule="evenodd" clip-rule="evenodd" d="M27.8903 2.5H30.1098C32.8449 2.49996 35.0496 2.49993 36.7835 2.73305C38.5837 2.97508 40.0995 3.49287 41.3033 4.6967C42.5071 5.90054 43.0249 7.41628 43.267 9.2165C43.5001 10.9504 43.5 13.1551 43.5 15.8903V32.1097C43.5 34.8449 43.5001 37.0496 43.267 38.7835C43.0249 40.5837 42.5071 42.0995 41.3033 43.3033C40.0995 44.5071 38.5837 45.0249 36.7835 45.267C35.0496 45.5001 32.8449 45.5 30.1097 45.5H27.8903C25.1551 45.5 22.9504 45.5001 21.2165 45.267C19.4163 45.0249 17.9005 44.5071 16.6967 43.3033C15.8971 42.5037 15.4002 41.5665 15.0857 40.4997C13.1831 40.4972 11.598 40.4762 10.3138 40.3036C8.78587 40.0981 7.4612 39.6536 6.40381 38.5962C5.34642 37.5388 4.90186 36.2141 4.69644 34.6862C4.49992 33.2245 4.49995 31.3731 4.5 29.1074V18.8926C4.49995 16.627 4.49992 14.7755 4.69644 13.3138C4.90186 11.7859 5.34642 10.4612 6.40381 9.40381C7.4612 8.34642 8.78587 7.90186 10.3138 7.69644C11.598 7.52377 13.1831 7.50284 15.0857 7.50034C15.4002 6.43354 15.8971 5.49631 16.6967 4.6967C17.9005 3.49287 19.4163 2.97508 21.2165 2.73305C22.9504 2.49993 25.1551 2.49996 27.8903 2.5ZM14.5 32.1098C14.5 34.2096 14.4999 35.9967 14.6054 37.4982C12.9366 37.4917 11.6959 37.4624 10.7135 37.3303C9.51828 37.1696 8.93221 36.882 8.52513 36.4749C8.11805 36.0678 7.83038 35.4817 7.66969 34.2865C7.50319 33.0481 7.5 31.3994 7.5 29V19C7.5 16.6006 7.50319 14.9519 7.66969 13.7135C7.83038 12.5183 8.11805 11.9322 8.52513 11.5251C8.93221 11.118 9.51828 10.8304 10.7135 10.6697C11.6959 10.5376 12.9366 10.5083 14.6054 10.5018C14.4999 12.0033 14.5 13.7904 14.5 15.8902L14.5 16C14.5 16.8284 15.1716 17.5 16 17.5C16.8284 17.5 17.5 16.8284 17.5 16C17.5 13.1292 17.5032 11.1269 17.7063 9.61624C17.9036 8.14869 18.2645 7.37155 18.818 6.81802C19.3716 6.2645 20.1487 5.9036 21.6162 5.7063C23.1269 5.50319 25.1292 5.5 28 5.5H30C32.8708 5.5 34.8731 5.50319 36.3838 5.7063C37.8513 5.9036 38.6285 6.2645 39.182 6.81802C39.7355 7.37155 40.0964 8.14869 40.2937 9.61624C40.4968 11.1269 40.5 13.1292 40.5 16V32C40.5 34.8708 40.4968 36.8731 40.2937 38.3838C40.0964 39.8513 39.7355 40.6285 39.182 41.182C38.6285 41.7355 37.8513 42.0964 36.3838 42.2937C34.8731 42.4968 32.8708 42.5 30 42.5H28C25.1292 42.5 23.1269 42.4968 21.6162 42.2937C20.1487 42.0964 19.3716 41.7355 18.818 41.182C18.2645 40.6285 17.9036 39.8513 17.7063 38.3838C17.5032 36.8731 17.5 34.8708 17.5 32C17.5 31.1716 16.8284 30.5 16 30.5C15.1716 30.5 14.5 31.1716 14.5 32L14.5 32.1098Z" fill="#0D1217"/>
</svg>
