<svg width="48" height="48" viewBox="0 0 48 48" fill="none" xmlns="http://www.w3.org/2000/svg">
<path d="M10.9393 25.0607C10.3536 24.4749 10.3536 23.5251 10.9393 22.9393L14.9393 18.9393C15.5251 18.3536 16.4749 18.3536 17.0607 18.9393C17.6465 19.5251 17.6465 20.4749 17.0607 21.0607L15.6213 22.5L30 22.5C30.8284 22.5 31.5 23.1716 31.5 24C31.5 24.8284 30.8284 25.5 30 25.5L15.6213 25.5L17.0607 26.9393C17.6465 27.5251 17.6465 28.4749 17.0607 29.0607C16.4749 29.6465 15.5251 29.6465 14.9393 29.0607L10.9393 25.0607Z" fill="#0D1217"/>
<path fill-rule="evenodd" clip-rule="evenodd" d="M27.8907 2.5H30.1102C32.8454 2.49996 35.05 2.49993 36.7839 2.73305C38.5842 2.97508 40.0999 3.49287 41.3037 4.6967C42.5076 5.90054 43.0254 7.41628 43.2674 9.2165C43.5005 10.9504 43.5005 13.1551 43.5004 15.8903V32.1097C43.5005 34.8449 43.5005 37.0496 43.2674 38.7835C43.0254 40.5837 42.5076 42.0995 41.3037 43.3033C40.0999 44.5071 38.5842 45.0249 36.7839 45.267C35.05 45.5001 32.8454 45.5 30.1102 45.5H27.8907C25.1555 45.5 22.9509 45.5001 21.2169 45.267C19.4167 45.0249 17.901 44.5071 16.6971 43.3033C15.8993 42.5054 15.4014 41.5688 15.0861 40.4997C13.1834 40.4972 11.5981 40.4762 10.3138 40.3036C8.78587 40.0981 7.4612 39.6536 6.40381 38.5962C5.34642 37.5388 4.90186 36.2141 4.69644 34.6862C4.49992 33.2245 4.49995 31.3731 4.5 29.1074V18.8926C4.49995 16.627 4.49992 14.7755 4.69644 13.3138C4.90186 11.7859 5.34642 10.4612 6.40381 9.40381C7.4612 8.34642 8.78587 7.90186 10.3138 7.69644C11.5981 7.52376 13.1834 7.50284 15.0861 7.50034C15.4014 6.43123 15.8993 5.49458 16.6971 4.6967C17.901 3.49287 19.4167 2.97508 21.2169 2.73305C22.9509 2.49993 25.1555 2.49996 27.8907 2.5ZM14.5039 34.0084C14.5111 35.2974 14.5324 36.4585 14.6057 37.4982C12.9367 37.4917 11.696 37.4624 10.7135 37.3303C9.51828 37.1696 8.93221 36.882 8.52513 36.4749C8.11805 36.0678 7.83038 35.4817 7.66969 34.2865C7.50319 33.0481 7.5 31.3994 7.5 29V19C7.5 16.6006 7.50319 14.9519 7.66969 13.7135C7.83038 12.5183 8.11805 11.9322 8.52513 11.5251C8.93221 11.118 9.51828 10.8304 10.7135 10.6697C11.696 10.5376 12.9367 10.5083 14.6057 10.5018C14.5324 11.5415 14.5111 12.7026 14.5039 13.9917C14.4993 14.8201 15.1671 15.4954 15.9956 15.5C16.824 15.5046 17.4993 14.8368 17.5039 14.0084C17.5161 11.8214 17.5729 10.2712 17.789 9.0947C17.9972 7.96108 18.3315 7.30493 18.8185 6.81802C19.372 6.2645 20.1491 5.9036 21.6167 5.7063C23.1274 5.50319 25.1296 5.5 28.0004 5.5H30.0004C32.8713 5.5 34.8735 5.50319 36.3842 5.7063C37.8517 5.9036 38.6289 6.2645 39.1824 6.81802C39.7359 7.37155 40.0968 8.14869 40.2941 9.61624C40.4972 11.1269 40.5004 13.1292 40.5004 16V32C40.5004 34.8708 40.4972 36.8731 40.2941 38.3838C40.0968 39.8513 39.7359 40.6285 39.1824 41.182C38.6289 41.7355 37.8517 42.0964 36.3842 42.2937C34.8735 42.4968 32.8713 42.5 30.0004 42.5H28.0004C25.1296 42.5 23.1274 42.4968 21.6167 42.2937C20.1491 42.0964 19.372 41.7355 18.8185 41.182C18.3315 40.6951 17.9972 40.0389 17.789 38.9053C17.5729 37.7288 17.5161 36.1786 17.5039 33.9917C17.4993 33.1632 16.824 32.4954 15.9956 32.5C15.1671 32.5046 14.4993 33.1799 14.5039 34.0084Z" fill="#0D1217"/>
</svg>
