<svg width="48" height="48" viewBox="0 0 48 48" fill="none" xmlns="http://www.w3.org/2000/svg">
<path fill-rule="evenodd" clip-rule="evenodd" d="M6.5 20.2866C6.5 10.4885 14.31 2.5 24 2.5C33.69 2.5 41.5 10.4885 41.5 20.2866C41.5 25.0168 40.1519 30.0958 37.7689 34.4837C35.3888 38.8662 31.9113 42.6744 27.561 44.7078C25.3011 45.7641 22.6989 45.7641 20.439 44.7078C16.0887 42.6744 12.6112 38.8662 10.2311 34.4837C7.84806 30.0958 6.5 25.0168 6.5 20.2866ZM24 5.5C16.0169 5.5 9.5 12.095 9.5 20.2866C9.5 24.4807 10.7053 29.0708 12.8674 33.052C15.0325 37.0385 18.092 40.2993 21.7093 41.99C23.1641 42.67 24.8359 42.67 26.2907 41.99C29.908 40.2993 32.9675 37.0385 35.1326 33.052C37.2947 29.0708 38.5 24.4807 38.5 20.2866C38.5 12.095 31.9831 5.5 24 5.5ZM24 15.5C21.5147 15.5 19.5 17.5147 19.5 20C19.5 22.4853 21.5147 24.5 24 24.5C26.4853 24.5 28.5 22.4853 28.5 20C28.5 17.5147 26.4853 15.5 24 15.5ZM16.5 20C16.5 15.8579 19.8579 12.5 24 12.5C28.1421 12.5 31.5 15.8579 31.5 20C31.5 24.1421 28.1421 27.5 24 27.5C19.8579 27.5 16.5 24.1421 16.5 20Z" fill="#0D1217"/>
</svg>
