<svg width="48" height="48" viewBox="0 0 48 48" fill="none" xmlns="http://www.w3.org/2000/svg">
<path fill-rule="evenodd" clip-rule="evenodd" d="M4.5 24C4.5 20.9624 6.96243 18.5 10 18.5C13.0376 18.5 15.5 20.9624 15.5 24C15.5 27.0376 13.0376 29.5 10 29.5C6.96243 29.5 4.5 27.0376 4.5 24ZM10 21.5C8.61929 21.5 7.5 22.6193 7.5 24C7.5 25.3807 8.61929 26.5 10 26.5C11.3807 26.5 12.5 25.3807 12.5 24C12.5 22.6193 11.3807 21.5 10 21.5Z" fill="#0D1217"/>
<path fill-rule="evenodd" clip-rule="evenodd" d="M18.5 24C18.5 20.9624 20.9624 18.5 24 18.5C27.0376 18.5 29.5 20.9624 29.5 24C29.5 27.0376 27.0376 29.5 24 29.5C20.9624 29.5 18.5 27.0376 18.5 24ZM24 21.5C22.6193 21.5 21.5 22.6193 21.5 24C21.5 25.3807 22.6193 26.5 24 26.5C25.3807 26.5 26.5 25.3807 26.5 24C26.5 22.6193 25.3807 21.5 24 21.5Z" fill="#0D1217"/>
<path fill-rule="evenodd" clip-rule="evenodd" d="M38 18.5C34.9624 18.5 32.5 20.9624 32.5 24C32.5 27.0376 34.9624 29.5 38 29.5C41.0376 29.5 43.5 27.0376 43.5 24C43.5 20.9624 41.0376 18.5 38 18.5ZM35.5 24C35.5 22.6193 36.6193 21.5 38 21.5C39.3807 21.5 40.5 22.6193 40.5 24C40.5 25.3807 39.3807 26.5 38 26.5C36.6193 26.5 35.5 25.3807 35.5 24Z" fill="#0D1217"/>
</svg>
