<svg width="48" height="48" viewBox="0 0 48 48" fill="none" xmlns="http://www.w3.org/2000/svg">
<path d="M19.5 15.5C19.5 14.6716 18.8284 14 18 14H15.6319H12.5969C13.332 8.35747 18.1571 4 24 4C29.8429 4 34.668 8.35747 35.4031 14H32.3681L27 14C26.1716 14 25.5 14.6716 25.5 15.5C25.5 16.3284 26.1716 17 27 17L32.5 17H35.5V20H32.5H27C26.1716 20 25.5 20.6716 25.5 21.5C25.5 22.3284 26.1716 23 27 23H32.3681H35.4031C34.6681 28.6425 29.8429 33 24 33C18.1571 33 13.332 28.6425 12.5969 23H15.6319H18C18.8284 23 19.5 22.3284 19.5 21.5C19.5 20.6716 18.8284 20 18 20H15.5H12.5V17H15.5H18C18.8284 17 19.5 16.3284 19.5 15.5Z" fill="#0D1217"/>
<path fill-rule="evenodd" clip-rule="evenodd" d="M8 18C8.82843 18 9.5 18.6716 9.5 19.5V21.5C9.5 29.5081 15.9919 36 24 36C32.0081 36 38.5 29.5081 38.5 21.5V19.5C38.5 18.6716 39.1716 18 40 18C40.8284 18 41.5 18.6716 41.5 19.5V21.5C41.5 30.6597 34.4628 38.1758 25.5 38.9366V43.5C25.5 44.3284 24.8284 45 24 45C23.1716 45 22.5 44.3284 22.5 43.5V38.9366C13.5372 38.1758 6.5 30.6597 6.5 21.5V19.5C6.5 18.6716 7.17157 18 8 18Z" fill="#0D1217"/>
</svg>
