<svg width="48" height="48" viewBox="0 0 48 48" fill="none" xmlns="http://www.w3.org/2000/svg">
<path fill-rule="evenodd" clip-rule="evenodd" d="M12.5 16C12.5 9.64873 17.6487 4.5 24 4.5C30.3513 4.5 35.5 9.64873 35.5 16V22C35.5 28.3513 30.3513 33.5 24 33.5C17.6487 33.5 12.5 28.3513 12.5 22V16ZM15.6319 14.5H18C18.8284 14.5 19.5 15.1716 19.5 16C19.5 16.8284 18.8284 17.5 18 17.5H15.5V20.5H18C18.8284 20.5 19.5 21.1716 19.5 22C19.5 22.8284 18.8284 23.5 18 23.5H15.6319C16.3404 27.479 19.8174 30.5 24 30.5C28.1826 30.5 31.6596 27.479 32.3681 23.5L27 23.5C26.1716 23.5 25.5 22.8284 25.5 22C25.5 21.1716 26.1716 20.5 27 20.5L32.5 20.5V17.5H27C26.1716 17.5 25.5 16.8284 25.5 16C25.5 15.1716 26.1716 14.5 27 14.5H32.3681C31.6596 10.521 28.1826 7.5 24 7.5C19.8174 7.5 16.3404 10.521 15.6319 14.5ZM8 18.5C8.82843 18.5 9.5 19.1716 9.5 20V22C9.5 30.0081 15.9919 36.5 24 36.5C32.0081 36.5 38.5 30.0081 38.5 22V20C38.5 19.1716 39.1716 18.5 40 18.5C40.8284 18.5 41.5 19.1716 41.5 20V22C41.5 31.1597 34.4628 38.6758 25.5 39.4366V44C25.5 44.8284 24.8284 45.5 24 45.5C23.1716 45.5 22.5 44.8284 22.5 44V39.4366C13.5372 38.6758 6.5 31.1597 6.5 22V20C6.5 19.1716 7.17157 18.5 8 18.5Z" fill="#0D1217"/>
</svg>
