<svg width="48" height="48" viewBox="0 0 48 48" fill="none" xmlns="http://www.w3.org/2000/svg">
<path d="M22.8002 36.3224L22.8002 36.3223L37.5919 21.5306C35.5788 20.6927 33.1944 19.3164 30.9393 17.0614C28.6839 14.806 27.3075 12.4212 26.4696 10.4078L11.6776 25.1998L11.6776 25.1999C10.5233 26.3541 9.94614 26.9313 9.4498 27.5677C8.86427 28.3184 8.36227 29.1306 7.95268 29.99C7.60547 30.7186 7.34735 31.493 6.83112 33.0416L4.1089 41.2083C3.85486 41.9704 4.05321 42.8107 4.62126 43.3787C5.18932 43.9468 6.02956 44.1451 6.79168 43.8911L14.9584 41.1689C16.507 40.6527 17.2814 40.3945 18.01 40.0473C18.8694 39.6377 19.6816 39.1357 20.4323 38.5502C21.0687 38.0539 21.6459 37.4766 22.8002 36.3224Z" fill="#0D1217"/>
<path d="M41.6964 17.4261C44.7678 14.3547 44.7678 9.37496 41.6964 6.30356C38.625 3.23215 33.6453 3.23215 30.5739 6.30356L28.7998 8.07763C28.8241 8.15099 28.8493 8.22537 28.8754 8.30071C29.5257 10.175 30.7526 12.632 33.0606 14.94C35.3687 17.2481 37.8257 18.475 39.7 19.1252C39.775 19.1513 39.849 19.1763 39.922 19.2005L41.6964 17.4261Z" fill="#0D1217"/>
</svg>
