<svg width="48" height="48" viewBox="0 0 48 48" fill="none" xmlns="http://www.w3.org/2000/svg">
<path d="M33.1123 25.8123L32.2014 26.7181C32.2014 26.7181 30.0363 28.8709 24.1262 22.9945C18.2162 17.118 20.3814 14.9651 20.3814 14.9651L20.955 14.3948C22.3681 12.9897 22.5014 10.7338 21.2685 9.08697L18.7465 5.71816C17.2206 3.67983 14.2719 3.41057 12.5229 5.14966L9.3837 8.27104C8.51646 9.13335 7.9353 10.2512 8.00578 11.4912C8.18607 14.6636 9.62143 21.4893 17.6307 29.4531C26.1243 37.8985 34.0937 38.2341 37.3526 37.9303C38.3834 37.8342 39.2799 37.3092 40.0022 36.5909L42.8433 33.7659C44.7611 31.859 44.2204 28.5899 41.7667 27.256L37.9456 25.1788C36.3345 24.303 34.3715 24.5603 33.1123 25.8123Z" fill="#0D1217"/>
</svg>
