<svg width="48" height="48" viewBox="0 0 48 48" fill="none" xmlns="http://www.w3.org/2000/svg">
<path fill-rule="evenodd" clip-rule="evenodd" d="M9.43539 6.18423C11.8878 3.60235 15.9442 4.08608 17.9714 6.95324L20.4934 10.5202C22.1148 12.8135 21.9779 16.0019 20.0427 18.0392L19.553 18.5548C19.5516 18.5584 19.5502 18.5622 19.5487 18.5664C19.5228 18.6391 19.4574 18.8707 19.5218 19.3102C19.6553 20.2213 20.3586 22.0726 23.2139 25.0787C26.0782 28.0943 27.8156 28.805 28.6206 28.9358C28.968 28.9922 29.1496 28.9432 29.2076 28.9228L30.0248 28.0624C31.7724 26.2225 34.4971 25.8601 36.694 27.1246L40.515 29.3239C43.7808 31.2037 44.541 35.8021 41.931 38.5499L39.0899 41.541C38.2032 42.4746 36.9941 43.2714 35.5 43.4189C31.8522 43.779 23.402 43.31 14.5432 33.9834C6.27688 25.2805 4.70652 17.7107 4.50801 14.0122L5.84022 13.9407L4.50801 14.0122C4.40993 12.1849 5.22449 10.6175 6.29619 9.48922L9.43539 6.18423ZM15.5218 8.68518C14.4971 7.23588 12.6562 7.1494 11.6106 8.25029L8.47136 11.5553C7.80858 12.2531 7.46083 13.0529 7.5037 13.8515C7.66578 16.8711 8.96614 23.7557 16.7184 31.9173C24.8467 40.4749 32.3353 40.7167 35.2053 40.4334C35.7728 40.3774 36.3567 40.0625 36.9147 39.475L39.7558 36.4838C40.9814 35.1935 40.6602 32.8689 39.0184 31.924L35.1974 29.7246C34.1721 29.1344 32.9709 29.3168 32.2 30.1284L31.2891 31.0874L30.2347 30.0859C31.2891 31.0874 31.2877 31.0889 31.2863 31.0903L31.2835 31.0933L31.2775 31.0994L31.2649 31.1124L31.2362 31.1406C31.2155 31.1606 31.1918 31.1825 31.1649 31.2061C31.1112 31.2532 31.0446 31.307 30.9647 31.3637C30.8045 31.4773 30.5911 31.6023 30.3212 31.7087C29.7692 31.9264 29.0403 32.0432 28.1397 31.897C26.3847 31.612 24.0844 30.3514 21.0387 27.1448C17.984 23.9288 16.8149 21.5293 16.5535 19.7451C16.4204 18.837 16.5269 18.1098 16.7223 17.5606C16.8184 17.2906 16.9319 17.0753 17.0365 16.9117C17.0887 16.8302 17.1384 16.7619 17.1824 16.7064C17.2044 16.6786 17.2249 16.654 17.2436 16.6325L17.2703 16.6025L17.2825 16.5892L17.2883 16.583L17.2911 16.58C17.2925 16.5786 17.2939 16.5771 18.3572 17.5871L17.2939 16.5771L17.8675 15.9732C18.7586 15.035 18.8881 13.4463 18.0438 12.2521L15.5218 8.68518Z" fill="#0D1217"/>
<path d="M26.519 3.76015C26.6514 2.94237 27.4244 2.38762 28.2422 2.52002C28.2928 2.52971 28.4557 2.56015 28.5411 2.57915C28.7117 2.61716 28.9498 2.67568 29.2466 2.76213C29.8401 2.93501 30.6693 3.21982 31.6646 3.67609C33.6571 4.5896 36.3088 6.18761 39.0604 8.93921C41.812 11.6908 43.41 14.3424 44.3235 16.335C44.7797 17.3302 45.0646 18.1594 45.2374 18.753C45.3239 19.0498 45.3824 19.2879 45.4204 19.4585C45.4394 19.5439 45.4533 19.6124 45.463 19.663L45.4745 19.7254C45.6069 20.5432 45.0572 21.3482 44.2394 21.4806C43.424 21.6126 42.6558 21.0605 42.5201 20.2466C42.5159 20.2248 42.5045 20.166 42.4922 20.1107C42.4675 19.9999 42.4248 19.8242 42.3571 19.5919C42.2218 19.1273 41.9867 18.4366 41.5964 17.5852C40.8167 15.8846 39.4148 13.5363 36.939 11.0605C34.4633 8.58481 32.1149 7.18282 30.4143 6.40316C29.563 6.01285 28.8723 5.77778 28.4076 5.64243C28.1753 5.57477 27.8833 5.50775 27.7726 5.48308C26.9586 5.34743 26.387 4.57559 26.519 3.76015Z" fill="#0D1217"/>
<path fill-rule="evenodd" clip-rule="evenodd" d="M26.9722 10.6591C27.1997 9.86255 28.03 9.40131 28.8265 9.6289L28.4144 11.0712C28.8265 9.6289 28.8272 9.6291 28.8279 9.62931L28.8294 9.62973L28.8325 9.63061L28.8391 9.63256L28.8546 9.63719L28.8942 9.64952C28.9244 9.65916 28.962 9.67172 29.0069 9.68765C29.0968 9.71953 29.2155 9.76486 29.3611 9.82726C29.6525 9.95213 30.0506 10.145 30.5396 10.4344C31.5185 11.0138 32.8549 11.9761 34.4249 13.5461C35.9948 15.116 36.9572 16.4524 37.5365 17.4313C37.8259 17.9203 38.0188 18.3185 38.1437 18.6098C38.2061 18.7554 38.2514 18.8742 38.2833 18.964C38.2992 19.0089 38.3118 19.0465 38.3214 19.0767L38.3337 19.1163L38.3384 19.1318L38.3403 19.1384L38.3412 19.1415L38.3416 19.143C38.3418 19.1437 38.342 19.1444 36.8997 19.5565L38.342 19.1444C38.5696 19.9409 38.1084 20.7712 37.3118 20.9988C36.522 21.2244 35.6991 20.7729 35.4634 19.9888L35.456 19.9672C35.4453 19.9372 35.4233 19.878 35.3862 19.7916C35.3122 19.6189 35.178 19.3365 34.9548 18.9593C34.5089 18.2058 33.7034 17.0673 32.3035 15.6674C30.9036 14.2675 29.7651 13.4621 29.0116 13.0161C28.6345 12.7929 28.352 12.6587 28.1793 12.5847C28.0929 12.5477 28.0338 12.5256 28.0037 12.5149L27.9821 12.5075C27.198 12.2718 26.7465 11.4489 26.9722 10.6591Z" fill="#0D1217"/>
</svg>
