<svg width="48" height="48" viewBox="0 0 48 48" fill="none" xmlns="http://www.w3.org/2000/svg">
<path fill-rule="evenodd" clip-rule="evenodd" d="M11.4654 4.08601C13.9 1.66517 17.9088 2.09608 19.9474 4.81925L22.4694 8.18805C24.1282 10.4038 23.9818 13.5006 22.0128 15.4585L21.5352 15.9333C21.5144 15.9939 21.4638 16.1843 21.5199 16.5462C21.6464 17.3612 22.3269 19.09 25.184 21.9308C28.04 24.7706 29.7811 25.4505 30.6076 25.5773C30.9822 25.6348 31.1781 25.5812 31.2388 25.5601L32.0548 24.7487C33.8052 23.0082 36.4949 22.6829 38.6622 23.861L42.4832 25.9381C45.7551 27.7168 46.5817 32.1642 43.9011 34.8296L41.06 37.6546C40.1648 38.5447 38.961 39.2869 37.4919 39.4238C33.8738 39.7611 25.4374 39.3307 16.5732 30.5168C8.29736 22.288 6.70923 15.112 6.5083 11.5763L8.00588 11.4912L6.50829 11.5763C6.40669 9.78852 7.25153 8.27592 8.32617 7.20739L11.4654 4.08601ZM17.5458 6.61713C16.5326 5.26364 14.644 5.15603 13.5806 6.21336L10.4414 9.33474C9.7816 9.99083 9.46412 10.7139 9.50346 11.4061C9.66311 14.2153 10.9457 20.6907 18.6885 28.3895C26.8114 36.4663 34.3137 36.7071 37.2134 36.4368C37.8059 36.3816 38.3951 36.0738 38.9447 35.5272L41.7858 32.7023C42.9407 31.5539 42.686 29.463 41.0503 28.5739L37.2293 26.4967C36.1742 25.9231 34.9381 26.1124 34.1701 26.876L33.2592 27.7818L32.2015 26.7181C33.2592 27.7818 33.2577 27.7832 33.2563 27.7846L33.2534 27.7875L33.2473 27.7934L33.2343 27.8059L33.205 27.8332C33.184 27.8524 33.1599 27.8734 33.1327 27.8959C33.0784 27.9409 33.0116 27.9918 32.9318 28.0453C32.7716 28.1526 32.5602 28.2693 32.2945 28.3683C31.7528 28.5701 31.0384 28.6785 30.1528 28.5426C28.4192 28.2767 26.1227 27.0948 23.0687 24.0582C20.0157 21.0225 18.8239 18.7367 18.5554 17.0061C18.4181 16.1212 18.5276 15.4066 18.7319 14.8645C18.832 14.5988 18.9499 14.3876 19.0582 14.2278C19.1122 14.1481 19.1636 14.0815 19.2089 14.0274C19.2316 14.0003 19.2528 13.9763 19.2721 13.9554L19.2995 13.9262L19.3121 13.9133L19.3181 13.9073L19.321 13.9043C19.3224 13.9029 19.3239 13.9015 20.3815 14.9652L19.3239 13.9015L19.8975 13.3311C20.7547 12.4788 20.8748 11.0639 20.0678 9.98594L17.5458 6.61713Z" fill="#0D1217"/>
</svg>
