<svg width="48" height="48" viewBox="0 0 48 48" fill="none" xmlns="http://www.w3.org/2000/svg">
<path fill-rule="evenodd" clip-rule="evenodd" d="M24 5.5C13.7827 5.5 5.5 13.7827 5.5 24C5.5 34.2173 13.7827 42.5 24 42.5C34.2173 42.5 42.5 34.2173 42.5 24C42.5 13.7827 34.2173 5.5 24 5.5ZM2.5 24C2.5 12.1259 12.1259 2.5 24 2.5C35.8741 2.5 45.5 12.1259 45.5 24C45.5 35.8741 35.8741 45.5 24 45.5C12.1259 45.5 2.5 35.8741 2.5 24ZM24 15.5C22.7574 15.5 21.75 16.5074 21.75 17.75C21.75 18.5784 21.0784 19.25 20.25 19.25C19.4216 19.25 18.75 18.5784 18.75 17.75C18.75 14.8505 21.1005 12.5 24 12.5C26.8995 12.5 29.25 14.8505 29.25 17.75C29.25 19.6767 28.2113 21.3591 26.6705 22.2707C26.277 22.5035 25.9522 22.7577 25.7406 23.0071C25.5351 23.2493 25.5 23.4072 25.5 23.5V26C25.5 26.8284 24.8284 27.5 24 27.5C23.1716 27.5 22.5 26.8284 22.5 26V23.5C22.5 22.4882 22.943 21.6673 23.4532 21.066C23.9572 20.472 24.5858 20.0184 25.1429 19.6888C25.8089 19.2948 26.25 18.5731 26.25 17.75C26.25 16.5074 25.2426 15.5 24 15.5ZM24 34C25.1046 34 26 33.1046 26 32C26 30.8954 25.1046 30 24 30C22.8954 30 22 30.8954 22 32C22 33.1046 22.8954 34 24 34Z" fill="#0D1217"/>
</svg>
