<svg width="48" height="48" viewBox="0 0 48 48" fill="none" xmlns="http://www.w3.org/2000/svg">
<path d="M27.7287 11.5667C27.1012 11.5019 26.2894 11.5 25.0558 11.5H24C23.1716 11.5 22.5 10.8284 22.5 10C22.5 9.17158 23.1716 8.5 24 8.5L25.1295 8.5H25.1296C26.2695 8.49996 27.2373 8.49993 28.0372 8.58263C28.8888 8.67068 29.6759 8.86189 30.4194 9.32142C31.163 9.78096 31.686 10.3994 32.1456 11.1218C32.5508 11.7587 32.9571 12.5606 33.4271 13.5L35.7365 13.5C36.3041 13.5 36.8254 13.4999 37.2597 13.5389C37.7291 13.5811 38.2407 13.678 38.7359 13.9608C39.279 14.271 39.7291 14.721 40.0393 15.2642C40.3221 15.7594 40.4189 16.271 40.4611 16.7403C40.5001 17.1747 40.5001 17.6959 40.5 18.2636V18.3214L40.5002 18.4505C40.5014 18.9701 40.5027 19.5263 40.3341 20.0542C40.2211 20.4078 40.0526 20.7412 39.8349 21.0419C39.5099 21.4908 39.0613 21.8197 38.6423 22.1269L38.5383 22.2033L37.9832 22.6122L38.9573 24.5605C42.6474 25.0306 45.5 28.1822 45.5 32C45.5 36.1421 42.1422 39.5 38 39.5C34.3716 39.5 31.345 36.9234 30.6501 33.5H20.35C19.6551 36.9234 16.6285 39.5 13 39.5C9.36527 39.5 6.33443 36.9144 5.64646 33.4821C3.96745 33.3121 2.64382 31.9645 2.51082 30.2746C2.49984 30.1351 2.49993 29.984 2.50002 29.8385L2.50003 29.8L2.50003 29.7238C2.49999 29.0537 2.49996 28.6276 2.52932 28.2546C2.89595 23.5961 6.5961 19.8959 11.2547 19.5293C11.6276 19.4999 12.0537 19.5 12.7238 19.5H12.7238L12.8 19.5L14.104 19.5C15.901 19.4999 17.3994 19.4999 18.589 19.6598C19.8446 19.8286 20.9782 20.2 21.8891 21.1109C22.8001 22.0219 23.1714 23.1555 23.3402 24.411C23.5001 25.6006 23.5001 27.099 23.5 28.896V28.896L23.5 30.5H30.6501C31.1945 27.8179 33.1703 25.6555 35.7454 24.8448L30.8695 15.0931C30.3178 13.9897 29.9531 13.2644 29.6145 12.7322C29.2945 12.2294 29.0653 12.0112 28.8422 11.8734C28.6192 11.7355 28.3215 11.628 27.7287 11.5667Z" fill="#0D1217"/>
</svg>
