<svg width="48" height="48" viewBox="0 0 48 48" fill="none" xmlns="http://www.w3.org/2000/svg">
<path fill-rule="evenodd" clip-rule="evenodd" d="M23 5.5C13.335 5.5 5.5 13.335 5.5 23C5.5 32.665 13.335 40.5 23 40.5C32.665 40.5 40.5 32.665 40.5 23C40.5 13.335 32.665 5.5 23 5.5ZM2.5 23C2.5 11.6782 11.6782 2.5 23 2.5C34.3218 2.5 43.5 11.6782 43.5 23C43.5 28.121 41.6223 32.8035 38.5177 36.3964L45.0607 42.9393C45.6464 43.5251 45.6464 44.4749 45.0607 45.0607C44.4749 45.6464 43.5251 45.6464 42.9393 45.0607L36.3964 38.5177C32.8035 41.6223 28.121 43.5 23 43.5C11.6782 43.5 2.5 34.3218 2.5 23Z" fill="#0D1217"/>
</svg>
