<svg width="48" height="48" viewBox="0 0 48 48" fill="none" xmlns="http://www.w3.org/2000/svg">
<path fill-rule="evenodd" clip-rule="evenodd" d="M40.7042 21.0416L37.2713 31.3403C34.8509 38.6015 33.6407 42.2322 31.866 43.2639C30.1777 44.2454 28.0926 44.2454 26.4043 43.2639C24.6296 42.2322 23.4194 38.6015 20.999 31.3403C20.6104 30.1744 20.4161 29.5914 20.0899 29.1041C19.7737 28.6319 19.3681 28.2263 18.8959 27.9101C18.4086 27.5839 17.8256 27.3896 16.6597 27.001C9.39847 24.5806 5.76784 23.3704 4.73612 21.5957C3.75463 19.9074 3.75463 17.8222 4.73612 16.134C5.76784 14.3593 9.39847 13.1491 16.6597 10.7286L26.9584 7.29575C35.9552 4.29683 40.4536 2.79737 42.8281 5.17191C45.2026 7.54644 43.7032 12.0448 40.7042 21.0416ZM26.0914 21.8044C25.5088 21.2153 25.5141 20.2656 26.1031 19.6831L34.5242 11.3548C35.1132 10.7723 36.0629 10.7776 36.6455 11.3666C37.228 11.9556 37.2227 12.9053 36.6337 13.4879L28.2127 21.8161C27.6236 22.3986 26.6739 22.3934 26.0914 21.8044Z" fill="#0D1217"/>
</svg>
