<svg width="48" height="48" viewBox="0 0 48 48" fill="none" xmlns="http://www.w3.org/2000/svg">
<path fill-rule="evenodd" clip-rule="evenodd" d="M36.5 14C36.5 18.1421 33.1421 21.5 29 21.5C24.8579 21.5 21.5 18.1421 21.5 14C21.5 9.85786 24.8579 6.5 29 6.5C33.1421 6.5 36.5 9.85786 36.5 14ZM29 18.5C31.4853 18.5 33.5 16.4853 33.5 14C33.5 11.5147 31.4853 9.5 29 9.5C26.5147 9.5 24.5 11.5147 24.5 14C24.5 16.4853 26.5147 18.5 29 18.5Z" fill="#0D1217"/>
<path fill-rule="evenodd" clip-rule="evenodd" d="M11.5 34C11.5 38.1421 14.8579 41.5 19 41.5C23.1421 41.5 26.5 38.1421 26.5 34C26.5 29.8579 23.1421 26.5 19 26.5C14.8579 26.5 11.5 29.8579 11.5 34ZM19 38.5C16.5147 38.5 14.5 36.4853 14.5 34C14.5 31.5147 16.5147 29.5 19 29.5C21.4853 29.5 23.5 31.5147 23.5 34C23.5 36.4853 21.4853 38.5 19 38.5Z" fill="#0D1217"/>
<path d="M28.5 33.917C28.5 33.0886 29.1716 32.417 30 32.417H44C44.8284 32.417 45.5 33.0886 45.5 33.917C45.5 34.7455 44.8284 35.417 44 35.417H30C29.1716 35.417 28.5 34.7455 28.5 33.917Z" fill="#0D1217"/>
<path d="M18 12.417C18.8284 12.417 19.5 13.0886 19.5 13.917C19.5 14.7455 18.8284 15.417 18 15.417L4 15.417C3.17157 15.417 2.5 14.7455 2.5 13.917C2.5 13.0886 3.17157 12.417 4 12.417L18 12.417Z" fill="#0D1217"/>
<path d="M2.5 33.917C2.5 33.0886 3.17157 32.417 4 32.417H8C8.82843 32.417 9.5 33.0886 9.5 33.917C9.5 34.7455 8.82843 35.417 8 35.417H4C3.17157 35.417 2.5 34.7455 2.5 33.917Z" fill="#0D1217"/>
<path d="M44 12.417C44.8284 12.417 45.5 13.0886 45.5 13.917C45.5 14.7455 44.8284 15.417 44 15.417H40C39.1716 15.417 38.5 14.7455 38.5 13.917C38.5 13.0886 39.1716 12.417 40 12.417H44Z" fill="#0D1217"/>
</svg>
