<svg width="48" height="48" viewBox="0 0 48 48" fill="none" xmlns="http://www.w3.org/2000/svg">
<path fill-rule="evenodd" clip-rule="evenodd" d="M27.6061 10.6667C27.6061 6.98477 30.6044 4 34.303 4C38.0017 4 41 6.98477 41 10.6667C41 14.3486 38.0017 17.3333 34.303 17.3333C32.4354 17.3333 30.7476 16.5719 29.5342 15.3469L20.2633 21.6591C20.349 22.085 20.3939 22.5249 20.3939 22.9744C20.3939 23.8644 20.2181 24.7151 19.8992 25.4927L30.0647 32.1716C31.2183 31.2321 32.6946 30.6667 34.303 30.6667C38.0017 30.6667 41 33.6514 41 37.3333C41 41.0152 38.0017 44 34.303 44C30.6044 44 27.6061 41.0152 27.6061 37.3333C27.6061 36.369 27.8125 35.451 28.1834 34.6223L18.1001 27.9974C16.9239 29.0197 15.3832 29.641 13.697 29.641C9.99834 29.641 7 26.6563 7 22.9744C7 19.2925 9.99834 16.3077 13.697 16.3077C15.8238 16.3077 17.7171 17.2945 18.9429 18.8304L27.9279 12.7128C27.7188 12.0672 27.6061 11.3792 27.6061 10.6667Z" fill="#0D1217"/>
</svg>
