<svg width="48" height="48" viewBox="0 0 48 48" fill="none" xmlns="http://www.w3.org/2000/svg">
<path d="M18 12C18 15.3137 20.6863 18 24 18C27.3137 18 30 15.3137 30 12C30 8.68629 27.3137 6 24 6C20.6863 6 18 8.68629 18 12Z" fill="#0D1217"/>
<path d="M5 36C5 39.3137 7.68629 42 11 42C14.3137 42 17 39.3137 17 36C17 32.6863 14.3137 30 11 30C7.68629 30 5 32.6863 5 36Z" fill="#0D1217"/>
<path d="M37 42C33.6863 42 31 39.3137 31 36C31 32.6863 33.6863 30 37 30C40.3137 30 43 32.6863 43 36C43 39.3137 40.3137 42 37 42Z" fill="#0D1217"/>
<path d="M14.4094 15.1246C15.0305 14.5764 15.0896 13.6285 14.5414 13.0074C13.9932 12.3863 13.0453 12.3272 12.4242 12.8754C8.79353 16.0798 6.5 20.773 6.5 26.0001C6.5 26.8285 7.17157 27.5001 8 27.5001C8.82843 27.5001 9.5 26.8285 9.5 26.0001C9.5 21.6695 11.3966 17.7837 14.4094 15.1246Z" fill="#0D1217"/>
<path d="M35.5758 12.8754C34.9547 12.3272 34.0068 12.3863 33.4586 13.0074C32.9104 13.6285 32.9695 14.5764 33.5906 15.1246C36.6034 17.7837 38.5 21.6695 38.5 26.0001C38.5 26.8285 39.1716 27.5001 40 27.5001C40.8284 27.5001 41.5 26.8285 41.5 26.0001C41.5 20.773 39.2065 16.0798 35.5758 12.8754Z" fill="#0D1217"/>
<path d="M20.3739 40.0433C19.5716 39.8368 18.7538 40.3198 18.5473 41.1221C18.3409 41.9244 18.8238 42.7421 19.6261 42.9486C21.0257 43.3089 22.4916 43.5001 24 43.5001C25.5084 43.5001 26.9743 43.3089 28.3739 42.9486C29.1762 42.7421 29.6591 41.9244 29.4527 41.1221C29.2462 40.3198 28.4284 39.8368 27.6261 40.0433C26.4687 40.3412 25.254 40.5001 24 40.5001C22.746 40.5001 21.5313 40.3412 20.3739 40.0433Z" fill="#0D1217"/>
</svg>
