<svg width="48" height="48" viewBox="0 0 48 48" fill="none" xmlns="http://www.w3.org/2000/svg">
<path fill-rule="evenodd" clip-rule="evenodd" d="M18.5 18C18.5 14.9624 20.9624 12.5 24 12.5C27.0376 12.5 29.5 14.9624 29.5 18C29.5 21.0376 27.0376 23.5 24 23.5C20.9624 23.5 18.5 21.0376 18.5 18ZM24 15.5C22.6193 15.5 21.5 16.6193 21.5 18C21.5 19.3807 22.6193 20.5 24 20.5C25.3807 20.5 26.5 19.3807 26.5 18C26.5 16.6193 25.3807 15.5 24 15.5Z" fill="#0D1217"/>
<path fill-rule="evenodd" clip-rule="evenodd" d="M24 24.5C21.6085 24.5 19.3692 24.9815 17.6723 25.8299C16.0652 26.6335 14.5 28.0212 14.5 30L14.4997 30.1249C14.4967 31.1457 14.4915 32.8644 16.1205 34.0435C16.8764 34.5907 17.8738 34.9396 19.1094 35.162C20.3564 35.3863 21.9544 35.5 24 35.5C26.0456 35.5 27.6436 35.3863 28.8906 35.162C30.1262 34.9396 31.1236 34.5907 31.8795 34.0435C33.5085 32.8644 33.5033 31.1457 33.5003 30.1249L33.5 30C33.5 28.0212 31.9348 26.6335 30.3277 25.8299C28.6308 24.9815 26.3915 24.5 24 24.5ZM17.5 30C17.5 29.7697 17.7257 29.1573 19.014 28.5132C20.2125 27.9139 21.9732 27.5 24 27.5C26.0268 27.5 27.7875 27.9139 28.986 28.5132C30.2743 29.1573 30.5 29.7697 30.5 30C30.5 31.2089 30.423 31.3943 30.1205 31.6134C29.8764 31.79 29.3738 32.0269 28.3594 32.2094C27.3564 32.3898 25.9544 32.5 24 32.5C22.0456 32.5 20.6436 32.3898 19.6406 32.2094C18.6262 32.0269 18.1236 31.79 17.8795 31.6134C17.577 31.3943 17.5 31.2089 17.5 30Z" fill="#0D1217"/>
<path fill-rule="evenodd" clip-rule="evenodd" d="M17.4468 4.10223C20.3346 3.11317 22.125 2.5 24 2.5C25.875 2.5 27.6654 3.11317 30.5532 4.10223L32.0081 4.60027C34.9707 5.61439 37.2572 6.39705 38.8939 7.06197C39.7184 7.39692 40.4273 7.72134 40.998 8.05281C41.5473 8.37181 42.0984 8.76968 42.4727 9.30308C42.8428 9.83032 43.0341 10.4785 43.1544 11.1024C43.2794 11.7511 43.3548 12.5293 43.4034 13.4227C43.5 15.1968 43.5 17.6272 43.5 20.7796V23.9827C43.5 36.1848 34.2839 42.035 28.8033 44.4291L28.7491 44.4528C28.0696 44.7498 27.4307 45.0289 26.6968 45.2168C25.9219 45.4152 25.0985 45.5 24 45.5C22.9015 45.5 22.0781 45.4152 21.3032 45.2168C20.5692 45.0289 19.9305 44.7498 19.2509 44.4528L19.1967 44.4291C13.7161 42.035 4.5 36.1848 4.5 23.9827V20.7798C4.5 17.6276 4.5 15.1967 4.5966 13.4227C4.64525 12.5293 4.72062 11.7511 4.84563 11.1024C4.96587 10.4785 5.15721 9.83032 5.52726 9.30308C5.90164 8.76968 6.45269 8.37181 7.00196 8.05281C7.57273 7.72134 8.28157 7.39692 9.10606 7.06197C10.7428 6.39705 13.0292 5.6144 15.9919 4.60027L17.4468 4.10223ZM24 5.5C22.6845 5.5 21.3903 5.92327 18.1612 7.02859L17.0156 7.42074C13.9904 8.45628 11.7842 9.21209 10.2352 9.84137C9.46201 10.1555 8.9018 10.4187 8.50857 10.6471C8.31444 10.7598 8.18067 10.8528 8.09134 10.9255C8.01559 10.987 7.98672 11.0219 7.98258 11.027C7.97872 11.0333 7.95386 11.0748 7.91886 11.1731C7.87889 11.2853 7.83458 11.4462 7.79143 11.6701C7.70408 12.1234 7.63789 12.746 7.59216 13.5858C7.50055 15.2682 7.5 17.6167 7.5 20.8333V23.9827C7.5 34.3329 15.2398 39.4269 20.3976 41.68C21.1405 42.0045 21.5696 42.1882 22.0472 42.3105C22.5034 42.4273 23.06 42.5 24 42.5C24.94 42.5 25.4966 42.4273 25.9528 42.3105C26.4304 42.1882 26.8595 42.0045 27.6024 41.68C32.7602 39.4269 40.5 34.3329 40.5 23.9827V20.8333C40.5 17.6167 40.4994 15.2682 40.4078 13.5858C40.3621 12.746 40.2959 12.1234 40.2086 11.6701C40.1654 11.4462 40.1211 11.2853 40.0811 11.1731C40.0461 11.0747 40.0212 11.0332 40.0174 11.027C40.0132 11.0218 39.9843 10.987 39.9087 10.9255C39.8193 10.8528 39.6856 10.7598 39.4914 10.6471C39.0982 10.4187 38.538 10.1555 37.7648 9.84137C36.2158 9.21209 34.0096 8.45628 30.9844 7.42075L29.8388 7.02859C26.6097 5.92327 25.3155 5.5 24 5.5Z" fill="#0D1217"/>
</svg>
