<svg width="48" height="48" viewBox="0 0 48 48" fill="none" xmlns="http://www.w3.org/2000/svg">
<path d="M7.55582 7.30968C7.19374 8.03147 7.01567 8.92186 6.65951 10.7027L5.46366 16.6819C4.70648 20.4678 7.6022 24 11.4631 24C14.6064 24 17.2382 21.6182 17.551 18.4905L17.689 17.1103C17.3628 20.8076 20.2771 24 23.9996 24C27.7475 24 30.676 20.764 30.3031 17.0347L30.4491 18.4905C30.7618 21.6182 33.3937 24 36.5369 24C40.3978 24 43.2936 20.4678 42.5364 16.6819L41.3405 10.7027C40.9844 8.92189 40.8063 8.03146 40.4442 7.30968C39.6813 5.78879 38.3085 4.66335 36.6675 4.21349C35.8887 4 34.9807 4 33.1646 4H28.9996H14.8354C13.0194 4 12.1113 4 11.3326 4.21349C9.69158 4.66335 8.31877 5.78879 7.55582 7.30968Z" fill="#0D1217"/>
<path d="M36.537 26.9999C38.1713 26.9999 39.6896 26.5752 41 25.8378V27.9999C41 35.5424 41 39.3137 38.6569 41.6568C36.7707 43.543 33.9591 43.9108 29 43.9826V37C29 35.1308 29 34.1962 28.5981 33.5C28.3348 33.0439 27.9561 32.6652 27.5 32.4019C26.8038 32 25.8692 32 24 32C22.1308 32 21.1962 32 20.5 32.4019C20.0439 32.6652 19.6652 33.0439 19.4019 33.5C19 34.1962 19 35.1308 19 37V43.9826C14.0409 43.9108 11.2293 43.543 9.34315 41.6568C7 39.3137 7 35.5424 7 27.9999V25.8378C8.31047 26.5752 9.82878 26.9999 11.4631 26.9999C13.8573 26.9999 16.0523 26.0727 17.6887 24.5439C19.3434 26.0641 21.553 26.9999 23.9996 26.9999C26.4464 26.9999 28.6562 26.0639 30.311 24.5435C31.9474 26.0726 34.1426 26.9999 36.537 26.9999Z" fill="#0D1217"/>
</svg>
