<svg width="48" height="48" viewBox="0 0 48 48" fill="none" xmlns="http://www.w3.org/2000/svg">
<path fill-rule="evenodd" clip-rule="evenodd" d="M22.5839 6.61618C21.7965 7.64447 20.9076 9.23102 19.6165 11.5471L18.9611 12.7228C18.9216 12.7937 18.8826 12.8639 18.844 12.9334C18.2425 14.0158 17.7349 14.9294 16.9169 15.5504C16.0901 16.178 15.0821 16.4045 13.9107 16.6678C13.8354 16.6847 13.7595 16.7018 13.6828 16.7191L12.4101 17.0071C9.89948 17.5751 8.19151 17.966 7.02164 18.427C5.88004 18.8769 5.63907 19.2455 5.54721 19.5409C5.45028 19.8526 5.44739 20.3294 6.12988 21.4136C6.82257 22.5139 7.99117 23.8864 9.70023 25.885L10.5679 26.8996C10.6183 26.9585 10.6683 27.0168 10.7177 27.0745C11.5238 28.0147 12.1958 28.7987 12.5041 29.79C12.8105 30.7754 12.709 31.8108 12.5858 33.0662C12.5783 33.1432 12.5706 33.2211 12.563 33.2998L12.4318 34.6535C12.1736 37.3178 11.9996 39.1523 12.0584 40.4739C12.1172 41.7929 12.3958 42.1575 12.6173 42.3257C12.8143 42.4753 13.1785 42.6408 14.365 42.3008C15.5707 41.9554 17.1732 41.2222 19.524 40.1398L20.7157 39.5912C20.789 39.5574 20.8617 39.5238 20.9338 39.4905C22.0234 38.9867 22.9687 38.5497 24 38.5497C25.0314 38.5497 25.9767 38.9867 27.0663 39.4905C27.1383 39.5238 27.211 39.5574 27.2844 39.5912L28.476 40.1398C30.8269 41.2222 32.4294 41.9554 33.6351 42.3008C34.8216 42.6408 35.1857 42.4753 35.3828 42.3257C35.6043 42.1575 35.8829 41.7929 35.9416 40.4739C36.0005 39.1523 35.8264 37.3178 35.5682 34.6535L35.4371 33.2998C35.4294 33.2211 35.4218 33.1433 35.4142 33.0663C35.2911 31.8108 35.1895 30.7754 35.496 29.79C35.8042 28.7987 36.4763 28.0147 37.2824 27.0745C37.3318 27.0168 37.3818 26.9585 37.4322 26.8996L38.2998 25.885C40.0089 23.8864 41.1775 22.5139 41.8702 21.4136C42.5527 20.3294 42.5498 19.8526 42.4528 19.5409C42.361 19.2455 42.12 18.8769 40.9784 18.427C39.8085 17.966 38.1006 17.5751 35.5899 17.0071L34.3172 16.7191C34.2406 16.7018 34.1646 16.6847 34.0894 16.6678C32.9179 16.4045 31.91 16.178 31.0832 15.5504C30.2652 14.9294 29.7575 14.0158 29.1561 12.9334C29.1174 12.8639 29.0784 12.7937 29.0389 12.7228L28.3835 11.5471C27.0924 9.23102 26.2036 7.64447 25.4161 6.61618C24.6294 5.58886 24.2276 5.5 24 5.5C23.7725 5.5 23.3707 5.58886 22.5839 6.61618ZM20.2021 4.79219C21.1555 3.54726 22.3338 2.5 24 2.5C25.6662 2.5 26.8446 3.54726 27.7979 4.79219C28.7347 6.01546 29.7281 7.79753 30.9421 9.97553L31.6593 11.2621C32.4444 12.6705 32.6452 12.9696 32.8971 13.1609C33.1396 13.3449 33.4524 13.4476 34.9793 13.7931L36.3793 14.1098C38.7306 14.6418 40.6676 15.08 42.0784 15.6359C43.5427 16.213 44.8242 17.0636 45.3175 18.65C45.8058 20.2201 45.2571 21.6646 44.409 23.0118C43.585 24.3207 42.2689 25.8597 40.6612 27.7396L39.7122 28.8493C38.6782 30.0585 38.4622 30.3543 38.3606 30.6808C38.2571 31.0137 38.2669 31.3984 38.4231 33.0104L38.5661 34.4867C38.8096 36.9987 39.0082 39.0472 38.9387 40.6074C38.8679 42.1953 38.5073 43.7203 37.1967 44.7152C35.8617 45.7286 34.3083 45.6144 32.8088 45.1848C31.3548 44.7682 29.5421 43.9335 27.341 42.92L26.0297 42.3162C24.595 41.6556 24.2879 41.5497 24 41.5497C23.7122 41.5497 23.405 41.6556 21.9703 42.3162L20.659 42.92C18.458 43.9335 16.6453 44.7682 15.1913 45.1848C13.6917 45.6144 12.1384 45.7286 10.8034 44.7152C9.49281 43.7203 9.13214 42.1953 9.0614 40.6074C8.9919 39.0472 9.19046 36.9987 9.43394 34.4866L9.57699 33.0104C9.7332 31.3984 9.74294 31.0137 9.63941 30.6808C9.53788 30.3543 9.32188 30.0585 8.28787 28.8493L7.3389 27.7396C5.7312 25.8597 4.41506 24.3208 3.59105 23.0118C2.74299 21.6647 2.19428 20.2201 2.68253 18.65C3.17587 17.0636 4.45733 16.213 5.92171 15.6359C7.33243 15.08 9.26948 14.6418 11.6208 14.1098L11.7481 14.081L13.0208 13.7931C14.5476 13.4476 14.8605 13.3449 15.103 13.1609C15.3549 12.9696 15.5557 12.6705 16.3408 11.2621L17.058 9.97551C18.272 7.79752 19.2654 6.01545 20.2021 4.79219Z" fill="#0D1217"/>
</svg>
