<svg width="48" height="48" viewBox="0 0 48 48" fill="none" xmlns="http://www.w3.org/2000/svg">
<path fill-rule="evenodd" clip-rule="evenodd" d="M23.8852 2.5H24.1148C28.7315 2.49997 32.3496 2.49995 35.1726 2.87949C38.0621 3.26797 40.3421 4.07865 42.1317 5.86827C43.9213 7.65789 44.732 9.93794 45.1205 12.8274C45.5 15.6504 45.5 19.2685 45.5 23.8853V24.1147C45.5 28.7315 45.5 32.3496 45.1205 35.1726C44.732 38.0621 43.9213 40.3421 42.1317 42.1317C40.3421 43.9213 38.0621 44.732 35.1726 45.1205C32.3496 45.5 28.7315 45.5 24.1147 45.5H23.8853C19.2685 45.5 15.6504 45.5 12.8274 45.1205C9.93794 44.732 7.65789 43.9213 5.86827 42.1317C4.07865 40.3421 3.26797 38.0621 2.87949 35.1726C2.49995 32.3496 2.49997 28.7315 2.5 24.1148V23.8852C2.49997 19.2685 2.49995 15.6504 2.87949 12.8274C3.26797 9.93794 4.07865 7.65789 5.86827 5.86827C7.65789 4.07865 9.93794 3.26797 12.8274 2.87949C15.6504 2.49995 19.2685 2.49997 23.8852 2.5ZM13.2272 5.85274C10.6703 6.1965 9.12891 6.85028 7.98959 7.98959C6.85028 9.12891 6.1965 10.6703 5.85274 13.2272C5.50319 15.8271 5.5 19.2435 5.5 24C5.5 28.7565 5.50319 32.1729 5.85274 34.7728C6.1965 37.3297 6.85028 38.8711 7.98959 40.0104C9.12891 41.1497 10.6703 41.8035 13.2272 42.1473C15.8271 42.4968 19.2435 42.5 24 42.5C28.7565 42.5 32.1729 42.4968 34.7728 42.1473C37.3297 41.8035 38.8711 41.1497 40.0104 40.0104C41.1497 38.8711 41.8035 37.3297 42.1473 34.7728C42.4968 32.1729 42.5 28.7565 42.5 24C42.5 19.2435 42.4968 15.8271 42.1473 13.2272C41.8035 10.6703 41.1497 9.12891 40.0104 7.98959C38.8711 6.85028 37.3297 6.1965 34.7728 5.85274C32.1729 5.50319 28.7565 5.5 24 5.5C19.2435 5.5 15.8271 5.50319 13.2272 5.85274Z" fill="#0D1217"/>
</svg>
