<svg width="48" height="48" viewBox="0 0 48 48" fill="none" xmlns="http://www.w3.org/2000/svg">
<path fill-rule="evenodd" clip-rule="evenodd" d="M19.8773 6.5H28.1225C31.8076 6.49997 34.7257 6.49994 37.0093 6.8062C39.3589 7.12131 41.2603 7.7851 42.7601 9.28117C44.8192 11.3352 45.3197 14.1637 45.4774 17.9159L45.4795 17.9643C45.4933 18.292 45.5074 18.6266 45.495 18.9084C45.4818 19.2082 45.4355 19.6411 45.1961 20.0687C45.0304 20.3647 44.8086 20.5692 44.6608 20.6917C44.5005 20.8245 44.3225 20.9448 44.1528 21.0519C43.8253 21.2584 43.3824 21.5057 42.8633 21.7956L42.8251 21.8169C42.0537 22.2477 41.5398 23.0659 41.5398 24C41.5398 24.9341 42.0537 25.7523 42.8251 26.1831L42.8634 26.2045C43.3825 26.4943 43.8253 26.7416 44.1528 26.9482C44.3225 27.0552 44.5005 27.1755 44.6608 27.3083C44.8086 27.4308 45.0304 27.6353 45.1961 27.9313C45.4355 28.3589 45.4818 28.7918 45.495 29.0916C45.5074 29.3734 45.4933 29.708 45.4795 30.0357L45.4774 30.0841C45.3197 33.8363 44.8192 36.6649 42.7601 38.7188C41.2603 40.2149 39.3589 40.8787 37.0093 41.1938C34.7257 41.5001 31.8076 41.5 28.1225 41.5H19.8773C16.1922 41.5 13.2741 41.5001 10.9905 41.1938C8.64091 40.8787 6.7395 40.2149 5.23971 38.7188C3.18061 36.6649 2.68013 33.8363 2.52237 30.0841L2.52033 30.0357C2.5065 29.708 2.49237 29.3734 2.50477 29.0916C2.51796 28.7918 2.56431 28.3589 2.8037 27.9313C2.96937 27.6353 3.19121 27.4308 3.33903 27.3083C3.49931 27.1755 3.67733 27.0552 3.84705 26.9481C4.17451 26.7416 4.61738 26.4943 5.13653 26.2044L5.17471 26.1831C5.94611 25.7523 6.46003 24.9341 6.46003 24C6.46003 23.0659 5.94611 22.2477 5.17471 21.8169L5.13649 21.7956C4.61735 21.5057 4.17449 21.2584 3.84704 21.0519C3.67733 20.9448 3.49931 20.8245 3.33902 20.6917C3.1912 20.5692 2.96936 20.3647 2.8037 20.0687C2.56431 19.6411 2.51796 19.2082 2.50477 18.9084C2.49237 18.6266 2.5065 18.292 2.52033 17.9643C2.52102 17.9482 2.5217 17.932 2.52237 17.9159C2.68013 14.1637 3.18061 11.3352 5.23971 9.28117C6.7395 7.7851 8.64091 7.12131 10.9905 6.8062C13.2741 6.49994 16.1922 6.49997 19.8773 6.5ZM42.4936 29.1684C42.4936 29.1684 42.494 29.1704 42.4945 29.1751L42.4936 29.1684ZM42.4985 29.452C42.4982 29.4651 42.4979 29.4787 42.4975 29.4929C42.4942 29.6208 42.488 29.7694 42.4801 29.9581C42.324 33.6701 41.817 35.4222 40.6414 36.5949C39.7922 37.442 38.6288 37.9497 36.6105 38.2204C34.5495 38.4968 31.8328 38.5 28.0099 38.5H19.9899C16.167 38.5 13.4503 38.4968 11.3893 38.2204C9.37098 37.9497 8.20758 37.442 7.35839 36.5949C6.18282 35.4222 5.67579 33.6701 5.51973 29.9581C5.5118 29.7694 5.50559 29.6208 5.50229 29.4929C5.50193 29.4787 5.50161 29.4651 5.50133 29.452C5.75066 29.298 6.10875 29.0975 6.63741 28.8023C8.3171 27.8643 9.46003 26.0672 9.46003 24C9.46003 21.9328 8.3171 20.1357 6.63741 19.1977C6.10874 18.9025 5.75065 18.702 5.50133 18.548C5.50161 18.5349 5.50193 18.5213 5.50229 18.5072C5.50559 18.3792 5.5118 18.2306 5.51973 18.0419C5.67579 14.3299 6.18282 12.5778 7.35839 11.4051C8.20758 10.558 9.37098 10.0503 11.3893 9.77958C13.4503 9.50317 16.167 9.5 19.9899 9.5H28.0099C31.8328 9.5 34.5495 9.50317 36.6105 9.77958C38.6288 10.0503 39.7922 10.558 40.6414 11.4051C41.817 12.5778 42.324 14.3299 42.4801 18.042C42.488 18.2306 42.4942 18.3792 42.4975 18.5071C42.4979 18.5213 42.4982 18.5349 42.4985 18.548C42.2491 18.702 41.891 18.9025 41.3624 19.1977C39.6827 20.1357 38.5398 21.9328 38.5398 24C38.5398 26.0672 39.6827 27.8643 41.3624 28.8023C41.891 29.0975 42.2491 29.298 42.4985 29.452ZM42.7469 18.3814L42.7447 18.3833C42.7531 18.3756 42.7548 18.375 42.7469 18.3814ZM42.4936 18.8316C42.4936 18.8316 42.4938 18.8292 42.4945 18.825L42.4936 18.8316ZM5.25286 18.3814C5.24504 18.375 5.24667 18.3756 5.25512 18.3833L5.25286 18.3814ZM5.50526 18.8249C5.50597 18.8292 5.50618 18.8316 5.50618 18.8316L5.50526 18.8249ZM5.50618 29.1684C5.50618 29.1684 5.50597 29.1708 5.50526 29.1751L5.50618 29.1684ZM5.25513 29.6167C5.24667 29.6244 5.24503 29.625 5.25285 29.6186L5.25513 29.6167ZM42.7447 29.6167L42.7469 29.6186C42.7548 29.625 42.7531 29.6244 42.7447 29.6167ZM31.0606 16.9393C31.6463 17.5251 31.6463 18.4749 31.0606 19.0607L19.0606 31.0607C18.4748 31.6464 17.525 31.6464 16.9392 31.0607C16.3534 30.4749 16.3534 29.5251 16.9392 28.9393L28.9392 16.9393C29.525 16.3536 30.4748 16.3536 31.0606 16.9393Z" fill="#0D1217"/>
<path d="M30.9999 29C30.9999 30.1046 30.1045 31 28.9999 31C27.8953 31 26.9999 30.1046 26.9999 29C26.9999 27.8954 27.8953 27 28.9999 27C30.1045 27 30.9999 27.8954 30.9999 29Z" fill="#0D1217"/>
<path d="M20.9999 19C20.9999 20.1046 20.1045 21 18.9999 21C17.8953 21 16.9999 20.1046 16.9999 19C16.9999 17.8954 17.8953 17 18.9999 17C20.1045 17 20.9999 17.8954 20.9999 19Z" fill="#0D1217"/>
</svg>
