<svg width="48" height="48" viewBox="0 0 48 48" fill="none" xmlns="http://www.w3.org/2000/svg">
<path fill-rule="evenodd" clip-rule="evenodd" d="M19.99 8H28.01C35.5712 8 39.3519 8 41.7008 10.3431C43.3182 11.9565 43.8219 14.2468 43.9788 17.9789C44.01 18.7191 44.0255 19.0892 43.8873 19.3361C43.7491 19.5829 43.1973 19.8911 42.0938 20.5073C40.8683 21.1917 40.0399 22.4994 40.0399 24C40.0399 25.5006 40.8683 26.8083 42.0938 27.4927C43.1973 28.1089 43.7491 28.4171 43.8873 28.664C44.0255 28.9109 44.01 29.2809 43.9788 30.0211C43.8219 33.7532 43.3182 36.0435 41.7008 37.6569C39.3519 40 35.5712 40 28.01 40H19.99C12.4288 40 8.64814 40 6.29916 37.6569C4.68182 36.0435 4.17806 33.7532 4.02115 30.0211C3.99004 29.2809 3.97448 28.9109 4.11269 28.664C4.2509 28.4171 4.80267 28.1089 5.90616 27.4927C7.13171 26.8083 7.96014 25.5006 7.96014 24C7.96014 22.4994 7.13171 21.1917 5.90616 20.5073C4.80265 19.8911 4.2509 19.5829 4.11269 19.336C3.97448 19.0892 3.99004 18.7191 4.02115 17.9789C4.17806 14.2468 4.68182 11.9565 6.29916 10.3431C8.64814 8 12.4288 8 19.99 8ZM31.0957 16.9393C31.6829 17.5251 31.6829 18.4749 31.0957 19.0607L19.0658 31.0607C18.4785 31.6464 17.5264 31.6464 16.9392 31.0607C16.3519 30.4749 16.3519 29.5251 16.9392 28.9393L28.9691 16.9393C29.5563 16.3536 30.5084 16.3536 31.0957 16.9393ZM29.0299 31C30.1372 31 31.0349 30.1046 31.0349 29C31.0349 27.8954 30.1372 27 29.0299 27C27.9226 27 27.0249 27.8954 27.0249 29C27.0249 30.1046 27.9226 31 29.0299 31ZM19.005 21C20.1123 21 21.0099 20.1046 21.0099 19C21.0099 17.8954 20.1123 17 19.005 17C17.8976 17 17 17.8954 17 19C17 20.1046 17.8976 21 19.005 21Z" fill="#0D1217"/>
</svg>
