<svg width="48" height="48" viewBox="0 0 48 48" fill="none" xmlns="http://www.w3.org/2000/svg">
<path fill-rule="evenodd" clip-rule="evenodd" d="M10.2337 15.5033C11.0603 15.4482 11.7751 16.0736 11.8302 16.9002L12.7501 30.6984C12.9298 33.3941 13.0578 35.2697 13.339 36.681C13.6117 38.0499 13.9923 38.7745 14.5392 39.2861C15.086 39.7976 15.8343 40.1293 17.2183 40.3103C18.6451 40.4969 20.5251 40.5 23.2268 40.5H24.7735C27.4752 40.5 29.3552 40.4969 30.782 40.3103C32.166 40.1293 32.9144 39.7976 33.4612 39.2861C34.008 38.7745 34.3887 38.0499 34.6614 36.681C34.9425 35.2698 35.0706 33.3941 35.2503 30.6984L36.1702 16.9002C36.2253 16.0736 36.94 15.4482 37.7666 15.5033C38.5932 15.5584 39.2186 16.2731 39.1635 17.0997L38.2366 31.0032C38.0656 33.5687 37.9275 35.641 37.6036 37.2671C37.2668 38.9577 36.6939 40.3699 35.5107 41.4768C34.3275 42.5837 32.8804 43.0614 31.1711 43.285C29.5271 43.5 27.4502 43.5 24.879 43.5H23.1213C20.5502 43.5 18.4733 43.5 16.8292 43.285C15.1199 43.0614 13.6728 42.5837 12.4896 41.4768C11.3064 40.3699 10.7336 38.9577 10.3968 37.2671C10.0728 35.641 9.93471 33.5687 9.76372 31.0032L8.83682 17.0997C8.78172 16.2731 9.40713 15.5584 10.2337 15.5033Z" fill="#0D1217"/>
<path fill-rule="evenodd" clip-rule="evenodd" d="M20.7107 4.49995L20.6187 4.49992C20.1859 4.49964 19.8089 4.4994 19.4529 4.55625C18.0463 4.78087 16.8291 5.65818 16.1712 6.92156C16.0046 7.24135 15.8856 7.59915 15.749 8.00981L15.72 8.09704L15.5258 8.67956C15.4878 8.7935 15.4773 8.8249 15.468 8.85036C15.1178 9.81859 14.2098 10.4731 13.1805 10.4992C13.1534 10.4998 13.1203 10.5 13.0002 10.5H7C6.17157 10.5 5.5 11.1715 5.5 12C5.5 12.8284 6.17157 13.5 7 13.5L13.0173 13.5L13.0508 13.5H34.9496L34.983 13.5L41.0002 13.5C41.8286 13.5 42.5002 12.8284 42.5002 12C42.5002 11.1715 41.8286 10.5 41.0002 10.5H35.0002C34.8801 10.5 34.8469 10.4998 34.8199 10.4992C33.7906 10.4731 32.8825 9.81855 32.5323 8.85031C32.5231 8.82503 32.5123 8.79294 32.4745 8.67956L32.2803 8.09704L32.2513 8.00976C32.1147 7.5991 31.9957 7.24134 31.8292 6.92156C31.1713 5.65817 29.9541 4.78087 28.5475 4.55625C28.1914 4.4994 27.8144 4.49964 27.3816 4.49992L27.2896 4.49995H20.7107ZM18.2892 9.87084C18.2106 10.088 18.1193 10.2979 18.0163 10.5H29.984C29.881 10.2979 29.7897 10.088 29.7112 9.87088L29.6338 9.64419L29.4343 9.04573C29.2519 8.49869 29.21 8.38714 29.1683 8.30715C28.949 7.88603 28.5433 7.59359 28.0744 7.51872C27.9854 7.5045 27.8663 7.49995 27.2896 7.49995H20.7107C20.1341 7.49995 20.015 7.5045 19.9259 7.51872C19.4571 7.59359 19.0513 7.88603 18.832 8.30716C18.7904 8.38713 18.7484 8.49871 18.566 9.04573L18.3664 9.64455C18.3364 9.73472 18.313 9.80491 18.2892 9.87084Z" fill="#0D1217"/>
</svg>
