<svg width="48" height="48" viewBox="0 0 48 48" fill="none" xmlns="http://www.w3.org/2000/svg">
<path fill-rule="evenodd" clip-rule="evenodd" d="M16.5 18C16.5 13.8579 19.8579 10.5 24 10.5C28.1421 10.5 31.5 13.8579 31.5 18C31.5 22.1421 28.1421 25.5 24 25.5C19.8579 25.5 16.5 22.1421 16.5 18ZM24 13.5C21.5147 13.5 19.5 15.5147 19.5 18C19.5 20.4853 21.5147 22.5 24 22.5C26.4853 22.5 28.5 20.4853 28.5 18C28.5 15.5147 26.4853 13.5 24 13.5Z" fill="#0D1217"/>
<path fill-rule="evenodd" clip-rule="evenodd" d="M2.5 24C2.5 12.1259 12.1259 2.5 24 2.5C35.8741 2.5 45.5 12.1259 45.5 24C45.5 35.8741 35.8741 45.5 24 45.5C12.1259 45.5 2.5 35.8741 2.5 24ZM24 5.5C13.7827 5.5 5.5 13.7827 5.5 24C5.5 29.0912 7.55654 33.702 10.8842 37.0471C11.245 35.1008 11.9539 33.2658 13.3767 31.7902C15.505 29.583 18.9083 28.5 23.9999 28.5C29.0915 28.5 32.4948 29.583 34.6231 31.7902C36.046 33.2658 36.7548 35.1009 37.1156 37.0472C40.4434 33.7021 42.5 29.0912 42.5 24C42.5 13.7827 34.2173 5.5 24 5.5ZM34.3874 39.3108C34.1836 36.8869 33.6573 35.1106 32.4635 33.8726C31.1646 32.5255 28.7578 31.5 23.9999 31.5C19.242 31.5 16.8352 32.5255 15.5363 33.8726C14.3425 35.1106 13.8162 36.8869 13.6124 39.3107C16.5737 41.3236 20.1495 42.5 24 42.5C27.8505 42.5 31.4262 41.3237 34.3874 39.3108Z" fill="#0D1217"/>
</svg>
