<svg width="48" height="48" viewBox="0 0 48 48" fill="none" xmlns="http://www.w3.org/2000/svg">
<path fill-rule="evenodd" clip-rule="evenodd" d="M44 24C44 35.0457 35.0457 44 24 44C12.9543 44 4 35.0457 4 24C4 12.9543 12.9543 4 24 4C35.0457 4 44 12.9543 44 24ZM30 18C30 21.3137 27.3137 24 24 24C20.6863 24 18 21.3137 18 18C18 14.6863 20.6863 12 24 12C27.3137 12 30 14.6863 30 18ZM24 41C27.5681 41 30.8794 39.9007 33.6138 38.0224C34.8216 37.1928 35.3377 35.6125 34.6355 34.3265C33.1799 31.6605 30.1805 30 23.9999 30C17.8194 30 14.8199 31.6604 13.3643 34.3263C12.6621 35.6123 13.1782 37.1926 14.3859 38.0223C17.1204 39.9007 20.4318 41 24 41Z" fill="#0D1217"/>
</svg>
