<svg width="48" height="48" viewBox="0 0 48 48" fill="none" xmlns="http://www.w3.org/2000/svg">
<path fill-rule="evenodd" clip-rule="evenodd" d="M24 2.5C18.7533 2.5 14.5 6.75329 14.5 12C14.5 17.2467 18.7533 21.5 24 21.5C29.2467 21.5 33.5 17.2467 33.5 12C33.5 6.75329 29.2467 2.5 24 2.5ZM17.5 12C17.5 8.41015 20.4101 5.5 24 5.5C27.5899 5.5 30.5 8.41015 30.5 12C30.5 15.5899 27.5899 18.5 24 18.5C20.4101 18.5 17.5 15.5899 17.5 12Z" fill="#0D1217"/>
<path d="M36 6.5C35.1716 6.5 34.5 7.17157 34.5 8C34.5 8.82843 35.1716 9.5 36 9.5C38.753 9.5 40.5 11.3115 40.5 13C40.5 14.6885 38.753 16.5 36 16.5C35.1716 16.5 34.5 17.1716 34.5 18C34.5 18.8284 35.1716 19.5 36 19.5C39.8744 19.5 43.5 16.8343 43.5 13C43.5 9.16569 39.8744 6.5 36 6.5Z" fill="#0D1217"/>
<path d="M13.5 8C13.5 7.17157 12.8284 6.5 12 6.5C8.12555 6.5 4.5 9.16569 4.5 13C4.5 16.8343 8.12555 19.5 12 19.5C12.8284 19.5 13.5 18.8284 13.5 18C13.5 17.1716 12.8284 16.5 12 16.5C9.24703 16.5 7.5 14.6885 7.5 13C7.5 11.3115 9.24703 9.5 12 9.5C12.8284 9.5 13.5 8.82843 13.5 8Z" fill="#0D1217"/>
<path fill-rule="evenodd" clip-rule="evenodd" d="M24 24.5C20.4315 24.5 17.1329 25.4616 14.6827 27.0951C12.2429 28.7216 10.5 31.1333 10.5 34C10.5 36.8667 12.2429 39.2784 14.6827 40.9049C17.1329 42.5384 20.4315 43.5 24 43.5C27.5685 43.5 30.8671 42.5384 33.3173 40.9049C35.7571 39.2784 37.5 36.8667 37.5 34C37.5 31.1333 35.7571 28.7216 33.3173 27.0951C30.8671 25.4616 27.5685 24.5 24 24.5ZM13.5 34C13.5 32.4484 14.4434 30.8602 16.3468 29.5912C18.2397 28.3293 20.9411 27.5 24 27.5C27.0589 27.5 29.7603 28.3293 31.6532 29.5912C33.5566 30.8602 34.5 32.4484 34.5 34C34.5 35.5516 33.5566 37.1398 31.6532 38.4088C29.7603 39.6707 27.0589 40.5 24 40.5C20.9411 40.5 18.2397 39.6707 16.3468 38.4088C14.4434 37.1398 13.5 35.5516 13.5 34Z" fill="#0D1217"/>
<path d="M38.5348 27.6787C38.7123 26.8695 39.5121 26.3574 40.3213 26.5348C42.2451 26.9567 43.9786 27.7187 45.2656 28.7718C46.5515 29.8241 47.5 31.2705 47.5 33C47.5 34.7295 46.5515 36.1759 45.2656 37.2282C43.9786 38.2813 42.2451 39.0433 40.3213 39.4652C39.5121 39.6426 38.7123 39.1305 38.5348 38.3213C38.3574 37.5121 38.8695 36.7123 39.6787 36.5348C41.2634 36.1873 42.5299 35.5904 43.3658 34.9064C44.2027 34.2215 44.5 33.5526 44.5 33C44.5 32.4474 44.2027 31.7785 43.3658 31.0936C42.5299 30.4096 41.2634 29.8127 39.6787 29.4652C38.8695 29.2877 38.3574 28.4879 38.5348 27.6787Z" fill="#0D1217"/>
<path d="M7.67869 26.5348C8.48789 26.3574 9.28773 26.8695 9.46518 27.6787C9.64264 28.4879 9.1305 29.2877 8.32131 29.4652C6.73658 29.8127 5.4701 30.4096 4.63424 31.0936C3.79726 31.7785 3.5 32.4474 3.5 33C3.5 33.5526 3.79726 34.2215 4.63424 34.9064C5.4701 35.5904 6.73658 36.1873 8.32131 36.5348C9.1305 36.7123 9.64264 37.5121 9.46518 38.3213C9.28773 39.1305 8.48789 39.6426 7.67869 39.4652C5.75493 39.0433 4.0214 38.2813 2.73439 37.2282C1.4485 36.1759 0.5 34.7295 0.5 33C0.5 31.2705 1.4485 29.8241 2.73439 28.7718C4.0214 27.7187 5.75493 26.9567 7.67869 26.5348Z" fill="#0D1217"/>
</svg>
