<svg width="48" height="48" viewBox="0 0 48 48" fill="none" xmlns="http://www.w3.org/2000/svg">
<path d="M31 15C31 18.866 27.866 22 24 22C20.134 22 17 18.866 17 15C17 11.134 20.134 8 24 8C27.866 8 31 11.134 31 15Z" fill="#0D1217"/>
<path d="M36 33C36 36.866 30.6274 40 24 40C17.3726 40 12 36.866 12 33C12 29.134 17.3726 26 24 26C30.6274 26 36 29.134 36 33Z" fill="#0D1217"/>
<path d="M14.2441 10C14.599 10 14.9455 10.0348 15.2801 10.1011C14.465 11.5489 14 13.2202 14 15C14 16.7365 14.4426 18.3696 15.2212 19.7927C14.9049 19.8517 14.5782 19.8825 14.2441 19.8825C11.4153 19.8825 9.12205 17.6702 9.12205 14.9413C9.12205 12.2123 11.4153 10 14.2441 10Z" fill="#0D1217"/>
<path d="M10.8947 37.9719C9.75884 36.6142 9 34.948 9 33C9 31.1115 9.71315 29.488 10.7916 28.1535C6.98219 28.4489 4 30.5324 4 33.0588C4 35.6088 7.03461 37.7077 10.8947 37.9719Z" fill="#0D1217"/>
<path d="M33.9998 15C33.9998 16.7365 33.5572 18.3696 32.7786 19.7927C33.0949 19.8517 33.4216 19.8825 33.7557 19.8825C36.5846 19.8825 38.8778 17.6702 38.8778 14.9413C38.8778 12.2123 36.5846 10 33.7557 10C33.4008 10 33.0543 10.0348 32.7197 10.1011C33.5348 11.5489 33.9998 13.2202 33.9998 15Z" fill="#0D1217"/>
<path d="M37.1052 37.9719C40.9652 37.7077 43.9998 35.6088 43.9998 33.0588C43.9998 30.5324 41.0176 28.4489 37.2083 28.1535C38.2867 29.488 38.9998 31.1115 38.9998 33C38.9998 34.948 38.241 36.6142 37.1052 37.9719Z" fill="#0D1217"/>
</svg>
