<svg width="35" height="30" viewBox="0 0 35 30" fill="none" xmlns="http://www.w3.org/2000/svg">
<path d="M20.9096 1.36706L30.8653 10.2165C32.7265 11.8709 33.6571 12.6981 34 13.6748C34.3012 14.5326 34.3012 15.4673 34 16.3251C33.6571 17.3018 32.7265 18.129 30.8653 19.7834L20.9096 28.6329C20.0651 29.3836 19.6428 29.759 19.2841 29.7724C18.9725 29.7841 18.6732 29.6497 18.4749 29.4091C18.2467 29.1321 18.2467 28.567 18.2467 27.437V21.8571C13.3905 21.8571 8.26137 23.4168 4.51614 26.1855C2.56635 27.6269 1.59141 28.3477 1.22009 28.3192C0.858143 28.2915 0.628438 28.1502 0.440638 27.8395C0.247976 27.5208 0.418145 26.525 0.758483 24.5334C2.96843 11.6011 11.8684 8.14282 18.2467 8.14282V2.56292C18.2467 1.43288 18.2467 0.867869 18.4749 0.590864C18.6732 0.350213 18.9725 0.215845 19.2841 0.227508C19.6428 0.240933 20.0651 0.616308 20.9096 1.36706Z" fill="#0D1217"/>
</svg>
