<svg width="48" height="48" viewBox="0 0 48 48" fill="none" xmlns="http://www.w3.org/2000/svg">
<path fill-rule="evenodd" clip-rule="evenodd" d="M18.9022 6.5H19.0978C22.3024 6.49998 24.8411 6.49996 26.8495 6.73736C28.9114 6.98109 30.6088 7.49277 32.0267 8.6564C32.5078 9.05117 32.9488 9.49224 33.3436 9.97326C34.5072 11.3912 35.0189 13.0886 35.2626 15.1505C35.3174 15.614 35.3596 16.1057 35.392 16.6273C36.9639 15.8438 38.2961 15.2001 39.4063 14.8368C40.7092 14.4105 42.0912 14.2384 43.3658 15.0262C44.6404 15.8139 45.1045 17.1269 45.3059 18.4829C45.5001 19.7912 45.5001 21.5145 45.5 23.5849V24.4151C45.5001 26.4855 45.5001 28.2088 45.3059 29.5171C45.1045 30.8731 44.6404 32.1861 43.3658 32.9738C42.0912 33.7616 40.7092 33.5895 39.4063 33.1632C38.2961 32.7999 36.9639 32.1562 35.392 31.3727C35.3596 31.8943 35.3174 32.386 35.2626 32.8495C35.0189 34.9114 34.5072 36.6088 33.3436 38.0267C32.9488 38.5078 32.5078 38.9488 32.0267 39.3436C30.6088 40.5072 28.9114 41.0189 26.8495 41.2626C24.8411 41.5 22.3024 41.5 19.0979 41.5H18.9021C15.6976 41.5 13.1589 41.5 11.1505 41.2626C9.08856 41.0189 7.39116 40.5072 5.97326 39.3436C5.49224 38.9488 5.05117 38.5078 4.6564 38.0267C3.49277 36.6088 2.98109 34.9114 2.73736 32.8495C2.49996 30.8411 2.49998 28.3024 2.5 25.0978V22.9022C2.49998 19.6976 2.49996 17.1589 2.73736 15.1505C2.98109 13.0886 3.49277 11.3912 4.6564 9.97326C5.05117 9.49224 5.49224 9.05117 5.97326 8.6564C7.39116 7.49277 9.08856 6.98109 11.1505 6.73736C13.1589 6.49996 15.6977 6.49998 18.9022 6.5ZM32.5 25V23C32.5 19.6758 32.4975 17.3145 32.2834 15.5027C32.0731 13.7239 31.6769 12.6713 31.0246 11.8764C30.7545 11.5473 30.4527 11.2455 30.1236 10.9754C29.3288 10.3232 28.2761 9.92687 26.4973 9.71662C24.6855 9.50246 22.3242 9.5 19 9.5C15.6758 9.5 13.3145 9.50246 11.5027 9.71662C9.72394 9.92687 8.67125 10.3232 7.87644 10.9754C7.54732 11.2455 7.24554 11.5473 6.97543 11.8764C6.32315 12.6713 5.92687 13.7239 5.71662 15.5027C5.50246 17.3145 5.5 19.6758 5.5 23V25C5.5 28.3242 5.50246 30.6855 5.71662 32.4973C5.92687 34.2761 6.32315 35.3288 6.97543 36.1236C7.24554 36.4527 7.54732 36.7545 7.87644 37.0246C8.67125 37.6769 9.72394 38.0731 11.5027 38.2834C13.3145 38.4975 15.6758 38.5 19 38.5C22.3242 38.5 24.6855 38.4975 26.4973 38.2834C28.2761 38.0731 29.3288 37.6769 30.1236 37.0246C30.4527 36.7545 30.7545 36.4527 31.0246 36.1236C31.6769 35.3288 32.0731 34.2761 32.2834 32.4973C32.4975 30.6855 32.5 28.3242 32.5 25ZM35.5 28.073L35.9875 28.3167C37.9783 29.3121 39.3196 29.9783 40.3393 30.3119C41.338 30.6387 41.6404 30.5135 41.7886 30.4219C41.9368 30.3303 42.1841 30.1158 42.3384 29.0764C42.496 28.0151 42.5 26.5176 42.5 24.2918V23.7082C42.5 21.4824 42.496 19.9849 42.3384 18.9236C42.1841 17.8842 41.9368 17.6697 41.7886 17.5781C41.6404 17.4865 41.338 17.3613 40.3393 17.6881C39.3196 18.0217 37.9783 18.6879 35.9875 19.6833L35.5 19.9271V22.733C35.5 22.7892 35.5 22.8456 35.5 22.9022V25.0978C35.5 25.1544 35.5 25.2108 35.5 25.267V28.073Z" fill="#0D1217"/>
</svg>
