<svg width="48" height="48" viewBox="0 0 48 48" fill="none" xmlns="http://www.w3.org/2000/svg">
<path fill-rule="evenodd" clip-rule="evenodd" d="M24.2805 9.81907C22.852 10.513 21.0418 11.7028 18.4622 13.4036L18.0243 13.6923C17.991 13.7143 17.9581 13.736 17.9257 13.7574C17.1653 14.259 16.6386 14.6064 16.0615 14.8611C15.4928 15.1121 14.8951 15.2914 14.2822 15.3949C13.6602 15.4999 13.0293 15.4998 12.1184 15.4996C12.0795 15.4996 12.0401 15.4996 12.0002 15.4996C9.11282 15.4996 8.13823 15.5321 7.30961 15.9155C6.50889 16.286 5.65609 17.0884 5.2376 17.8651C4.80104 18.6753 4.7209 19.5057 4.5668 22.034C4.5245 22.728 4.5 23.3931 4.5 23.9996C4.5 24.606 4.5245 25.2712 4.5668 25.9651C4.7209 28.4935 4.80104 29.3239 5.2376 30.1341C5.65609 30.9108 6.50889 31.7132 7.30961 32.0836C8.13823 32.467 9.11282 32.4996 12.0002 32.4996C12.0401 32.4996 12.0795 32.4996 12.1183 32.4996C13.0293 32.4994 13.6602 32.4992 14.2822 32.6043C14.8951 32.7078 15.4928 32.8871 16.0615 33.1381C16.6386 33.3928 17.1653 33.7402 17.9256 34.2417C17.9581 34.2631 17.991 34.2848 18.0243 34.3068L18.4622 34.5955C21.0418 36.2964 22.852 37.4861 24.2805 38.1801C25.705 38.8721 26.4173 38.8999 26.9157 38.7298C27.1905 38.636 27.4594 38.4992 27.6969 38.3322C28.1302 38.0277 28.5253 37.4386 28.803 35.8959C29.082 34.3461 29.1848 32.2022 29.3271 29.1407C29.4311 26.9016 29.5 25.0231 29.5 23.9996C29.5 22.976 29.4311 21.0976 29.3271 18.8584C29.1848 15.7969 29.082 13.653 28.803 12.1033C28.5253 10.5606 28.1302 9.97141 27.6969 9.66692C27.4594 9.49997 27.1905 9.36313 26.9157 9.26936C26.4173 9.09929 25.705 9.12704 24.2805 9.81907ZM22.9696 7.12061C24.6217 6.31808 26.2482 5.87171 27.8846 6.43013C28.4283 6.61569 28.9518 6.88206 29.4219 7.21242C30.834 8.20484 31.4317 9.77286 31.7556 11.5718C32.074 13.3405 32.1828 15.6844 32.3185 18.6042L32.3238 18.7192C32.4274 20.9491 32.5 22.8956 32.5 23.9996C32.5 25.1036 32.4274 27.05 32.3238 29.28L32.3185 29.395C32.1828 32.3148 32.074 34.6587 31.7556 36.4274C31.4317 38.2263 30.834 39.7943 29.4219 40.7867C28.9518 41.1171 28.4283 41.3835 27.8846 41.569C26.2482 42.1274 24.6217 41.6811 22.9696 40.8785C21.3425 40.0881 19.3683 38.7864 16.9065 37.1632L16.3729 36.8114C15.4771 36.2208 15.169 36.0233 14.8503 35.8827C14.509 35.7321 14.1504 35.6245 13.7826 35.5624C13.4391 35.5044 13.0732 35.4996 12.0002 35.4996C11.8914 35.4996 11.7841 35.4996 11.6781 35.4997C9.2443 35.501 7.55319 35.5019 6.04992 34.8064C4.66031 34.1634 3.32283 32.905 2.59656 31.5571C1.81133 30.0997 1.71919 28.5756 1.58817 26.4086C1.58298 26.3226 1.57772 26.2356 1.57236 26.1476C1.52747 25.4111 1.5 24.6827 1.5 23.9996C1.5 23.3164 1.52747 22.588 1.57236 21.8515C1.57772 21.7635 1.58298 21.6765 1.58817 21.5906C1.71919 19.4235 1.81133 17.8994 2.59656 16.4421C3.32283 15.0942 4.66031 13.8357 6.04992 13.1928C7.55318 12.4973 9.2443 12.4982 11.6781 12.4995C11.7841 12.4995 11.8914 12.4996 12.0002 12.4996C13.0732 12.4996 13.4391 12.4948 13.7826 12.4368C14.1504 12.3746 14.509 12.2671 14.8503 12.1165C15.169 11.9758 15.4771 11.7784 16.3729 11.1877L16.9066 10.8359C19.3683 9.21275 21.3425 7.91103 22.9696 7.12061ZM39.0397 10.8477C39.6761 10.3173 40.622 10.4033 41.1523 11.0397L40 12C41.1523 11.0397 41.1523 11.0397 41.1523 11.0397L41.1546 11.0425L41.1572 11.0456L41.1631 11.0528L41.1781 11.0713C41.1895 11.0855 41.2037 11.1034 41.2203 11.125C41.2537 11.1681 41.2973 11.2261 41.3495 11.2992C41.454 11.4455 41.5932 11.6523 41.755 11.922C42.0788 12.4616 42.4925 13.252 42.9 14.3115C43.7165 16.4343 44.5 19.6169 44.5 24C44.5 28.3831 43.7165 31.5657 42.9 33.6885C42.4925 34.748 42.0788 35.5384 41.755 36.078C41.5932 36.3477 41.454 36.5545 41.3495 36.7008C41.2973 36.7739 41.2537 36.8319 41.2203 36.875C41.2104 36.8879 41.2013 36.8995 41.1932 36.9098C41.1877 36.9167 41.1827 36.923 41.1781 36.9287L41.1631 36.9472L41.1572 36.9544L41.1546 36.9575C41.1546 36.9575 41.1523 36.9603 40 36L41.1523 36.9603C40.622 37.5967 39.6761 37.6827 39.0397 37.1523C38.4064 36.6245 38.3182 35.6852 38.8401 35.0489M38.8401 35.0489C38.8401 35.0489 38.8436 35.0444 38.847 35.04C38.8576 35.0263 38.8785 34.9988 38.9083 34.957C38.9679 34.8736 39.0631 34.7336 39.1825 34.5345C39.4212 34.1366 39.7575 33.502 40.1 32.6115C40.7835 30.8343 41.5 28.0169 41.5 24C41.5 19.9831 40.7835 17.1657 40.1 15.3885C39.7575 14.498 39.4212 13.8634 39.1825 13.4655C39.0631 13.2664 38.9679 13.1264 38.9083 13.043C38.8785 13.0012 38.8576 12.9737 38.847 12.96C38.8436 12.9556 38.84 12.9511 38.84 12.9511L38.847 12.96L38.8439 12.9557L38.84 12.9511C38.3182 12.3148 38.4064 11.3755 39.0397 10.8477M35.2715 16.6888C35.9957 16.2864 36.9089 16.5474 37.3112 17.2715L36.0552 17.9693C37.3112 17.2716 37.3112 17.2715 37.3112 17.2715L37.3127 17.2742L37.3142 17.2769L37.3176 17.283L37.3253 17.2973L37.3445 17.334C37.359 17.3621 37.3768 17.3976 37.3973 17.4406C37.4382 17.5267 37.4901 17.6427 37.549 17.7898C37.6667 18.0841 37.8119 18.502 37.953 19.0524C38.2355 20.1543 38.5 21.7798 38.5 24C38.5 26.2202 38.2355 27.8457 37.953 28.9476C37.8119 29.498 37.6667 29.9159 37.549 30.2102C37.4901 30.3573 37.4382 30.4733 37.3973 30.5594C37.3768 30.6024 37.359 30.6379 37.3445 30.666L37.3253 30.7027L37.3176 30.717L37.3142 30.7231L37.3127 30.7258C37.3127 30.7258 37.3112 30.7284 36.0552 30.0307L37.3112 30.7285C36.9089 31.4526 35.9957 31.7136 35.2715 31.3112C34.5535 30.9123 34.2909 30.0112 34.6787 29.29L34.6887 29.2696C34.7024 29.2408 34.7286 29.1833 34.7635 29.096C34.8333 28.9216 34.9381 28.627 35.047 28.2024C35.2645 27.3543 35.5 25.9798 35.5 24C35.5 22.0202 35.2645 20.6457 35.047 19.7976C34.9381 19.373 34.8333 19.0784 34.7635 18.904C34.7286 18.8167 34.7024 18.7592 34.6887 18.7304L34.6787 18.71C34.2909 17.9888 34.5535 17.0877 35.2715 16.6888Z" fill="#0D1217"/>
</svg>
