<svg width="48" height="48" viewBox="0 0 48 48" fill="none" xmlns="http://www.w3.org/2000/svg">
<path fill-rule="evenodd" clip-rule="evenodd" d="M42.2018 16.0071C42.0885 15.9999 41.9651 16 41.8371 16L41.8052 16H36.7882C32.6529 16 29.1144 19.2551 29.1144 23.5C29.1144 27.7449 32.6529 31 36.7882 31H41.8052L41.8371 31C41.9651 31.0001 42.0884 31.0001 42.2018 30.993C43.8815 30.8869 45.367 29.5724 45.4919 27.7364C45.5001 27.616 45.5001 27.4863 45.5 27.366L45.5 27.3334V19.6667L45.5 19.634C45.5001 19.5138 45.5001 19.384 45.4919 19.2636C45.367 17.4276 43.8815 16.1131 42.2018 16.0071ZM36.3434 25.5C37.408 25.5 38.2711 24.6046 38.2711 23.5C38.2711 22.3954 37.408 21.5 36.3434 21.5C35.2787 21.5 34.4156 22.3954 34.4156 23.5C34.4156 24.6046 35.2787 25.5 36.3434 25.5Z" fill="#0D1217"/>
<path fill-rule="evenodd" clip-rule="evenodd" d="M41.8358 34C42.134 33.9923 42.3597 34.2685 42.2788 34.5556C41.8773 35.9805 41.2401 37.1949 40.2175 38.2175C38.7208 39.7142 36.8229 40.3785 34.4781 40.6937C32.1996 41.0001 29.2883 41 25.6128 41H21.3872C17.7117 41 14.8004 41.0001 12.522 40.6937C10.1771 40.3785 8.27921 39.7142 6.78249 38.2175C5.28576 36.7208 4.62153 34.8229 4.30627 32.478C3.99994 30.1996 3.99997 27.2884 4 23.6128V23.3872C3.99997 19.7117 3.99994 16.8004 4.30627 14.522C4.62153 12.1771 5.28576 10.2792 6.78249 8.78249C8.27921 7.28576 10.1771 6.62153 12.522 6.30627C14.8004 5.99994 17.7116 5.99997 21.3872 6L25.6128 6C29.2884 5.99997 32.1996 5.99994 34.478 6.30627C36.8229 6.62153 38.7208 7.28576 40.2175 8.78249C41.2401 9.80505 41.8773 11.0195 42.2788 12.4444C42.3597 12.7315 42.134 13.0077 41.8358 13L36.788 13C31.1147 13 26.1143 17.4818 26.1143 23.5C26.1143 29.5182 31.1147 34 36.788 34L41.8358 34ZM11.5 14C10.6716 14 10 14.6716 10 15.5C10 16.3284 10.6716 17 11.5 17H19.5C20.3284 17 21 16.3284 21 15.5C21 14.6716 20.3284 14 19.5 14H11.5Z" fill="#0D1217"/>
</svg>
