<svg width="48" height="48" viewBox="0 0 48 48" fill="none" xmlns="http://www.w3.org/2000/svg">
<path d="M38 24C38 25.1046 37.1046 26 36 26C34.8954 26 34 25.1046 34 24C34 22.8954 34.8954 22 36 22C37.1046 22 38 22.8954 38 24Z" fill="#0D1217"/>
<path fill-rule="evenodd" clip-rule="evenodd" d="M19.8872 6.5H26.1128C29.7884 6.49997 32.6996 6.49994 34.978 6.80627C37.3229 7.12153 39.2208 7.78576 40.7175 9.28249C42.5663 11.1313 43.1554 13.6073 43.3694 16.8202C44.5239 17.3282 45.3956 18.4026 45.4917 19.7636C45.5002 19.884 45.5001 20.0137 45.5 20.134C45.5 20.145 45.5 20.1559 45.5 20.1667V27.8333C45.5 27.8441 45.5 27.855 45.5 27.866C45.5001 27.9863 45.5002 28.116 45.4917 28.2364C45.3956 29.5974 44.5239 30.6718 43.3694 31.1799C43.1554 34.3928 42.5663 36.8687 40.7175 38.7175C39.2208 40.2142 37.3229 40.8785 34.978 41.1937C32.6996 41.5001 29.7883 41.5 26.1128 41.5H19.8872C16.2117 41.5 13.3004 41.5001 11.022 41.1937C8.67711 40.8785 6.77921 40.2142 5.28249 38.7175C3.78576 37.2208 3.12153 35.3229 2.80627 32.9781C2.49994 30.6996 2.49997 27.7884 2.5 24.1128V23.8872C2.49997 20.2116 2.49994 17.3004 2.80627 15.022C3.12153 12.6771 3.78576 10.7792 5.28249 9.28249C6.77921 7.78576 8.67711 7.12153 11.022 6.80627C13.3004 6.49994 16.2116 6.49997 19.8872 6.5ZM40.3358 31.5H36.4615C32.1711 31.5 28.5 28.2449 28.5 24C28.5 19.7551 32.1711 16.5 36.4615 16.5H40.3358C40.1082 13.8171 39.5933 12.4009 38.5962 11.4038C37.7498 10.5574 36.5905 10.05 34.5783 9.77952C32.523 9.50319 29.8136 9.5 26 9.5H20C16.1864 9.5 13.477 9.50319 11.4217 9.77952C9.40952 10.05 8.25023 10.5574 7.40381 11.4038C6.55739 12.2502 6.05005 13.4095 5.77952 15.4217C5.50319 17.477 5.5 20.1864 5.5 24C5.5 27.8136 5.50319 30.523 5.77952 32.5783C6.05005 34.5905 6.55739 35.7498 7.40381 36.5962C8.25023 37.4426 9.40952 37.95 11.4217 38.2205C13.477 38.4968 16.1864 38.5 20 38.5H26C29.8136 38.5 32.523 38.4968 34.5783 38.2205C36.5905 37.95 37.7498 37.4426 38.5962 36.5962C39.5933 35.5991 40.1082 34.1829 40.3358 31.5ZM10.5 16C10.5 15.1716 11.1716 14.5 12 14.5H20C20.8284 14.5 21.5 15.1716 21.5 16C21.5 16.8284 20.8284 17.5 20 17.5H12C11.1716 17.5 10.5 16.8284 10.5 16ZM41.847 19.5005C41.8064 19.5 41.7531 19.5 41.6667 19.5H36.4615C33.6147 19.5 31.5 21.6175 31.5 24C31.5 26.3825 33.6147 28.5 36.4615 28.5H41.6667C41.7532 28.5 41.8064 28.5 41.8471 28.4996C41.872 28.4993 41.8852 28.4989 41.8914 28.4987L41.8959 28.4985C42.3081 28.4734 42.4855 28.1951 42.4989 28.0278C42.4989 28.0278 42.4993 28.0152 42.4995 27.9972C42.5 27.9617 42.5 27.9144 42.5 27.8333V20.1667C42.5 20.0856 42.5 20.0383 42.4995 20.0029C42.4993 19.9848 42.4989 19.9722 42.4989 19.9722C42.4855 19.8048 42.3081 19.5266 41.8959 19.5015C41.8959 19.5015 41.886 19.5009 41.847 19.5005Z" fill="#0D1217"/>
</svg>
